LambdaSerif-BoldItalic.ufo
<glyph name="exclam" format="2">
  <advance width="266"/>
  <unicode hex="0021"/>
  <outline>
    <component base="period" xOffset="22"/>
    <contour>
      <point x="257" y="658" type="curve" smooth="yes"/>
      <point x="292" y="658"/>
      <point x="319" y="634"/>
      <point x="308" y="583" type="curve" smooth="yes"/>
      <point x="301" y="548"/>
      <point x="285" y="510"/>
      <point x="273" y="477" type="curve" smooth="yes"/>
      <point x="237" y="379"/>
      <point x="203" y="279"/>
      <point x="192" y="230" type="curve" smooth="yes"/>
      <point x="188" y="211"/>
      <point x="178" y="188"/>
      <point x="157" y="188" type="curve" smooth="yes"/>
      <point x="132" y="188"/>
      <point x="134" y="208"/>
      <point x="140" y="242" type="curve" smooth="yes"/>
      <point x="149" y="290"/>
      <point x="161" y="410"/>
      <point x="164" y="480" type="curve" smooth="yes"/>
      <point x="165" y="515"/>
      <point x="165" y="544"/>
      <point x="173" y="583" type="curve" smooth="yes"/>
      <point x="185" y="639"/>
      <point x="228" y="658"/>
    </contour>
  </outline>
</glyph>
<glyph name="quotedbl" format="2">
  <advance width="376"/>
  <unicode hex="0022"/>
  <outline>
    <contour>
      <point x="137.9" y="411.0" type="line"/>
      <point x="124.6" y="415.0" type="line"/>
      <point x="124.6" y="415.0"/>
      <point x="130.7" y="585.0"/>
      <point x="132.0" y="591.0" type="curve" smooth="yes"/>
      <point x="136.9" y="614.0"/>
      <point x="164.1" y="645.0"/>
      <point x="204.5" y="645.0" type="curve" smooth="yes"/>
      <point x="244.0" y="645.0"/>
      <point x="242.8" y="626.0"/>
      <point x="239.0" y="608.0" type="curve" smooth="yes"/>
      <point x="235.8" y="593.0"/>
      <point x="163.6" y="417.0"/>
      <point x="163.6" y="417.0" type="curve"/>
    </contour>
    <component base="quotesingle" xOffset="143.8"/>
  </outline>
</glyph>
<glyph name="numbersign" format="2">
  <advance width="514"/>
  <unicode hex="0023"/>
  <outline>
    <contour>
      <point x="328.2" y="253.0" type="line"/>
      <point x="367.0" y="360.0" type="line"/>
      <point x="278.6" y="360.0" type="line"/>
      <point x="265.1" y="323.0"/>
      <point x="251.5" y="290.0"/>
      <point x="238.0" y="253.0" type="curve"/>
    </contour>
    <contour>
      <point x="416.8" y="360.0" type="line"/>
      <point x="378.1" y="253.0" type="line"/>
      <point x="489.0" y="253.0" type="line"/>
      <point x="467.4" y="187.0" type="line"/>
      <point x="355.6" y="187.0" type="line"/>
      <point x="333.4" y="127.0"/>
      <point x="314.2" y="72.0"/>
      <point x="292.5" y="14.0" type="curve"/>
      <point x="242.7" y="14.0" type="line"/>
      <point x="306.7" y="187.0" type="line"/>
      <point x="216.4" y="187.0" type="line"/>
      <point x="193.3" y="127.0"/>
      <point x="174.2" y="72.0"/>
      <point x="151.5" y="14.0" type="curve"/>
      <point x="99.8" y="14.0" type="line"/>
      <point x="162.9" y="187.0" type="line"/>
      <point x="69.8" y="187.0" type="line"/>
      <point x="92.3" y="253.0" type="line"/>
      <point x="186.3" y="253.0" type="line"/>
      <point x="199.8" y="290.0"/>
      <point x="212.4" y="323.0"/>
      <point x="225.0" y="360.0" type="curve"/>
      <point x="131.0" y="360.0" type="line"/>
      <point x="153.5" y="426.0" type="line"/>
      <point x="247.5" y="426.0" type="line"/>
      <point x="269.2" y="484.0"/>
      <point x="289.8" y="541.0"/>
      <point x="311.5" y="599.0" type="curve"/>
      <point x="364.2" y="599.0" type="line"/>
      <point x="299.2" y="426.0" type="line"/>
      <point x="390.4" y="426.0" type="line"/>
      <point x="412.1" y="484.0"/>
      <point x="431.8" y="541.0"/>
      <point x="453.5" y="599.0" type="curve"/>
      <point x="502.4" y="599.0" type="line"/>
      <point x="440.2" y="426.0" type="line"/>
      <point x="550.2" y="426.0" type="line"/>
      <point x="527.7" y="360.0" type="line"/>
    </contour>
  </outline>
</glyph>
<glyph name="dollar" format="2">
  <advance width="514"/>
  <unicode hex="0024"/>
  <outline>
    <contour>
      <point x="320" y="392" type="curve"/>
      <point x="368" y="572" type="line"/>
      <point x="327" y="568"/>
      <point x="291" y="537"/>
      <point x="280" y="489" type="curve" smooth="yes"/>
      <point x="273" y="453"/>
      <point x="296" y="418"/>
    </contour>
    <contour>
      <point x="312" y="216" type="curve"/>
      <point x="263" y="31" type="line"/>
      <point x="310" y="37"/>
      <point x="348" y="66"/>
      <point x="357" y="107" type="curve" smooth="yes"/>
      <point x="367" y="152"/>
      <point x="341" y="188"/>
    </contour>
    <contour>
      <point x="527" y="585" type="curve"/>
      <point x="522" y="531"/>
      <point x="517" y="493"/>
      <point x="507" y="444" type="curve"/>
      <point x="496" y="436"/>
      <point x="474" y="435"/>
      <point x="462" y="439" type="curve"/>
      <point x="460" y="491"/>
      <point x="454" y="552"/>
      <point x="405" y="568" type="curve"/>
      <point x="352" y="366" type="line"/>
      <point x="355" y="364" type="line" smooth="yes"/>
      <point x="385" y="345"/>
      <point x="433" y="317"/>
      <point x="458" y="277" type="curve" smooth="yes"/>
      <point x="477" y="247"/>
      <point x="491" y="219"/>
      <point x="481" y="171" type="curve" smooth="yes"/>
      <point x="469" y="114"/>
      <point x="431" y="70"/>
      <point x="394" y="41" type="curve" smooth="yes"/>
      <point x="352" y="8"/>
      <point x="304" y="-8"/>
      <point x="253" y="-9" type="curve"/>
      <point x="230" y="-93" type="line"/>
      <point x="223" y="-97"/>
      <point x="200" y="-98"/>
      <point x="191" y="-98" type="curve"/>
      <point x="215" y="-8" type="line"/>
      <point x="126" y="-6"/>
      <point x="124" y="9"/>
      <point x="79" y="9" type="curve"/>
      <point x="76" y="43"/>
      <point x="79" y="92"/>
      <point x="94" y="162" type="curve"/>
      <point x="109" y="166"/>
      <point x="124" y="171"/>
      <point x="138" y="165" type="curve"/>
      <point x="138" y="91"/>
      <point x="176" y="43"/>
      <point x="225" y="32" type="curve"/>
      <point x="281" y="242" type="line"/>
      <point x="246" y="267"/>
      <point x="194" y="297"/>
      <point x="170" y="345" type="curve" smooth="yes"/>
      <point x="156" y="373"/>
      <point x="155" y="414"/>
      <point x="163" y="450" type="curve" smooth="yes"/>
      <point x="173" y="495"/>
      <point x="205" y="538"/>
      <point x="244" y="566" type="curve" smooth="yes"/>
      <point x="284" y="595"/>
      <point x="339" y="608"/>
      <point x="378" y="610" type="curve"/>
      <point x="399" y="690" type="line"/>
      <point x="408" y="693"/>
      <point x="426" y="694"/>
      <point x="438" y="694" type="curve"/>
      <point x="416" y="609" type="line"/>
      <point x="471" y="605"/>
      <point x="487" y="591"/>
    </contour>
  </outline>
</glyph>
<glyph name="percent" format="2">
  <advance width="637"/>
  <unicode hex="0025"/>
  <outline>
    <contour>
      <point x="226.9" y="364.2" type="curve" smooth="yes"/>
      <point x="226.9" y="350.1"/>
      <point x="234.5" y="336.0"/>
      <point x="243.5" y="336.0" type="curve" smooth="yes"/>
      <point x="263.0" y="336.0"/>
      <point x="280.9" y="352.7"/>
      <point x="298.7" y="376.0" type="curve" smooth="yes"/>
      <point x="324.2" y="409.5"/>
      <point x="345.8" y="453.1"/>
      <point x="345.8" y="497.6" type="curve" smooth="yes"/>
      <point x="345.8" y="526.7"/>
      <point x="329.0" y="530.0"/>
      <point x="318.3" y="530.0" type="curve" smooth="yes"/>
      <point x="299.6" y="530.0"/>
      <point x="279.0" y="506.8"/>
      <point x="262.1" y="478.0" type="curve" smooth="yes"/>
      <point x="242.0" y="443.6"/>
      <point x="226.9" y="414.1"/>
    </contour>
    <contour>
      <point x="203.5" y="516.6" type="curve" smooth="yes"/>
      <point x="232.7" y="546.1"/>
      <point x="274.0" y="566.0"/>
      <point x="315.6" y="566.0" type="curve" smooth="yes"/>
      <point x="337.2" y="566.0"/>
      <point x="358.7" y="561.0"/>
      <point x="372.2" y="546.3" type="curve"/>
      <point x="394.4" y="531.0"/>
      <point x="438.3" y="519.0"/>
      <point x="466.7" y="519.0" type="curve" smooth="yes"/>
      <point x="506.2" y="519.0"/>
      <point x="570.4" y="525.0"/>
      <point x="618.3" y="569.0" type="curve"/>
      <point x="658.0" y="548.0" type="line"/>
      <point x="151.8" y="-16.0" type="line"/>
      <point x="103.6" y="-4.0" type="line"/>
      <point x="554.1" y="497.0" type="line"/>
      <point x="514.0" y="481.0"/>
      <point x="475.9" y="474.0"/>
      <point x="447.7" y="474.0" type="curve" smooth="yes"/>
      <point x="427.5" y="474.0"/>
      <point x="401.8" y="482.7"/>
      <point x="385.8" y="492.8" type="curve"/>
      <point x="382.1" y="437.8"/>
      <point x="353.9" y="388.1"/>
      <point x="327.1" y="355.6" type="curve" smooth="yes"/>
      <point x="297.3" y="319.5"/>
      <point x="259.6" y="297.0"/>
      <point x="219.9" y="297.0" type="curve" smooth="yes"/>
      <point x="171.2" y="297.0"/>
      <point x="143.9" y="322.5"/>
      <point x="143.9" y="372.8" type="curve" smooth="yes"/>
      <point x="143.9" y="434.4"/>
      <point x="167.4" y="480.1"/>
    </contour>
    <component base="uniE01F" xOffset="340.0"/>
  </outline>
</glyph>
<glyph name="ampersand" format="2">
  <advance width="729"/>
  <unicode hex="0026"/>
  <outline>
    <contour>
      <point x="372.5" y="536.0" type="curve" smooth="yes"/>
      <point x="368.0" y="515.0"/>
      <point x="371.9" y="458.0"/>
      <point x="388.3" y="420.0" type="curve"/>
      <point x="391.7" y="414.0" type="line"/>
      <point x="437.9" y="447.0"/>
      <point x="483.9" y="489.1"/>
      <point x="491.9" y="527.0" type="curve" smooth="yes"/>
      <point x="501.7" y="573.0"/>
      <point x="482.1" y="613.0"/>
      <point x="445.3" y="613.0" type="curve" smooth="yes"/>
      <point x="426.7" y="613.0"/>
      <point x="403.0" y="603.9"/>
      <point x="388.7" y="581.0" type="curve" smooth="yes"/>
      <point x="378.7" y="565.0"/>
      <point x="376.3" y="554.0"/>
    </contour>
    <contour>
      <point x="602.9" y="355.0" type="curve" smooth="yes"/>
      <point x="624.0" y="390.1"/>
      <point x="603.1" y="400.0"/>
      <point x="575.3" y="402.0" type="curve" smooth="yes"/>
      <point x="570.7" y="402.3"/>
      <point x="568.6" y="406.0"/>
      <point x="569.2" y="409.0" type="curve" smooth="yes"/>
      <point x="574.3" y="433.0" type="line"/>
      <point x="578.7" y="436.0" type="line"/>
      <point x="578.7" y="436.0"/>
      <point x="637.5" y="434.0"/>
      <point x="675.1" y="434.0" type="curve" smooth="yes"/>
      <point x="705.2" y="434.0"/>
      <point x="753.6" y="436.0"/>
      <point x="753.6" y="436.0" type="curve"/>
      <point x="755.0" y="434.0" type="line"/>
      <point x="750.1" y="411.0" type="line" smooth="yes"/>
      <point x="749.0" y="406.0"/>
      <point x="743.6" y="402.4"/>
      <point x="737.9" y="402.0" type="curve" smooth="yes"/>
      <point x="709.3" y="400.0"/>
      <point x="688.0" y="381.7"/>
      <point x="654.4" y="341.0" type="curve" smooth="yes"/>
      <point x="654.4" y="341.0"/>
      <point x="550.1" y="217.0"/>
      <point x="501.4" y="156.0" type="curve"/>
      <point x="518.2" y="111.0"/>
      <point x="534.4" y="51.0"/>
      <point x="563.6" y="51.0" type="curve" smooth="yes"/>
      <point x="581.5" y="51.0"/>
      <point x="603.4" y="52.0"/>
      <point x="634.0" y="90.0" type="curve"/>
      <point x="643.4" y="90.0"/>
      <point x="654.3" y="75.0"/>
      <point x="657.9" y="61.0" type="curve"/>
      <point x="611.3" y="10.0"/>
      <point x="569.5" y="-10.0"/>
      <point x="527.2" y="-10.0" type="curve" smooth="yes"/>
      <point x="485.7" y="-10.0"/>
      <point x="440.9" y="-2.1"/>
      <point x="412.7" y="63.6" type="curve"/>
      <point x="363.9" y="20.9"/>
      <point x="302.7" y="-10.0"/>
      <point x="227.3" y="-10.0" type="curve" smooth="yes"/>
      <point x="176.5" y="-10.0"/>
      <point x="128.9" y="-0.9"/>
      <point x="99.6" y="26.0" type="curve" smooth="yes"/>
      <point x="71.5" y="51.8"/>
      <point x="63.7" y="96.0"/>
      <point x="75.2" y="150.0" type="curve" smooth="yes"/>
      <point x="90.4" y="221.5"/>
      <point x="143.1" y="284.1"/>
      <point x="282.4" y="349.4" type="curve"/>
      <point x="251.0" y="409.4"/>
      <point x="242.2" y="444.8"/>
      <point x="252.0" y="491.0" type="curve" smooth="yes"/>
      <point x="258.3" y="520.5"/>
      <point x="282.8" y="565.0"/>
      <point x="320.3" y="600.0" type="curve" smooth="yes"/>
      <point x="356.3" y="633.6"/>
      <point x="417.4" y="654.0"/>
      <point x="471.9" y="654.0" type="curve" smooth="yes"/>
      <point x="558.4" y="654.0"/>
      <point x="592.0" y="587.0"/>
      <point x="581.4" y="537.0" type="curve" smooth="yes"/>
      <point x="565.9" y="464.0"/>
      <point x="492.2" y="418.0"/>
      <point x="404.5" y="377.0" type="curve"/>
      <point x="407.2" y="372.0" type="line"/>
      <point x="416.3" y="344.0"/>
      <point x="433.0" y="298.8"/>
      <point x="472.4" y="214.0" type="curve" smooth="yes"/>
      <point x="474.7" y="207.2"/>
      <point x="481.7" y="205.0"/>
      <point x="486.5" y="210.0" type="curve" smooth="yes"/>
      <point x="535.4" y="263.0"/>
      <point x="585.5" y="326.0"/>
    </contour>
    <contour>
      <point x="296.1" y="317.0" type="curve"/>
      <point x="227.2" y="265.3"/>
      <point x="209.1" y="213.9"/>
      <point x="199.8" y="170.0" type="curve" smooth="yes"/>
      <point x="185.1" y="101.0"/>
      <point x="215.3" y="31.0"/>
      <point x="253.9" y="31.0" type="curve" smooth="yes"/>
      <point x="300.0" y="31.0"/>
      <point x="338.9" y="51.6"/>
      <point x="389.3" y="104.9" type="curve"/>
      <point x="358.4" y="167.3"/>
      <point x="312.2" y="276.4"/>
    </contour>
  </outline>
</glyph>
<glyph name="quotesingle" format="2">
  <advance width="215"/>
  <unicode hex="0027"/>
  <outline>
    <contour>
      <point x="127" y="411" type="line"/>
      <point x="113" y="415" type="line"/>
      <point x="113" y="415"/>
      <point x="119" y="585"/>
      <point x="121" y="591" type="curve" smooth="yes"/>
      <point x="126" y="614"/>
      <point x="153" y="645"/>
      <point x="193" y="645" type="curve" smooth="yes"/>
      <point x="233" y="645"/>
      <point x="232" y="626"/>
      <point x="228" y="608" type="curve" smooth="yes"/>
      <point x="224" y="593"/>
      <point x="152" y="417"/>
      <point x="152" y="417" type="curve"/>
    </contour>
  </outline>
</glyph>
<glyph name="parenleft" format="2">
  <advance width="315"/>
  <unicode hex="0028"/>
  <outline>
    <contour>
      <point x="96.8" y="253.0" type="curve" smooth="yes"/>
      <point x="135.5" y="435.0"/>
      <point x="268.8" y="607.0"/>
      <point x="416.0" y="720.0" type="curve"/>
      <point x="435.1" y="686.0" type="line"/>
      <point x="399.5" y="651.0"/>
      <point x="261.0" y="517.0"/>
      <point x="204.9" y="253.0" type="curve" smooth="yes"/>
      <point x="148.8" y="-11.0"/>
      <point x="228.4" y="-145.0"/>
      <point x="250.8" y="-181.0" type="curve"/>
      <point x="215.8" y="-213.0" type="line"/>
      <point x="44.1" y="-17.0"/>
      <point x="87.2" y="208.0"/>
    </contour>
  </outline>
</glyph>
<glyph name="parenright" format="2">
  <advance width="315"/>
  <unicode hex="0029"/>
  <outline>
    <contour>
      <point x="325" y="251" type="line" smooth="yes"/>
      <point x="286" y="69"/>
      <point x="153" y="-103"/>
      <point x="6" y="-216" type="curve"/>
      <point x="-13" y="-182" type="line"/>
      <point x="22" y="-147"/>
      <point x="161" y="-13"/>
      <point x="217" y="251" type="curve" smooth="yes"/>
      <point x="273" y="515"/>
      <point x="194" y="649"/>
      <point x="171" y="685" type="curve"/>
      <point x="206" y="717" type="line"/>
      <point x="378" y="521"/>
      <point x="335" y="296"/>
      <point x="325" y="251" type="curve" smooth="yes"/>
    </contour>
  </outline>
</glyph>
<glyph name="asterisk" format="2">
  <advance width="433"/>
  <unicode hex="002A"/>
  <outline>
    <contour>
      <point x="247.1" y="566.0" type="curve"/>
      <point x="235.3" y="568.0"/>
      <point x="224.1" y="573.0"/>
      <point x="209.6" y="571.0" type="curve" smooth="yes"/>
      <point x="165.6" y="563.0"/>
      <point x="131.8" y="563.0"/>
      <point x="141.4" y="608.0" type="curve" smooth="yes"/>
      <point x="144.4" y="622.0"/>
      <point x="156.6" y="640.0"/>
      <point x="179.2" y="640.0" type="curve" smooth="yes"/>
      <point x="211.2" y="640.0"/>
      <point x="220.1" y="607.0"/>
      <point x="257.4" y="588.0" type="curve"/>
      <point x="262.1" y="628.0"/>
      <point x="243.1" y="653.0"/>
      <point x="248.6" y="679.0" type="curve" smooth="yes"/>
      <point x="253.1" y="700.0"/>
      <point x="275.7" y="718.0"/>
      <point x="292.6" y="718.0" type="curve" smooth="yes"/>
      <point x="309.5" y="718.0"/>
      <point x="327.8" y="707.0"/>
      <point x="322.7" y="683.0" type="curve" smooth="yes"/>
      <point x="317.0" y="656.0"/>
      <point x="287.4" y="618.0"/>
      <point x="279.1" y="588.0" type="curve"/>
      <point x="325.4" y="607.0"/>
      <point x="343.2" y="642.0"/>
      <point x="374.2" y="642.0" type="curve" smooth="yes"/>
      <point x="403.3" y="642.0"/>
      <point x="405.7" y="618.0"/>
      <point x="403.6" y="608.0" type="curve" smooth="yes"/>
      <point x="397.2" y="578.0"/>
      <point x="363.2" y="568.0"/>
      <point x="330.3" y="568.0" type="curve" smooth="yes"/>
      <point x="312.4" y="568.0"/>
      <point x="296.5" y="568.0"/>
      <point x="278.9" y="565.0" type="curve"/>
      <point x="303.2" y="529.0"/>
      <point x="351.5" y="531.0"/>
      <point x="340.7" y="480.0" type="curve" smooth="yes"/>
      <point x="336.9" y="462.0"/>
      <point x="317.7" y="451.0"/>
      <point x="304.5" y="451.0" type="curve" smooth="yes"/>
      <point x="258.4" y="451.0"/>
      <point x="274.4" y="513.0"/>
      <point x="259.2" y="552.0" type="curve"/>
      <point x="226.1" y="507.0"/>
      <point x="227.4" y="451.0"/>
      <point x="171.9" y="451.0" type="curve" smooth="yes"/>
      <point x="155.9" y="451.0"/>
      <point x="147.4" y="464.0"/>
      <point x="150.6" y="479.0" type="curve" smooth="yes"/>
      <point x="162.1" y="533.0"/>
      <point x="208.0" y="528.0"/>
    </contour>
  </outline>
</glyph>
<glyph name="plus" format="2">
  <advance width="537"/>
  <unicode hex="002B"/>
  <outline>
    <contour>
      <point x="368.5" y="269.0" type="line"/>
      <point x="525.3" y="269.0" type="line"/>
      <point x="509.5" y="195.0" type="line"/>
      <point x="352.8" y="195.0" type="line"/>
      <point x="318.2" y="32.0" type="line"/>
      <point x="240.6" y="32.0" type="line"/>
      <point x="275.2" y="195.0" type="line"/>
      <point x="118.5" y="195.0" type="line"/>
      <point x="134.2" y="269.0" type="line"/>
      <point x="291.0" y="269.0" type="line"/>
      <point x="325.8" y="433.0" type="line"/>
      <point x="403.4" y="433.0" type="line"/>
    </contour>
  </outline>
</glyph>
<glyph name="comma" format="2">
  <advance width="244"/>
  <unicode hex="002C"/>
  <outline>
    <contour>
      <point x="143.4" y="127.0" type="curve" smooth="yes"/>
      <point x="195.2" y="127.0"/>
      <point x="218.8" y="86.0"/>
      <point x="200.8" y="4.0" type="curve" smooth="yes"/>
      <point x="193.1" y="-31.0"/>
      <point x="157.5" y="-79.7"/>
      <point x="124.0" y="-108.0" type="curve" smooth="yes"/>
      <point x="90.2" y="-136.5"/>
      <point x="42.6" y="-160.7"/>
      <point x="5.5" y="-167.0" type="curve"/>
      <point x="-3.6" y="-159.5"/>
      <point x="-2.4" y="-148.8"/>
      <point x="5.5" y="-136.0" type="curve"/>
      <point x="51.7" y="-124.0"/>
      <point x="116.5" y="-53.5"/>
      <point x="122.3" y="-27.0" type="curve" smooth="yes"/>
      <point x="127.1" y="-5.0"/>
      <point x="102.0" y="2.2"/>
      <point x="94.7" y="6.0" type="curve" smooth="yes"/>
      <point x="72.6" y="17.6"/>
      <point x="65.1" y="48.1"/>
      <point x="70.6" y="73.1" type="curve" smooth="yes"/>
      <point x="75.5" y="95.6"/>
      <point x="118.2" y="127.0"/>
    </contour>
  </outline>
</glyph>
<glyph name="hyphen" format="2">
  <advance width="358"/>
  <unicode hex="002D"/>
  <outline>
    <contour>
      <point x="327.0" y="215.0" type="curve" smooth="yes"/>
      <point x="129.0" y="215.0" type="line" smooth="yes"/>
      <point x="105.0" y="215.0"/>
      <point x="92.0" y="225.0"/>
      <point x="92.0" y="236.0" type="curve" smooth="yes"/>
      <point x="92.0" y="253.0"/>
      <point x="117.0" y="294.0"/>
      <point x="138.0" y="294.0" type="curve" smooth="yes"/>
      <point x="338.0" y="294.0" type="line" smooth="yes"/>
      <point x="366.0" y="294.0"/>
      <point x="374.0" y="284.0"/>
      <point x="374.0" y="273.0" type="curve" smooth="yes"/>
      <point x="374.0" y="260.0"/>
      <point x="350.0" y="215.0"/>
    </contour>
  </outline>
</glyph>
<glyph name="period" format="2">
  <advance width="226"/>
  <unicode hex="002E"/>
  <outline>
    <contour>
      <point x="40.0" y="58.0" type="curve" smooth="yes"/>
      <point x="40.0" y="97.0"/>
      <point x="74.0" y="129.0"/>
      <point x="114.0" y="129.0" type="curve" smooth="yes"/>
      <point x="154.0" y="129.0"/>
      <point x="186.0" y="99.0"/>
      <point x="186.0" y="60.0" type="curve" smooth="yes"/>
      <point x="186.0" y="22.0"/>
      <point x="152.0" y="-10.0"/>
      <point x="112.0" y="-10.0" type="curve" smooth="yes"/>
      <point x="72.0" y="-10.0"/>
      <point x="40.0" y="20.0"/>
    </contour>
  </outline>
</glyph>
<glyph name="slash" format="2">
  <advance width="296"/>
  <unicode hex="002F"/>
  <outline>
    <contour>
      <point x="405" y="682" type="line"/>
      <point x="84" y="-21" type="line"/>
      <point x="25" y="-21" type="line"/>
      <point x="346" y="682" type="line"/>
    </contour>
  </outline>
</glyph>
<glyph name="zero" format="2">
  <advance width="514"/>
  <unicode hex="0030"/>
  <outline>
    <contour>
      <point x="380.0" y="565.0" type="curve" smooth="yes"/>
      <point x="358.0" y="565.0"/>
      <point x="330.0" y="553.0"/>
      <point x="301.0" y="491.0" type="curve" smooth="yes"/>
      <point x="270.0" y="427.0"/>
      <point x="215.0" y="242.0"/>
      <point x="215.0" y="118.0" type="curve" smooth="yes"/>
      <point x="215.0" y="70.0"/>
      <point x="226.0" y="33.0"/>
      <point x="263.0" y="33.0" type="curve" smooth="yes"/>
      <point x="288.0" y="33.0"/>
      <point x="320.0" y="56.0"/>
      <point x="354.0" y="140.0" type="curve" smooth="yes"/>
      <point x="377.0" y="198.0"/>
      <point x="425.0" y="375.0"/>
      <point x="425.0" y="469.0" type="curve" smooth="yes"/>
      <point x="425.0" y="539.0"/>
      <point x="404.0" y="565.0"/>
    </contour>
    <contour>
      <point x="253.0" y="-10.0" type="curve" smooth="yes"/>
      <point x="146.0" y="-10.0"/>
      <point x="96.0" y="78.0"/>
      <point x="96.0" y="195.0" type="curve" smooth="yes"/>
      <point x="96.0" y="341.0"/>
      <point x="160.0" y="470.0"/>
      <point x="226.0" y="536.0" type="curve" smooth="yes"/>
      <point x="275.0" y="584.0"/>
      <point x="332.0" y="610.0"/>
      <point x="390.0" y="610.0" type="curve" smooth="yes"/>
      <point x="467.0" y="610.0"/>
      <point x="549.0" y="565.0"/>
      <point x="549.0" y="420.0" type="curve" smooth="yes"/>
      <point x="549.0" y="284.0"/>
      <point x="487.0" y="146.0"/>
      <point x="433.0" y="83.0" type="curve" smooth="yes"/>
      <point x="375.0" y="16.0"/>
      <point x="306.0" y="-10.0"/>
    </contour>
  </outline>
</glyph>
<glyph name="one" format="2">
  <advance width="514"/>
  <unicode hex="0031"/>
  <outline>
    <contour>
      <point x="376" y="122" type="line" smooth="yes"/>
      <point x="358" y="39"/>
      <point x="403" y="35"/>
      <point x="454" y="32" type="curve"/>
      <point x="462" y="26"/>
      <point x="458" y="4"/>
      <point x="447" y="-2" type="curve"/>
      <point x="388" y="-1"/>
      <point x="328" y="0"/>
      <point x="290" y="0" type="curve" smooth="yes"/>
      <point x="252" y="0"/>
      <point x="190" y="-1"/>
      <point x="131" y="-2" type="curve"/>
      <point x="123" y="4"/>
      <point x="127" y="26"/>
      <point x="138" y="32" type="curve"/>
      <point x="190" y="35"/>
      <point x="236" y="39"/>
      <point x="254" y="122" type="curve" smooth="yes"/>
      <point x="321" y="435" type="line" smooth="yes"/>
      <point x="332" y="485"/>
      <point x="326" y="489"/>
      <point x="314" y="489" type="curve" smooth="yes"/>
      <point x="301" y="489"/>
      <point x="267" y="487"/>
      <point x="211" y="464" type="curve"/>
      <point x="200" y="474"/>
      <point x="197" y="490"/>
      <point x="200" y="507" type="curve"/>
      <point x="289" y="543"/>
      <point x="359" y="567"/>
      <point x="422" y="595" type="curve" smooth="yes"/>
      <point x="446" y="606"/>
      <point x="463" y="610"/>
      <point x="472" y="610" type="curve" smooth="yes"/>
      <point x="480" y="610"/>
      <point x="487" y="606"/>
      <point x="484" y="593" type="curve" smooth="yes"/>
      <point x="484" y="593"/>
      <point x="464" y="536"/>
      <point x="453" y="483" type="curve" smooth="yes"/>
    </contour>
  </outline>
</glyph>
<glyph name="two" format="2">
  <advance width="514"/>
  <unicode hex="0032"/>
  <outline>
    <contour>
      <point x="257.0" y="583.0" type="curve" smooth="yes"/>
      <point x="291.0" y="599.0"/>
      <point x="322.0" y="610.0"/>
      <point x="370.0" y="610.0" type="curve" smooth="yes"/>
      <point x="451.0" y="610.0"/>
      <point x="531.0" y="560.0"/>
      <point x="531.0" y="482.0" type="curve" smooth="yes"/>
      <point x="531.0" y="387.0"/>
      <point x="474.0" y="346.0"/>
      <point x="339.0" y="223.0" type="curve" smooth="yes"/>
      <point x="285.0" y="174.0" type="line" smooth="yes"/>
      <point x="249.0" y="141.0"/>
      <point x="232.0" y="122.0"/>
      <point x="212.0" y="99.0" type="curve"/>
      <point x="353.0" y="99.0" type="line" smooth="yes"/>
      <point x="395.0" y="99.0"/>
      <point x="405.0" y="106.0"/>
      <point x="440.0" y="174.0" type="curve"/>
      <point x="462.0" y="174.0"/>
      <point x="469.0" y="170.0"/>
      <point x="480.0" y="164.0" type="curve"/>
      <point x="461.0" y="107.0"/>
      <point x="435.0" y="38.0"/>
      <point x="416.0" y="0.0" type="curve"/>
      <point x="64.0" y="0.0" type="line"/>
      <point x="60.0" y="8.0"/>
      <point x="62.0" y="26.0"/>
      <point x="68.0" y="36.0" type="curve"/>
      <point x="98.0" y="63.0"/>
      <point x="146.0" y="109.0"/>
      <point x="238.0" y="204.0" type="curve" smooth="yes"/>
      <point x="320.0" y="289.0" type="line" smooth="yes"/>
      <point x="377.0" y="348.0"/>
      <point x="400.0" y="396.0"/>
      <point x="400.0" y="466.0" type="curve" smooth="yes"/>
      <point x="400.0" y="518.0"/>
      <point x="363.0" y="550.0"/>
      <point x="320.0" y="550.0" type="curve" smooth="yes"/>
      <point x="282.0" y="550.0"/>
      <point x="260.0" y="539.0"/>
      <point x="249.0" y="518.0" type="curve" smooth="yes"/>
      <point x="238.0" y="497.0"/>
      <point x="254.0" y="480.0"/>
      <point x="249.0" y="454.0" type="curve" smooth="yes"/>
      <point x="243.0" y="423.0"/>
      <point x="212.0" y="410.0"/>
      <point x="185.0" y="410.0" type="curve" smooth="yes"/>
      <point x="155.0" y="410.0"/>
      <point x="140.0" y="433.0"/>
      <point x="140.0" y="455.0" type="curve" smooth="yes"/>
      <point x="140.0" y="512.0"/>
      <point x="195.0" y="553.0"/>
    </contour>
  </outline>
</glyph>
<glyph name="three" format="2">
  <advance width="514"/>
  <unicode hex="0033"/>
  <outline>
    <contour>
      <point x="325.0" y="550.0" type="curve" smooth="yes"/>
      <point x="293.0" y="550.0"/>
      <point x="261.0" y="545.0"/>
      <point x="252.0" y="505.0" type="curve" smooth="yes"/>
      <point x="244.0" y="472.0"/>
      <point x="229.0" y="434.0"/>
      <point x="192.0" y="434.0" type="curve" smooth="yes"/>
      <point x="169.0" y="434.0"/>
      <point x="148.0" y="448.0"/>
      <point x="148.0" y="474.0" type="curve" smooth="yes"/>
      <point x="148.0" y="500.0"/>
      <point x="170.0" y="521.0"/>
      <point x="200.0" y="544.0" type="curve" smooth="yes"/>
      <point x="237.0" y="572.0"/>
      <point x="292.0" y="610.0"/>
      <point x="365.0" y="610.0" type="curve" smooth="yes"/>
      <point x="472.0" y="610.0"/>
      <point x="511.0" y="535.0"/>
      <point x="511.0" y="492.0" type="curve" smooth="yes"/>
      <point x="511.0" y="422.0"/>
      <point x="472.0" y="386.0"/>
      <point x="399.0" y="347.0" type="curve"/>
      <point x="399.0" y="344.0" type="line"/>
      <point x="464.0" y="321.0"/>
      <point x="499.0" y="273.0"/>
      <point x="499.0" y="217.0" type="curve" smooth="yes"/>
      <point x="499.0" y="141.0"/>
      <point x="466.0" y="100.0"/>
      <point x="426.0" y="60.0" type="curve" smooth="yes"/>
      <point x="366.0" y="0.0"/>
      <point x="285.0" y="-10.0"/>
      <point x="220.0" y="-10.0" type="curve" smooth="yes"/>
      <point x="174.0" y="-10.0"/>
      <point x="113.0" y="5.0"/>
      <point x="83.0" y="23.0" type="curve" smooth="yes"/>
      <point x="68.0" y="32.0"/>
      <point x="61.0" y="43.0"/>
      <point x="61.0" y="58.0" type="curve" smooth="yes"/>
      <point x="61.0" y="83.0"/>
      <point x="79.0" y="111.0"/>
      <point x="112.0" y="111.0" type="curve" smooth="yes"/>
      <point x="147.0" y="111.0"/>
      <point x="162.0" y="89.0"/>
      <point x="169.0" y="74.0" type="curve" smooth="yes"/>
      <point x="178.0" y="57.0"/>
      <point x="206.0" y="32.0"/>
      <point x="243.0" y="32.0" type="curve" smooth="yes"/>
      <point x="308.0" y="32.0"/>
      <point x="371.0" y="94.0"/>
      <point x="371.0" y="182.0" type="curve" smooth="yes"/>
      <point x="371.0" y="258.0"/>
      <point x="311.0" y="291.0"/>
      <point x="270.0" y="291.0" type="curve" smooth="yes"/>
      <point x="256.0" y="291.0"/>
      <point x="239.0" y="291.0"/>
      <point x="220.0" y="289.0" type="curve"/>
      <point x="225.0" y="329.0" type="line"/>
      <point x="257.0" y="333.0"/>
      <point x="289.0" y="340.0"/>
      <point x="318.0" y="354.0" type="curve" smooth="yes"/>
      <point x="380.0" y="384.0"/>
      <point x="397.0" y="419.0"/>
      <point x="397.0" y="482.0" type="curve" smooth="yes"/>
      <point x="397.0" y="520.0"/>
      <point x="364.0" y="550.0"/>
    </contour>
  </outline>
</glyph>
<glyph name="four" format="2">
  <advance width="514"/>
  <unicode hex="0034"/>
  <outline>
    <contour>
      <point x="356.0" y="501.0" type="line"/>
      <point x="291.0" y="429.0"/>
      <point x="186.0" y="293.0"/>
      <point x="121.0" y="209.0" type="curve"/>
      <point x="294.0" y="209.0" type="line"/>
    </contour>
    <contour>
      <point x="502.0" y="209.0" type="line" smooth="yes"/>
      <point x="510.0" y="209.0"/>
      <point x="514.0" y="205.0"/>
      <point x="514.0" y="199.0" type="curve" smooth="yes"/>
      <point x="514.0" y="183.0"/>
      <point x="494.0" y="162.0"/>
      <point x="479.0" y="162.0" type="curve" smooth="yes"/>
      <point x="400.0" y="162.0" type="line"/>
      <point x="392.0" y="122.0" type="line" smooth="yes"/>
      <point x="374.0" y="39.0"/>
      <point x="409.0" y="35.0"/>
      <point x="460.0" y="32.0" type="curve"/>
      <point x="468.0" y="26.0"/>
      <point x="464.0" y="4.0"/>
      <point x="453.0" y="-2.0" type="curve"/>
      <point x="376.0" y="-1.0"/>
      <point x="346.0" y="0.0"/>
      <point x="308.0" y="0.0" type="curve" smooth="yes"/>
      <point x="270.0" y="0.0"/>
      <point x="239.0" y="-1.0"/>
      <point x="162.0" y="-2.0" type="curve"/>
      <point x="154.0" y="4.0"/>
      <point x="158.0" y="26.0"/>
      <point x="169.0" y="32.0" type="curve"/>
      <point x="221.0" y="35.0"/>
      <point x="257.0" y="39.0"/>
      <point x="275.0" y="122.0" type="curve" smooth="yes"/>
      <point x="284.0" y="162.0" type="line"/>
      <point x="117.0" y="162.0" type="line" smooth="yes"/>
      <point x="94.0" y="162.0"/>
      <point x="91.0" y="164.0"/>
      <point x="88.0" y="169.0" type="curve" smooth="yes"/>
      <point x="83.3982100669" y="176.669649888"/>
      <point x="69.0" y="201.0"/>
      <point x="69.0" y="209.0" type="curve" smooth="yes"/>
      <point x="69.0" y="213.0"/>
      <point x="76.0" y="219.0"/>
      <point x="79.0" y="223.0" type="curve" smooth="yes"/>
      <point x="183.0" y="347.0"/>
      <point x="320.0" y="519.0"/>
      <point x="411.0" y="610.0" type="curve"/>
      <point x="496.0" y="610.0" type="line"/>
      <point x="410.0" y="209.0" type="line"/>
    </contour>
  </outline>
</glyph>
<glyph name="five" format="2">
  <advance width="514"/>
  <unicode hex="0035"/>
  <outline>
    <contour>
      <point x="358" y="193" type="curve" smooth="yes"/>
      <point x="358" y="248"/>
      <point x="338" y="280"/>
      <point x="296" y="293" type="curve" smooth="yes"/>
      <point x="266" y="302"/>
      <point x="198" y="312"/>
      <point x="162" y="313" type="curve"/>
      <point x="152" y="321" type="line"/>
      <point x="252" y="610" type="line"/>
      <point x="305" y="606"/>
      <point x="334" y="600"/>
      <point x="372" y="600" type="curve" smooth="yes"/>
      <point x="428" y="600"/>
      <point x="465" y="606"/>
      <point x="535" y="613" type="curve"/>
      <point x="554" y="600" type="line"/>
      <point x="518" y="514" type="line"/>
      <point x="460" y="510"/>
      <point x="442" y="508"/>
      <point x="408" y="508" type="curve" smooth="yes"/>
      <point x="368" y="508"/>
      <point x="302" y="510"/>
      <point x="273" y="513" type="curve"/>
      <point x="234" y="408" type="line"/>
      <point x="260" y="404"/>
      <point x="313" y="391"/>
      <point x="341" y="384" type="curve" smooth="yes"/>
      <point x="448" y="358"/>
      <point x="487" y="281"/>
      <point x="487" y="218" type="curve" smooth="yes"/>
      <point x="487" y="77"/>
      <point x="362" y="-10"/>
      <point x="223" y="-10" type="curve" smooth="yes"/>
      <point x="178" y="-10"/>
      <point x="128" y="-2"/>
      <point x="96" y="18" type="curve" smooth="yes"/>
      <point x="78" y="29"/>
      <point x="67" y="47"/>
      <point x="67" y="63" type="curve" smooth="yes"/>
      <point x="67" y="91"/>
      <point x="87" y="118"/>
      <point x="122" y="118" type="curve" smooth="yes"/>
      <point x="157" y="118"/>
      <point x="179" y="99"/>
      <point x="188" y="79" type="curve" smooth="yes"/>
      <point x="199" y="55"/>
      <point x="221" y="34"/>
      <point x="240" y="34" type="curve" smooth="yes"/>
      <point x="314" y="34"/>
      <point x="358" y="109"/>
    </contour>
  </outline>
</glyph>
<glyph name="six" format="2">
  <advance width="514"/>
  <unicode hex="0036"/>
  <outline>
    <contour>
      <point x="237.0" y="295.0" type="curve"/>
      <point x="221.0" y="254.0"/>
      <point x="211.0" y="193.0"/>
      <point x="211.0" y="137.0" type="curve" smooth="yes"/>
      <point x="211.0" y="60.0"/>
      <point x="255.0" y="32.0"/>
      <point x="278.0" y="32.0" type="curve" smooth="yes"/>
      <point x="348.0" y="32.0"/>
      <point x="381.0" y="136.0"/>
      <point x="381.0" y="225.0" type="curve" smooth="yes"/>
      <point x="381.0" y="275.0"/>
      <point x="358.0" y="321.0"/>
      <point x="313.0" y="321.0" type="curve" smooth="yes"/>
      <point x="296.0" y="321.0"/>
      <point x="278.0" y="319.0"/>
    </contour>
    <contour>
      <point x="542.0" y="602.0" type="curve"/>
      <point x="480.0" y="579.0"/>
      <point x="437.0" y="557.0"/>
      <point x="371.0" y="509.0" type="curve" smooth="yes"/>
      <point x="319.0" y="471.0"/>
      <point x="274.0" y="408.0"/>
      <point x="252.0" y="336.0" type="curve"/>
      <point x="290.0" y="358.0"/>
      <point x="328.0" y="371.0"/>
      <point x="356.0" y="371.0" type="curve" smooth="yes"/>
      <point x="482.0" y="371.0"/>
      <point x="511.0" y="294.0"/>
      <point x="511.0" y="240.0" type="curve" smooth="yes"/>
      <point x="511.0" y="106.0"/>
      <point x="406.0" y="-10.0"/>
      <point x="259.0" y="-10.0" type="curve" smooth="yes"/>
      <point x="180.0" y="-10.0"/>
      <point x="90.0" y="52.0"/>
      <point x="90.0" y="184.0" type="curve" smooth="yes"/>
      <point x="90.0" y="314.0"/>
      <point x="167.0" y="439.0"/>
      <point x="266.0" y="513.0" type="curve" smooth="yes"/>
      <point x="346.0" y="573.0"/>
      <point x="422.0" y="610.0"/>
      <point x="532.0" y="636.0" type="curve"/>
      <point x="539.0" y="628.0"/>
      <point x="542.0" y="616.0"/>
    </contour>
  </outline>
</glyph>
<glyph name="seven" format="2">
  <advance width="514"/>
  <unicode hex="0037"/>
  <outline>
    <contour>
      <point x="269" y="498" type="line" smooth="yes"/>
      <point x="238" y="498"/>
      <point x="221" y="482"/>
      <point x="190" y="410" type="curve"/>
      <point x="179" y="408"/>
      <point x="163" y="409"/>
      <point x="150" y="414" type="curve"/>
      <point x="160" y="472"/>
      <point x="176" y="559"/>
      <point x="187" y="607" type="curve" smooth="yes"/>
      <point x="188" y="610"/>
      <point x="189" y="610"/>
      <point x="192" y="610" type="curve"/>
      <point x="208" y="606"/>
      <point x="207" y="600"/>
      <point x="239" y="600" type="curve" smooth="yes"/>
      <point x="577" y="600" type="line"/>
      <point x="581" y="591" type="line"/>
      <point x="402" y="319"/>
      <point x="318" y="169"/>
      <point x="224" y="-2" type="curve"/>
      <point x="122" y="-12" type="line"/>
      <point x="119" y="0" type="line"/>
      <point x="223" y="144"/>
      <point x="376" y="362"/>
      <point x="467" y="498" type="curve"/>
    </contour>
  </outline>
</glyph>
<glyph name="eight" format="2">
  <advance width="514"/>
  <unicode hex="0038"/>
  <outline>
    <contour>
      <point x="378.0" y="567.0" type="curve" smooth="yes"/>
      <point x="346.0" y="567.0"/>
      <point x="327.0" y="561.0"/>
      <point x="314.0" y="547.0" type="curve" smooth="yes"/>
      <point x="298.0" y="529.0"/>
      <point x="292.0" y="498.0"/>
      <point x="292.0" y="466.0" type="curve" smooth="yes"/>
      <point x="292.0" y="443.0"/>
      <point x="300.0" y="416.0"/>
      <point x="330.0" y="397.0" type="curve" smooth="yes"/>
      <point x="372.0" y="371.0" type="line"/>
      <point x="408.0" y="392.0"/>
      <point x="434.0" y="442.0"/>
      <point x="434.0" y="496.0" type="curve" smooth="yes"/>
      <point x="434.0" y="537.0"/>
      <point x="413.0" y="567.0"/>
    </contour>
    <contour>
      <point x="492.0" y="395.0" type="curve" smooth="yes"/>
      <point x="468.0" y="372.0"/>
      <point x="437.0" y="356.0"/>
      <point x="407.0" y="347.0" type="curve"/>
      <point x="453.0" y="314.0" type="line" smooth="yes"/>
      <point x="489.0" y="288.0"/>
      <point x="505.0" y="248.0"/>
      <point x="505.0" y="204.0" type="curve" smooth="yes"/>
      <point x="505.0" y="132.0"/>
      <point x="474.0" y="83.0"/>
      <point x="414.0" y="41.0" type="curve" smooth="yes"/>
      <point x="372.0" y="11.0"/>
      <point x="316.0" y="-10.0"/>
      <point x="248.0" y="-10.0" type="curve" smooth="yes"/>
      <point x="154.0" y="-10.0"/>
      <point x="73.0" y="34.0"/>
      <point x="73.0" y="115.0" type="curve" smooth="yes"/>
      <point x="73.0" y="165.0"/>
      <point x="104.0" y="208.0"/>
      <point x="140.0" y="242.0" type="curve" smooth="yes"/>
      <point x="169.0" y="269.0"/>
      <point x="202.0" y="290.0"/>
      <point x="254.0" y="313.0" type="curve"/>
      <point x="236.0" y="326.0" type="line" smooth="yes"/>
      <point x="191.0" y="360.0"/>
      <point x="168.0" y="392.0"/>
      <point x="168.0" y="430.0" type="curve" smooth="yes"/>
      <point x="168.0" y="485.0"/>
      <point x="193.0" y="523.0"/>
      <point x="230.0" y="555.0" type="curve" smooth="yes"/>
      <point x="267.0" y="588.0"/>
      <point x="318.0" y="610.0"/>
      <point x="392.0" y="610.0" type="curve" smooth="yes"/>
      <point x="491.0" y="610.0"/>
      <point x="540.0" y="550.0"/>
      <point x="540.0" y="496.0" type="curve" smooth="yes"/>
      <point x="540.0" y="447.0"/>
      <point x="521.0" y="423.0"/>
    </contour>
    <contour>
      <point x="262.0" y="32.0" type="curve" smooth="yes"/>
      <point x="288.0" y="32.0"/>
      <point x="319.0" y="37.0"/>
      <point x="346.0" y="68.0" type="curve" smooth="yes"/>
      <point x="365.0" y="90.0"/>
      <point x="385.0" y="133.0"/>
      <point x="385.0" y="180.0" type="curve" smooth="yes"/>
      <point x="385.0" y="210.0"/>
      <point x="372.0" y="231.0"/>
      <point x="332.0" y="259.0" type="curve" smooth="yes"/>
      <point x="287.0" y="290.0" type="line"/>
      <point x="199.0" y="234.0"/>
      <point x="188.0" y="175.0"/>
      <point x="188.0" y="110.0" type="curve" smooth="yes"/>
      <point x="188.0" y="65.0"/>
      <point x="222.0" y="32.0"/>
    </contour>
  </outline>
</glyph>
<glyph name="nine" format="2">
  <advance width="514"/>
  <unicode hex="0039"/>
  <outline>
    <contour>
      <point x="382" y="305" type="line"/>
      <point x="398" y="346"/>
      <point x="408" y="407"/>
      <point x="408" y="463" type="curve" smooth="yes"/>
      <point x="408" y="540"/>
      <point x="363" y="568"/>
      <point x="340" y="568" type="curve" smooth="yes"/>
      <point x="270" y="568"/>
      <point x="238" y="464"/>
      <point x="238" y="375" type="curve" smooth="yes"/>
      <point x="238" y="325"/>
      <point x="261" y="279"/>
      <point x="306" y="279" type="curve" smooth="yes"/>
      <point x="323" y="279"/>
      <point x="341" y="281"/>
      <point x="382" y="305" type="curve"/>
    </contour>
    <contour>
      <point x="78" y="-2" type="line"/>
      <point x="140" y="21"/>
      <point x="182" y="43"/>
      <point x="248" y="91" type="curve" smooth="yes"/>
      <point x="300" y="129"/>
      <point x="345" y="192"/>
      <point x="367" y="264" type="curve"/>
      <point x="329" y="242"/>
      <point x="291" y="229"/>
      <point x="263" y="229" type="curve" smooth="yes"/>
      <point x="137" y="229"/>
      <point x="108" y="306"/>
      <point x="108" y="360" type="curve" smooth="yes"/>
      <point x="108" y="494"/>
      <point x="213" y="610"/>
      <point x="360" y="610" type="curve" smooth="yes"/>
      <point x="439" y="610"/>
      <point x="530" y="548"/>
      <point x="530" y="416" type="curve" smooth="yes"/>
      <point x="530" y="286"/>
      <point x="452" y="161"/>
      <point x="353" y="87" type="curve" smooth="yes"/>
      <point x="273" y="27"/>
      <point x="198" y="-10"/>
      <point x="88" y="-36" type="curve"/>
      <point x="81" y="-28"/>
      <point x="78" y="-16"/>
      <point x="78" y="-2" type="curve"/>
    </contour>
  </outline>
</glyph>
<glyph name="less" format="2">
  <advance width="512"/>
  <unicode hex="003C"/>
  <outline>
    <contour>
      <point x="212" y="240" type="line"/>
      <point x="486" y="124" type="line"/>
      <point x="473" y="62" type="line"/>
      <point x="103" y="218" type="line"/>
      <point x="112" y="262" type="line"/>
      <point x="549" y="418" type="line"/>
      <point x="536" y="356" type="line"/>
    </contour>
  </outline>
</glyph>
<glyph name="equal" format="2">
  <advance width="551"/>
  <unicode hex="003D"/>
  <outline>
    <contour>
      <point x="526" y="198" type="line"/>
      <point x="514" y="142" type="line"/>
      <point x="106" y="142" type="line"/>
      <point x="118" y="198" type="line"/>
    </contour>
    <contour>
      <point x="552" y="323" type="line"/>
      <point x="540" y="266" type="line"/>
      <point x="132" y="266" type="line"/>
      <point x="144" y="323" type="line"/>
    </contour>
  </outline>
</glyph>
<glyph name="greater" format="2">
  <advance width="512"/>
  <unicode hex="003E"/>
  <outline>
    <contour>
      <point x="405.8" y="238.0" type="line"/>
      <point x="132.5" y="354.0" type="line"/>
      <point x="145.7" y="416.0" type="line"/>
      <point x="515.6" y="259.0" type="line"/>
      <point x="506.2" y="215.0" type="line"/>
      <point x="70.0" y="60.0" type="line"/>
      <point x="83.2" y="122.0" type="line"/>
    </contour>
  </outline>
</glyph>
<glyph name="question" format="2">
  <advance width="430"/>
  <unicode hex="003F"/>
  <outline>
    <contour>
      <point x="237.6" y="570.0" type="curve" smooth="yes"/>
      <point x="233.1" y="549.0"/>
      <point x="240.3" y="543.0"/>
      <point x="234.6" y="516.0" type="curve" smooth="yes"/>
      <point x="229.3" y="491.0"/>
      <point x="204.2" y="475.0"/>
      <point x="176.0" y="475.0" type="curve" smooth="yes"/>
      <point x="153.4" y="475.0"/>
      <point x="126.7" y="495.0"/>
      <point x="134.8" y="533.0" type="curve" smooth="yes"/>
      <point x="142.2" y="568.0"/>
      <point x="165.0" y="591.0"/>
      <point x="202.9" y="619.0" type="curve" smooth="yes"/>
      <point x="236.4" y="644.0"/>
      <point x="282.7" y="658.0"/>
      <point x="340.0" y="658.0" type="curve" smooth="yes"/>
      <point x="447.2" y="658.0"/>
      <point x="500.9" y="597.0"/>
      <point x="481.3" y="505.0" type="curve" smooth="yes"/>
      <point x="465.6" y="431.0"/>
      <point x="396.6" y="385.0"/>
      <point x="341.7" y="348.0" type="curve" smooth="yes"/>
      <point x="311.1" y="328.0"/>
      <point x="272.5" y="301.0"/>
      <point x="257.2" y="229.0" type="curve" smooth="yes"/>
      <point x="254.5" y="216.0" type="line" smooth="yes"/>
      <point x="249.2" y="191.0"/>
      <point x="243.0" y="182.0"/>
      <point x="216.2" y="182.0" type="curve" smooth="yes"/>
      <point x="191.3" y="182.0"/>
      <point x="188.7" y="194.0"/>
      <point x="193.4" y="216.0" type="curve" smooth="yes"/>
      <point x="196.5" y="231.0" type="line" smooth="yes"/>
      <point x="205.2" y="272.0"/>
      <point x="217.3" y="329.0"/>
      <point x="297.9" y="394.0" type="curve" smooth="yes"/>
      <point x="337.4" y="425.0"/>
      <point x="364.1" y="462.0"/>
      <point x="374.7" y="512.0" type="curve" smooth="yes"/>
      <point x="387.0" y="570.0"/>
      <point x="375.7" y="622.0"/>
      <point x="322.9" y="622.0" type="curve" smooth="yes"/>
      <point x="281.5" y="622.0"/>
      <point x="243.6" y="598.0"/>
    </contour>
    <contour>
      <point x="114.7" y="58.0" type="curve" smooth="yes"/>
      <point x="123.0" y="97.0"/>
      <point x="161.7" y="129.0"/>
      <point x="199.3" y="129.0" type="curve" smooth="yes"/>
      <point x="236.9" y="129.0"/>
      <point x="260.6" y="99.0"/>
      <point x="252.3" y="60.0" type="curve" smooth="yes"/>
      <point x="244.2" y="22.0"/>
      <point x="205.5" y="-10.0"/>
      <point x="167.9" y="-10.0" type="curve" smooth="yes"/>
      <point x="130.3" y="-10.0"/>
      <point x="106.6" y="20.0"/>
    </contour>
  </outline>
</glyph>
<glyph name="at" format="2">
  <advance width="988"/>
  <unicode hex="0040"/>
  <outline>
    <contour>
      <point x="652.3" y="320.0" type="curve" smooth="yes"/>
      <point x="659.7" y="355.0"/>
      <point x="661.5" y="381.0"/>
      <point x="638.0" y="381.0" type="curve" smooth="yes"/>
      <point x="624.8" y="381.0"/>
      <point x="594.8" y="381.0"/>
      <point x="553.8" y="343.0" type="curve" smooth="yes"/>
      <point x="501.3" y="295.0"/>
      <point x="470.9" y="227.0"/>
      <point x="457.5" y="164.0" type="curve" smooth="yes"/>
      <point x="447.5" y="117.0"/>
      <point x="446.4" y="72.0"/>
      <point x="490.6" y="72.0" type="curve" smooth="yes"/>
      <point x="518.8" y="72.0"/>
      <point x="554.4" y="107.0"/>
      <point x="598.1" y="193.0" type="curve" smooth="yes"/>
      <point x="614.5" y="226.0"/>
      <point x="647.2" y="296.0"/>
    </contour>
    <contour>
      <point x="652.1" y="80.0" type="curve" smooth="yes"/>
      <point x="649.3" y="67.0"/>
      <point x="655.7" y="66.0"/>
      <point x="666.0" y="66.0" type="curve" smooth="yes"/>
      <point x="700.8" y="66.0"/>
      <point x="817.6" y="129.0"/>
      <point x="848.2" y="273.0" type="curve" smooth="yes"/>
      <point x="895.2" y="494.0"/>
      <point x="741.4" y="584.0"/>
      <point x="631.4" y="584.0" type="curve" smooth="yes"/>
      <point x="485.7" y="584.0"/>
      <point x="305.9" y="459.0"/>
      <point x="256.8" y="228.0" type="curve" smooth="yes"/>
      <point x="225.3" y="80.0"/>
      <point x="268.1" y="-121.0"/>
      <point x="497.5" y="-121.0" type="curve" smooth="yes"/>
      <point x="569.9" y="-121.0"/>
      <point x="641.7" y="-97.0"/>
      <point x="710.8" y="-46.0" type="curve"/>
      <point x="724.4" y="-75.0" type="line"/>
      <point x="653.8" y="-124.0"/>
      <point x="586.9" y="-160.0"/>
      <point x="471.3" y="-160.0" type="curve" smooth="yes"/>
      <point x="248.5" y="-160.0"/>
      <point x="118.4" y="-7.0"/>
      <point x="166.9" y="221.0" type="curve" smooth="yes"/>
      <point x="210.9" y="428.0"/>
      <point x="409.9" y="621.0"/>
      <point x="647.7" y="621.0" type="curve" smooth="yes"/>
      <point x="860.1" y="621.0"/>
      <point x="971.3" y="476.0"/>
      <point x="931.1" y="287.0" type="curve" smooth="yes"/>
      <point x="901.3" y="147.0"/>
      <point x="764.3" y="24.0"/>
      <point x="638.3" y="24.0" type="curve" smooth="yes"/>
      <point x="608.2" y="24.0"/>
      <point x="577.9" y="27.0"/>
      <point x="568.2" y="39.0" type="curve" smooth="yes"/>
      <point x="557.4" y="52.5"/>
      <point x="555.3" y="67.0"/>
      <point x="559.3" y="86.0" type="curve"/>
      <point x="519.4" y="44.0"/>
      <point x="469.6" y="26.0"/>
      <point x="447.0" y="26.0" type="curve" smooth="yes"/>
      <point x="403.9" y="26.0"/>
      <point x="377.7" y="34.7"/>
      <point x="360.8" y="54.0" type="curve" smooth="yes"/>
      <point x="338.9" y="79.0"/>
      <point x="338.5" y="122.0"/>
      <point x="346.2" y="158.0" type="curve" smooth="yes"/>
      <point x="373.4" y="286.0"/>
      <point x="534.3" y="415.0"/>
      <point x="642.4" y="415.0" type="curve" smooth="yes"/>
      <point x="687.5" y="415.0"/>
      <point x="711.2" y="398.0"/>
      <point x="722.7" y="377.0" type="curve"/>
      <point x="764.5" y="410.0" type="line"/>
      <point x="787.6" y="399.0" type="line"/>
      <point x="678.3" y="146.0" type="line" smooth="yes"/>
      <point x="667.1" y="120.0"/>
      <point x="654.4" y="91.0"/>
    </contour>
  </outline>
</glyph>
<glyph name="B" format="2">
  <advance width="621"/>
  <unicode hex="0042"/>
  <outline>
    <contour>
      <point x="341" y="562" type="line" smooth="yes"/>
      <point x="305" y="376" type="line"/>
      <point x="359" y="376" type="line" smooth="yes"/>
      <point x="437" y="376"/>
      <point x="496" y="427"/>
      <point x="496" y="528" type="curve" smooth="yes"/>
      <point x="496" y="592"/>
      <point x="454" y="605"/>
      <point x="417" y="605" type="curve" smooth="yes"/>
      <point x="355" y="605"/>
      <point x="347" y="591"/>
      <point x="341" y="562" type="curve" smooth="yes"/>
    </contour>
    <contour>
      <point x="297" y="334" type="line"/>
      <point x="248" y="84" type="line" smooth="yes"/>
      <point x="247" y="78"/>
      <point x="246" y="72"/>
      <point x="246" y="67" type="curve" smooth="yes"/>
      <point x="246" y="49"/>
      <point x="258" y="40"/>
      <point x="303" y="40" type="curve" smooth="yes"/>
      <point x="442" y="40"/>
      <point x="483" y="140"/>
      <point x="483" y="228" type="curve" smooth="yes"/>
      <point x="483" y="292"/>
      <point x="447" y="334"/>
      <point x="365" y="334" type="curve" smooth="yes"/>
    </contour>
    <contour>
      <point x="291" y="645" type="line" smooth="yes"/>
      <point x="321" y="645"/>
      <point x="380" y="647"/>
      <point x="428" y="647" type="curve" smooth="yes"/>
      <point x="592" y="647"/>
      <point x="630" y="585"/>
      <point x="630" y="524" type="curve" smooth="yes"/>
      <point x="630" y="448"/>
      <point x="577" y="389"/>
      <point x="510" y="361" type="curve"/>
      <point x="509" y="359" type="line"/>
      <point x="589" y="336"/>
      <point x="624" y="292"/>
      <point x="624" y="228" type="curve" smooth="yes"/>
      <point x="624" y="91"/>
      <point x="531" y="-2"/>
      <point x="323" y="-2" type="curve" smooth="yes"/>
      <point x="265" y="-2"/>
      <point x="204" y="0"/>
      <point x="166" y="0" type="curve" smooth="yes"/>
      <point x="128" y="0"/>
      <point x="18" y="-2"/>
      <point x="18" y="-2" type="curve"/>
      <point x="15" y="0"/>
      <point x="14" y="5"/>
      <point x="14" y="10" type="curve" smooth="yes"/>
      <point x="14" y="19"/>
      <point x="17" y="28"/>
      <point x="24" y="32" type="curve"/>
      <point x="77" y="35"/>
      <point x="105" y="39"/>
      <point x="121" y="122" type="curve" smooth="yes"/>
      <point x="199" y="523" type="line" smooth="yes"/>
      <point x="202" y="539"/>
      <point x="204" y="553"/>
      <point x="204" y="564" type="curve" smooth="yes"/>
      <point x="204" y="608"/>
      <point x="179" y="611"/>
      <point x="137" y="613" type="curve"/>
      <point x="134" y="615"/>
      <point x="133" y="619"/>
      <point x="133" y="624" type="curve" smooth="yes"/>
      <point x="133" y="633"/>
      <point x="137" y="643"/>
      <point x="144" y="647" type="curve"/>
      <point x="144" y="647"/>
      <point x="253" y="645"/>
      <point x="291" y="645" type="curve" smooth="yes"/>
    </contour>
  </outline>
</glyph>
<glyph name="C" format="2">
  <advance width="675"/>
  <unicode hex="0043"/>
  <anchor x="340" y="850" name="above"/>
  <anchor x="363" y="-110" name="below"/>
  <anchor x="356" y="-7" name="cedilla"/>
  <anchor x="346" y="315" name="middle"/>
  <outline>
    <contour>
      <point x="378" y="-10" type="curve" smooth="yes"/>
      <point x="285" y="-10"/>
      <point x="213" y="7"/>
      <point x="161" y="53" type="curve" smooth="yes"/>
      <point x="95" y="111"/>
      <point x="78" y="221"/>
      <point x="96" y="315" type="curve" smooth="yes"/>
      <point x="139" y="535"/>
      <point x="321" y="658"/>
      <point x="509" y="658" type="curve" smooth="yes"/>
      <point x="627" y="658"/>
      <point x="663" y="618"/>
      <point x="711" y="613" type="curve"/>
      <point x="709" y="558"/>
      <point x="707" y="510"/>
      <point x="702" y="458" type="curve"/>
      <point x="690" y="452"/>
      <point x="670" y="449"/>
      <point x="659" y="453" type="curve"/>
      <point x="651" y="539"/>
      <point x="623" y="616"/>
      <point x="491" y="616" type="curve" smooth="yes"/>
      <point x="377" y="616"/>
      <point x="275" y="489"/>
      <point x="245" y="334" type="curve" smooth="yes"/>
      <point x="215" y="178"/>
      <point x="277" y="42"/>
      <point x="388" y="42" type="curve" smooth="yes"/>
      <point x="455" y="42"/>
      <point x="538" y="68"/>
      <point x="621" y="146" type="curve"/>
      <point x="632" y="146"/>
      <point x="646" y="134"/>
      <point x="649" y="125" type="curve"/>
      <point x="566" y="36"/>
      <point x="471" y="-10"/>
    </contour>
  </outline>
</glyph>
<glyph name="D" format="2">
  <advance width="698"/>
  <unicode hex="0044"/>
  <outline>
    <contour>
      <point x="267.0" y="119.0" type="line" smooth="yes"/>
      <point x="264.6" y="106.9"/>
      <point x="263.4" y="96.6"/>
      <point x="263.4" y="87.8" type="curve" smooth="yes"/>
      <point x="263.4" y="48.1"/>
      <point x="288.1" y="40.0"/>
      <point x="343.0" y="40.0" type="curve" smooth="yes"/>
      <point x="460.6" y="40.0"/>
      <point x="584.6" y="204.3"/>
      <point x="584.6" y="426.3" type="curve" smooth="yes"/>
      <point x="584.6" y="524.7"/>
      <point x="549.4" y="604.0"/>
      <point x="420.0" y="604.0" type="curve" smooth="yes"/>
      <point x="385.0" y="604.0"/>
      <point x="357.0" y="584.0"/>
      <point x="346.0" y="529.0" type="curve" smooth="yes"/>
    </contour>
    <contour>
      <point x="177.0" y="0.0" type="curve" smooth="yes"/>
      <point x="139.0" y="0.0"/>
      <point x="29.0" y="-2.0"/>
      <point x="29.0" y="-2.0" type="curve"/>
      <point x="26.1" y="0.2"/>
      <point x="24.8" y="4.4"/>
      <point x="24.8" y="9.2" type="curve" smooth="yes"/>
      <point x="24.8" y="17.8"/>
      <point x="29.0" y="28.2"/>
      <point x="36.0" y="32.0" type="curve"/>
      <point x="89.0" y="35.0"/>
      <point x="117.0" y="39.0"/>
      <point x="133.0" y="122.0" type="curve" smooth="yes"/>
      <point x="211.0" y="523.0" type="line" smooth="yes"/>
      <point x="214.1" y="539.1"/>
      <point x="215.6" y="552.2"/>
      <point x="215.6" y="562.9" type="curve" smooth="yes"/>
      <point x="215.6" y="607.5"/>
      <point x="189.9" y="610.6"/>
      <point x="148.0" y="613.0" type="curve"/>
      <point x="145.1" y="615.2"/>
      <point x="143.8" y="619.4"/>
      <point x="143.8" y="624.2" type="curve" smooth="yes"/>
      <point x="143.8" y="632.8"/>
      <point x="148.0" y="643.2"/>
      <point x="155.0" y="647.0" type="curve"/>
      <point x="155.0" y="647.0"/>
      <point x="265.0" y="645.0"/>
      <point x="303.0" y="645.0" type="curve" smooth="yes"/>
      <point x="341.0" y="645.0"/>
      <point x="381.0" y="646.0"/>
      <point x="432.0" y="646.0" type="curve" smooth="yes"/>
      <point x="633.8" y="646.0"/>
      <point x="725.9" y="534.9"/>
      <point x="725.9" y="387.1" type="curve" smooth="yes"/>
      <point x="725.9" y="252.6"/>
      <point x="660.7" y="132.3"/>
      <point x="596.0" y="82.0" type="curve" smooth="yes"/>
      <point x="516.0" y="20.0"/>
      <point x="416.0" y="-2.0"/>
      <point x="332.0" y="-2.0" type="curve" smooth="yes"/>
      <point x="294.0" y="-2.0"/>
      <point x="215.0" y="0.0"/>
    </contour>
  </outline>
</glyph>
<glyph name="F" format="2">
  <advance width="518"/>
  <unicode hex="0046"/>
  <anchor x="328" y="850" name="above"/>
  <anchor x="334" y="-110" name="below"/>
  <outline>
    <contour>
      <point x="251" y="122" type="line" smooth="yes"/>
      <point x="235" y="39"/>
      <point x="271" y="35"/>
      <point x="323" y="32" type="curve"/>
      <point x="331" y="26"/>
      <point x="327" y="4"/>
      <point x="316" y="-2" type="curve"/>
      <point x="278" y="-1"/>
      <point x="199" y="0"/>
      <point x="161" y="0" type="curve" smooth="yes"/>
      <point x="123" y="0"/>
      <point x="52" y="-1"/>
      <point x="13" y="-2" type="curve"/>
      <point x="5" y="4"/>
      <point x="9" y="26"/>
      <point x="20" y="32" type="curve"/>
      <point x="73" y="35"/>
      <point x="101" y="39"/>
      <point x="117" y="122" type="curve" smooth="yes"/>
      <point x="194" y="522" type="line" smooth="yes"/>
      <point x="210" y="605"/>
      <point x="196" y="610"/>
      <point x="129" y="613" type="curve"/>
      <point x="124" y="619"/>
      <point x="128" y="641"/>
      <point x="135" y="647" type="curve"/>
      <point x="183" y="646"/>
      <point x="283" y="645"/>
      <point x="283" y="645" type="curve"/>
      <point x="571" y="645" type="line" smooth="yes"/>
      <point x="594" y="645"/>
      <point x="602" y="646"/>
      <point x="619" y="649" type="curve" smooth="yes"/>
      <point x="622" y="649"/>
      <point x="622" y="648"/>
      <point x="622" y="646" type="curve" smooth="yes"/>
      <point x="622" y="638"/>
      <point x="607" y="537"/>
      <point x="604" y="496" type="curve"/>
      <point x="594" y="491"/>
      <point x="574" y="489"/>
      <point x="562" y="491" type="curve"/>
      <point x="554" y="560"/>
      <point x="542" y="603"/>
      <point x="470" y="603" type="curve" smooth="yes"/>
      <point x="384" y="603" type="line" smooth="yes"/>
      <point x="361" y="603"/>
      <point x="340" y="578"/>
      <point x="335" y="554" type="curve" smooth="yes"/>
      <point x="295" y="347" type="line"/>
      <point x="373" y="347" type="line" smooth="yes"/>
      <point x="437" y="347"/>
      <point x="458" y="354"/>
      <point x="472" y="409" type="curve"/>
      <point x="479" y="415"/>
      <point x="508" y="415"/>
      <point x="513" y="409" type="curve"/>
      <point x="506" y="379"/>
      <point x="502" y="357"/>
      <point x="495" y="323" type="curve" smooth="yes"/>
      <point x="488" y="289"/>
      <point x="485" y="270"/>
      <point x="479" y="235" type="curve"/>
      <point x="472" y="229"/>
      <point x="443" y="229"/>
      <point x="438" y="235" type="curve"/>
      <point x="444" y="280"/>
      <point x="429" y="297"/>
      <point x="363" y="297" type="curve" smooth="yes"/>
      <point x="285" y="297" type="line"/>
    </contour>
  </outline>
</glyph>
<glyph name="G" format="2">
  <advance width="723"/>
  <unicode hex="0047"/>
  <anchor x="530.0" y="750.0" name="top_punkt"/>
  <anchor x="338.0" y="335.0" name="middle"/>
  <anchor x="397.0" y="2.0" name="cedilla"/>
  <anchor x="397.0" y="-110.0" name="below"/>
  <anchor x="395.0" y="850.0" name="above"/>
  <outline>
    <contour>
      <point x="518.0" y="658.0" type="curve" smooth="yes"/>
      <point x="635.0" y="658.0"/>
      <point x="691.0" y="623.0"/>
      <point x="749.0" y="623.0" type="curve"/>
      <point x="742.0" y="551.0"/>
      <point x="739.0" y="501.0"/>
      <point x="739.0" y="459.0" type="curve"/>
      <point x="695.0" y="453.0" type="line"/>
      <point x="687.0" y="539.0"/>
      <point x="635.0" y="616.0"/>
      <point x="496.0" y="616.0" type="curve" smooth="yes"/>
      <point x="449.0" y="616.0"/>
      <point x="387.0" y="595.0"/>
      <point x="337.0" y="542.0" type="curve" smooth="yes"/>
      <point x="289.0" y="491.0"/>
      <point x="256.0" y="413.0"/>
      <point x="239.0" y="327.0" type="curve" smooth="yes"/>
      <point x="213.0" y="195.0"/>
      <point x="243.0" y="32.0"/>
      <point x="414.0" y="32.0" type="curve" smooth="yes"/>
      <point x="466.0" y="32.0"/>
      <point x="493.0" y="42.0"/>
      <point x="532.0" y="74.0" type="curve"/>
      <point x="561.0" y="223.0" type="line" smooth="yes"/>
      <point x="569.0" y="263.0"/>
      <point x="544.0" y="267.0"/>
      <point x="492.0" y="271.0" type="curve"/>
      <point x="487.0" y="277.0"/>
      <point x="492.0" y="302.0"/>
      <point x="499.0" y="308.0" type="curve"/>
      <point x="544.0" y="307.0"/>
      <point x="609.0" y="306.0"/>
      <point x="646.0" y="306.0" type="curve" smooth="yes"/>
      <point x="684.0" y="306.0"/>
      <point x="732.0" y="307.0"/>
      <point x="761.0" y="308.0" type="curve"/>
      <point x="766.0" y="302.0"/>
      <point x="761.0" y="277.0"/>
      <point x="754.0" y="271.0" type="curve"/>
      <point x="726.0" y="268.0"/>
      <point x="707.0" y="258.0"/>
      <point x="700.0" y="223.0" type="curve" smooth="yes"/>
      <point x="678.0" y="106.0" type="line" smooth="yes"/>
      <point x="676.0" y="95.0"/>
      <point x="678.0" y="87.0"/>
      <point x="687.0" y="78.0" type="curve"/>
      <point x="612.0" y="24.0"/>
      <point x="496.0" y="-10.0"/>
      <point x="383.0" y="-10.0" type="curve" smooth="yes"/>
      <point x="290.0" y="-10.0"/>
      <point x="202.0" y="12.0"/>
      <point x="149.0" y="66.0" type="curve" smooth="yes"/>
      <point x="91.0" y="124.0"/>
      <point x="72.0" y="217.0"/>
      <point x="90.0" y="307.0" type="curve" smooth="yes"/>
      <point x="111.0" y="415.0"/>
      <point x="175.0" y="505.0"/>
      <point x="255.0" y="565.0" type="curve" smooth="yes"/>
      <point x="337.0" y="627.0"/>
      <point x="434.0" y="658.0"/>
    </contour>
  </outline>
</glyph>
<glyph name="H" format="2">
  <advance width="735"/>
  <unicode hex="0048"/>
  <anchor x="357.0" y="-110.0" name="below"/>
  <outline>
    <contour>
      <point x="595.0" y="523.0" type="line" smooth="yes"/>
      <point x="611.0" y="606.0"/>
      <point x="584.0" y="610.0"/>
      <point x="532.0" y="613.0" type="curve"/>
      <point x="524.0" y="619.0"/>
      <point x="528.0" y="641.0"/>
      <point x="539.0" y="647.0" type="curve"/>
      <point x="577.0" y="646.0"/>
      <point x="649.0" y="645.0"/>
      <point x="687.0" y="645.0" type="curve" smooth="yes"/>
      <point x="725.0" y="645.0"/>
      <point x="794.0" y="646.0"/>
      <point x="833.0" y="647.0" type="curve"/>
      <point x="841.0" y="641.0"/>
      <point x="837.0" y="619.0"/>
      <point x="826.0" y="613.0" type="curve"/>
      <point x="773.0" y="610.0"/>
      <point x="745.0" y="606.0"/>
      <point x="729.0" y="523.0" type="curve" smooth="yes"/>
      <point x="651.0" y="122.0" type="line" smooth="yes"/>
      <point x="635.0" y="39.0"/>
      <point x="661.0" y="35.0"/>
      <point x="713.0" y="32.0" type="curve"/>
      <point x="721.0" y="26.0"/>
      <point x="718.0" y="4.0"/>
      <point x="707.0" y="-2.0" type="curve"/>
      <point x="669.0" y="-1.0"/>
      <point x="599.0" y="0.0"/>
      <point x="561.0" y="0.0" type="curve" smooth="yes"/>
      <point x="523.0" y="0.0"/>
      <point x="452.0" y="-1.0"/>
      <point x="413.0" y="-2.0" type="curve"/>
      <point x="405.0" y="4.0"/>
      <point x="409.0" y="26.0"/>
      <point x="420.0" y="32.0" type="curve"/>
      <point x="473.0" y="35.0"/>
      <point x="501.0" y="39.0"/>
      <point x="517.0" y="122.0" type="curve" smooth="yes"/>
      <point x="555.3" y="319.0" type="line"/>
      <point x="305.3" y="319.0" type="line"/>
      <point x="267.0" y="122.0" type="line" smooth="yes"/>
      <point x="251.0" y="39.0"/>
      <point x="277.0" y="35.0"/>
      <point x="329.0" y="32.0" type="curve"/>
      <point x="337.0" y="26.0"/>
      <point x="334.0" y="4.0"/>
      <point x="323.0" y="-2.0" type="curve"/>
      <point x="285.0" y="-1.0"/>
      <point x="215.0" y="0.0"/>
      <point x="177.0" y="0.0" type="curve" smooth="yes"/>
      <point x="139.0" y="0.0"/>
      <point x="68.0" y="-1.0"/>
      <point x="29.0" y="-2.0" type="curve"/>
      <point x="21.0" y="4.0"/>
      <point x="25.0" y="26.0"/>
      <point x="36.0" y="32.0" type="curve"/>
      <point x="89.0" y="35.0"/>
      <point x="117.0" y="39.0"/>
      <point x="133.0" y="122.0" type="curve" smooth="yes"/>
      <point x="211.0" y="523.0" type="line" smooth="yes"/>
      <point x="227.0" y="606.0"/>
      <point x="200.0" y="610.0"/>
      <point x="148.0" y="613.0" type="curve"/>
      <point x="140.0" y="619.0"/>
      <point x="144.0" y="641.0"/>
      <point x="155.0" y="647.0" type="curve"/>
      <point x="193.0" y="646.0"/>
      <point x="265.0" y="645.0"/>
      <point x="303.0" y="645.0" type="curve" smooth="yes"/>
      <point x="341.0" y="645.0"/>
      <point x="410.0" y="646.0"/>
      <point x="449.0" y="647.0" type="curve"/>
      <point x="457.0" y="641.0"/>
      <point x="453.0" y="619.0"/>
      <point x="442.0" y="613.0" type="curve"/>
      <point x="389.0" y="610.0"/>
      <point x="361.0" y="606.0"/>
      <point x="345.0" y="523.0" type="curve" smooth="yes"/>
      <point x="314.7" y="367.0" type="line"/>
      <point x="564.7" y="367.0" type="line"/>
    </contour>
  </outline>
</glyph>
<glyph name="I" format="2">
  <advance width="351"/>
  <unicode hex="0049"/>
  <outline>
    <contour>
      <point x="211.0" y="523.0" type="line" smooth="yes"/>
      <point x="227.0" y="606.0"/>
      <point x="200.0" y="610.0"/>
      <point x="148.0" y="613.0" type="curve"/>
      <point x="140.0" y="619.0"/>
      <point x="144.0" y="641.0"/>
      <point x="155.0" y="647.0" type="curve"/>
      <point x="193.0" y="646.0"/>
      <point x="265.0" y="645.0"/>
      <point x="303.0" y="645.0" type="curve" smooth="yes"/>
      <point x="341.0" y="645.0"/>
      <point x="410.0" y="646.0"/>
      <point x="449.0" y="647.0" type="curve"/>
      <point x="457.0" y="641.0"/>
      <point x="453.0" y="619.0"/>
      <point x="442.0" y="613.0" type="curve"/>
      <point x="389.0" y="610.0"/>
      <point x="361.0" y="606.0"/>
      <point x="345.0" y="523.0" type="curve" smooth="yes"/>
      <point x="267.0" y="122.0" type="line" smooth="yes"/>
      <point x="251.0" y="39.0"/>
      <point x="277.0" y="35.0"/>
      <point x="329.0" y="32.0" type="curve"/>
      <point x="337.0" y="26.0"/>
      <point x="334.0" y="4.0"/>
      <point x="323.0" y="-2.0" type="curve"/>
      <point x="285.0" y="-1.0"/>
      <point x="215.0" y="0.0"/>
      <point x="177.0" y="0.0" type="curve" smooth="yes"/>
      <point x="139.0" y="0.0"/>
      <point x="68.0" y="-1.0"/>
      <point x="29.0" y="-2.0" type="curve"/>
      <point x="21.0" y="4.0"/>
      <point x="25.0" y="26.0"/>
      <point x="36.0" y="32.0" type="curve"/>
      <point x="89.0" y="35.0"/>
      <point x="117.0" y="39.0"/>
      <point x="133.0" y="122.0" type="curve" smooth="yes"/>
    </contour>
  </outline>
</glyph>
<glyph name="J" format="2">
  <advance width="494"/>
  <unicode hex="004A"/>
  <anchor x="457" y="850" name="above"/>
  <outline>
    <contour>
      <point x="200" y="334" type="line"/>
      <point x="456" y="344" type="line"/>
      <point x="535" y="335" type="line"/>
      <point x="528" y="296" type="line"/>
      <point x="417" y="286" type="line"/>
      <point x="200" y="299" type="line"/>
    </contour>
    <contour>
      <point x="122" y="538" type="line" smooth="yes"/>
      <point x="122" y="623"/>
      <point x="211" y="663"/>
      <point x="292" y="663" type="curve" smooth="yes"/>
      <point x="377" y="663"/>
      <point x="444" y="608"/>
      <point x="529" y="606" type="curve"/>
      <point x="455" y="375"/>
      <point x="507" y="-200"/>
      <point x="146" y="-200" type="curve" smooth="yes"/>
      <point x="105" y="-200"/>
      <point x="31" y="-180"/>
      <point x="31" y="-121" type="curve" smooth="yes"/>
      <point x="31" y="-93"/>
      <point x="51" y="-61"/>
      <point x="91" y="-61" type="curve" smooth="yes"/>
      <point x="136" y="-61"/>
      <point x="161" y="-96"/>
      <point x="169" y="-125" type="curve"/>
      <point x="378" y="-73"/>
      <point x="324" y="678"/>
      <point x="522" y="678" type="curve" smooth="yes"/>
      <point x="550" y="678"/>
      <point x="576" y="653"/>
      <point x="576" y="630" type="curve" smooth="yes"/>
      <point x="576" y="579"/>
      <point x="496" y="541"/>
      <point x="428" y="541" type="curve" smooth="yes"/>
      <point x="356" y="541"/>
      <point x="291" y="592"/>
      <point x="240" y="592" type="curve" smooth="yes"/>
      <point x="226" y="592"/>
      <point x="212" y="587"/>
      <point x="205" y="577" type="curve"/>
      <point x="225" y="568"/>
      <point x="244" y="547"/>
      <point x="244" y="521" type="curve" smooth="yes"/>
      <point x="244" y="490"/>
      <point x="211" y="474"/>
      <point x="180" y="474" type="curve" smooth="yes"/>
      <point x="144" y="474"/>
      <point x="122" y="502"/>
      <point x="122" y="538" type="curve" smooth="yes"/>
    </contour>
  </outline>
</glyph>
<glyph name="K" format="2">
  <advance width="706"/>
  <unicode hex="004B"/>
  <anchor x="336" y="850" name="above"/>
  <anchor x="342" y="-110" name="below"/>
  <anchor x="148" y="-1" name="cedilla"/>
  <outline>
    <contour>
      <point x="211" y="523" type="line" smooth="yes"/>
      <point x="227" y="606"/>
      <point x="200" y="610"/>
      <point x="148" y="613" type="curve"/>
      <point x="140" y="619"/>
      <point x="144" y="641"/>
      <point x="155" y="647" type="curve"/>
      <point x="193" y="646"/>
      <point x="265" y="645"/>
      <point x="303" y="645" type="curve" smooth="yes"/>
      <point x="341" y="645"/>
      <point x="410" y="646"/>
      <point x="449" y="647" type="curve"/>
      <point x="457" y="641"/>
      <point x="453" y="619"/>
      <point x="442" y="613" type="curve"/>
      <point x="389" y="610"/>
      <point x="361" y="606"/>
      <point x="345" y="523" type="curve" smooth="yes"/>
      <point x="312" y="352" type="line"/>
      <point x="343" y="357"/>
      <point x="371" y="376"/>
      <point x="439" y="430" type="curve" smooth="yes"/>
      <point x="439" y="430"/>
      <point x="524" y="493"/>
      <point x="560" y="525" type="curve" smooth="yes"/>
      <point x="618" y="576"/>
      <point x="627" y="607"/>
      <point x="572" y="613" type="curve"/>
      <point x="567" y="619"/>
      <point x="572" y="641"/>
      <point x="579" y="647" type="curve"/>
      <point x="624" y="646"/>
      <point x="659" y="645"/>
      <point x="697" y="645" type="curve" smooth="yes"/>
      <point x="735" y="645"/>
      <point x="743" y="646"/>
      <point x="788" y="647" type="curve"/>
      <point x="793" y="641"/>
      <point x="789" y="619"/>
      <point x="782" y="613" type="curve"/>
      <point x="708" y="604"/>
      <point x="663" y="559"/>
      <point x="593" y="504" type="curve" smooth="yes"/>
      <point x="470" y="407" type="line" smooth="yes"/>
      <point x="452" y="393"/>
      <point x="454" y="385"/>
      <point x="453" y="378" type="curve" smooth="yes"/>
      <point x="451" y="370"/>
      <point x="460" y="353"/>
      <point x="473" y="333" type="curve" smooth="yes"/>
      <point x="633" y="74" type="line" smooth="yes"/>
      <point x="652" y="44"/>
      <point x="671" y="36"/>
      <point x="699" y="32" type="curve"/>
      <point x="704" y="26"/>
      <point x="700" y="4"/>
      <point x="693" y="-2" type="curve"/>
      <point x="648" y="-1"/>
      <point x="624" y="0"/>
      <point x="587" y="0" type="curve" smooth="yes"/>
      <point x="558" y="0"/>
      <point x="500" y="-1"/>
      <point x="481" y="-2" type="curve" smooth="yes"/>
      <point x="477" y="-2"/>
      <point x="477" y="1"/>
      <point x="477" y="4" type="curve" smooth="yes"/>
      <point x="478" y="20"/>
      <point x="470" y="48"/>
      <point x="456" y="74" type="curve" smooth="yes"/>
      <point x="349" y="271" type="line" smooth="yes"/>
      <point x="336" y="294"/>
      <point x="328" y="306"/>
      <point x="303" y="308" type="curve"/>
      <point x="267" y="122" type="line" smooth="yes"/>
      <point x="251" y="39"/>
      <point x="277" y="35"/>
      <point x="329" y="32" type="curve"/>
      <point x="337" y="26"/>
      <point x="334" y="4"/>
      <point x="323" y="-2" type="curve"/>
      <point x="285" y="-1"/>
      <point x="215" y="0"/>
      <point x="177" y="0" type="curve" smooth="yes"/>
      <point x="139" y="0"/>
      <point x="68" y="-1"/>
      <point x="29" y="-2" type="curve"/>
      <point x="21" y="4"/>
      <point x="25" y="26"/>
      <point x="36" y="32" type="curve"/>
      <point x="89" y="35"/>
      <point x="117" y="39"/>
      <point x="133" y="122" type="curve" smooth="yes"/>
    </contour>
  </outline>
</glyph>
<glyph name="L" format="2">
  <advance width="552"/>
  <unicode hex="004C"/>
  <outline>
    <contour>
      <point x="343" y="42" type="line" smooth="yes"/>
      <point x="444" y="42"/>
      <point x="490" y="98"/>
      <point x="523" y="170" type="curve"/>
      <point x="535" y="172"/>
      <point x="555" y="170"/>
      <point x="563" y="165" type="curve"/>
      <point x="547" y="113"/>
      <point x="525" y="48"/>
      <point x="506" y="-2" type="curve"/>
      <point x="506" y="-2"/>
      <point x="419" y="0"/>
      <point x="391" y="0" type="curve" smooth="yes"/>
      <point x="177" y="0" type="line" smooth="yes"/>
      <point x="140" y="0"/>
      <point x="29" y="-2"/>
      <point x="29" y="-2" type="curve"/>
      <point x="21" y="4"/>
      <point x="25" y="26"/>
      <point x="36" y="32" type="curve"/>
      <point x="89" y="35"/>
      <point x="117" y="39"/>
      <point x="133" y="122" type="curve" smooth="yes"/>
      <point x="211" y="523" type="line" smooth="yes"/>
      <point x="227" y="606"/>
      <point x="200" y="610"/>
      <point x="148" y="613" type="curve"/>
      <point x="140" y="619"/>
      <point x="144" y="641"/>
      <point x="155" y="647" type="curve"/>
      <point x="155" y="647"/>
      <point x="265" y="645"/>
      <point x="303" y="645" type="curve" smooth="yes"/>
      <point x="341" y="645"/>
      <point x="370" y="646"/>
      <point x="449" y="647" type="curve"/>
      <point x="457" y="641"/>
      <point x="453" y="619"/>
      <point x="442" y="613" type="curve"/>
      <point x="389" y="610"/>
      <point x="361" y="606"/>
      <point x="345" y="523" type="curve" smooth="yes"/>
      <point x="267" y="121" type="line" smooth="yes"/>
      <point x="255" y="61"/>
      <point x="265" y="42"/>
      <point x="285" y="42" type="curve" smooth="yes"/>
    </contour>
  </outline>
</glyph>
<glyph name="M" format="2">
  <advance width="862"/>
  <unicode hex="004D"/>
  <anchor x="426.0" y="445.0" name="middle"/>
  <anchor x="97.0" y="2.0" name="cedilla"/>
  <anchor x="393.0" y="-110.0" name="below"/>
  <anchor x="431.0" y="850.0" name="above"/>
  <outline>
    <contour>
      <point x="659.0" y="116.0" type="curve" smooth="yes"/>
      <point x="715.0" y="534.0" type="line"/>
      <point x="713.0" y="534.0" type="line"/>
      <point x="394.0" y="5.0" type="line" smooth="yes"/>
      <point x="389.0" y="-4.0"/>
      <point x="380.0" y="-8.0"/>
      <point x="374.0" y="-8.0" type="curve" smooth="yes"/>
      <point x="368.0" y="-8.0"/>
      <point x="358.0" y="-2.0"/>
      <point x="357.0" y="5.0" type="curve" smooth="yes"/>
      <point x="264.0" y="498.0" type="line"/>
      <point x="260.0" y="498.0" type="line"/>
      <point x="162.0" y="123.0" type="line"/>
      <point x="146.0" y="67.0"/>
      <point x="146.0" y="37.0"/>
      <point x="208.0" y="32.0" type="curve"/>
      <point x="213.0" y="26.0"/>
      <point x="208.0" y="4.0"/>
      <point x="201.0" y="-2.0" type="curve"/>
      <point x="172.0" y="-1.0"/>
      <point x="115.0" y="0.0"/>
      <point x="92.0" y="0.0" type="curve" smooth="yes"/>
      <point x="69.0" y="0.0"/>
      <point x="38.0" y="-1.0"/>
      <point x="9.0" y="-2.0" type="curve"/>
      <point x="4.0" y="4.0"/>
      <point x="9.0" y="26.0"/>
      <point x="16.0" y="32.0" type="curve"/>
      <point x="72.0" y="37.0"/>
      <point x="88.0" y="61.0"/>
      <point x="105.0" y="121.0" type="curve" smooth="yes"/>
      <point x="223.0" y="533.0" type="line" smooth="yes"/>
      <point x="244.0" y="608.0"/>
      <point x="239.0" y="609.0"/>
      <point x="174.0" y="613.0" type="curve"/>
      <point x="169.0" y="619.0"/>
      <point x="173.0" y="641.0"/>
      <point x="180.0" y="647.0" type="curve"/>
      <point x="377.0" y="645.0" type="line"/>
      <point x="462.0" y="201.0" type="line"/>
      <point x="467.0" y="201.0" type="line"/>
      <point x="736.0" y="645.0" type="line"/>
      <point x="929.0" y="647.0" type="line"/>
      <point x="934.0" y="641.0"/>
      <point x="930.0" y="619.0"/>
      <point x="923.0" y="613.0" type="curve"/>
      <point x="857.0" y="609.0"/>
      <point x="849.0" y="596.0"/>
      <point x="843.0" y="542.0" type="curve" smooth="yes"/>
      <point x="790.0" y="121.0" type="line" smooth="yes"/>
      <point x="779.0" y="38.0"/>
      <point x="781.0" y="35.0"/>
      <point x="846.0" y="32.0" type="curve"/>
      <point x="851.0" y="26.0"/>
      <point x="847.0" y="4.0"/>
      <point x="840.0" y="-2.0" type="curve"/>
      <point x="808.0" y="-1.0"/>
      <point x="764.0" y="0.0"/>
      <point x="735.0" y="0.0" type="curve" smooth="yes"/>
      <point x="706.0" y="0.0"/>
      <point x="620.0" y="-1.0"/>
      <point x="575.0" y="-2.0" type="curve"/>
      <point x="570.0" y="4.0"/>
      <point x="574.0" y="26.0"/>
      <point x="581.0" y="32.0" type="curve"/>
      <point x="644.0" y="35.0"/>
      <point x="648.0" y="35.0"/>
    </contour>
  </outline>
</glyph>
<glyph name="N" format="2">
  <advance width="709"/>
  <unicode hex="004E"/>
  <anchor x="366.0" y="90.0" name="middle"/>
  <anchor x="125.0" y="-4.0" name="cedilla"/>
  <anchor x="358.0" y="-110.0" name="below"/>
  <anchor x="356.0" y="850.0" name="above"/>
  <outline>
    <contour>
      <point x="614.0" y="0.0" type="curve"/>
      <point x="595.0" y="-9.0"/>
      <point x="577.0" y="-12.0"/>
      <point x="543.0" y="-12.0" type="curve"/>
      <point x="543.0" y="-12.0"/>
      <point x="527.0" y="7.0"/>
      <point x="513.0" y="32.0" type="curve"/>
      <point x="268.0" y="430.0" type="line" smooth="yes"/>
      <point x="260.0" y="443.0"/>
      <point x="254.0" y="450.0"/>
      <point x="250.0" y="450.0" type="curve" smooth="yes"/>
      <point x="244.0" y="450.0"/>
      <point x="240.0" y="440.0"/>
      <point x="238.0" y="430.0" type="curve" smooth="yes"/>
      <point x="180.0" y="133.0" type="line" smooth="yes"/>
      <point x="162.0" y="42.0"/>
      <point x="178.0" y="39.0"/>
      <point x="244.0" y="32.0" type="curve"/>
      <point x="249.0" y="26.0"/>
      <point x="244.0" y="4.0"/>
      <point x="237.0" y="-2.0" type="curve"/>
      <point x="189.0" y="-1.0"/>
      <point x="167.0" y="0.0"/>
      <point x="122.0" y="0.0" type="curve" smooth="yes"/>
      <point x="80.0" y="0.0"/>
      <point x="61.0" y="-1.0"/>
      <point x="14.0" y="-2.0" type="curve"/>
      <point x="9.0" y="4.0"/>
      <point x="13.0" y="26.0"/>
      <point x="20.0" y="32.0" type="curve"/>
      <point x="89.0" y="39.0"/>
      <point x="107.0" y="44.0"/>
      <point x="124.0" y="133.0" type="curve" smooth="yes"/>
      <point x="205.0" y="550.0" type="line"/>
      <point x="204.0" y="576.0"/>
      <point x="182.0" y="610.0"/>
      <point x="141.0" y="613.0" type="curve"/>
      <point x="136.0" y="619.0"/>
      <point x="141.0" y="641.0"/>
      <point x="148.0" y="647.0" type="curve"/>
      <point x="312.0" y="645.0" type="line"/>
      <point x="378.0" y="540.0" type="line"/>
      <point x="571.0" y="228.0" type="line" smooth="yes"/>
      <point x="581.0" y="212.0"/>
      <point x="593.0" y="205.0"/>
      <point x="598.0" y="231.0" type="curve" smooth="yes"/>
      <point x="652.0" y="512.0" type="line" smooth="yes"/>
      <point x="670.0" y="603.0"/>
      <point x="654.0" y="606.0"/>
      <point x="588.0" y="613.0" type="curve"/>
      <point x="583.0" y="619.0"/>
      <point x="588.0" y="641.0"/>
      <point x="595.0" y="647.0" type="curve"/>
      <point x="643.0" y="646.0"/>
      <point x="666.0" y="645.0"/>
      <point x="711.0" y="645.0" type="curve" smooth="yes"/>
      <point x="753.0" y="645.0"/>
      <point x="772.0" y="646.0"/>
      <point x="819.0" y="647.0" type="curve"/>
      <point x="824.0" y="641.0"/>
      <point x="819.0" y="619.0"/>
      <point x="812.0" y="613.0" type="curve"/>
      <point x="743.0" y="606.0"/>
      <point x="726.0" y="601.0"/>
      <point x="709.0" y="512.0" type="curve" smooth="yes"/>
      <point x="629.0" y="102.0" type="line" smooth="yes"/>
      <point x="623.0" y="71.0"/>
      <point x="614.0" y="0.0"/>
    </contour>
  </outline>
</glyph>
<glyph name="O" format="2">
  <advance width="699"/>
  <unicode hex="004F"/>
  <anchor x="504.0" y="850.0" name="above"/>
  <anchor x="354.0" y="-7.0" name="cedilla"/>
  <anchor x="361.0" y="-110.0" name="below"/>
  <outline>
    <contour>
      <point x="456.0" y="616.0" type="curve" smooth="yes"/>
      <point x="402.8" y="616.0"/>
      <point x="348.8" y="583.5"/>
      <point x="306.1" y="509.2" type="curve" smooth="yes"/>
      <point x="272.0" y="449.9"/>
      <point x="233.1" y="331.2"/>
      <point x="233.1" y="226.1" type="curve" smooth="yes"/>
      <point x="233.1" y="101.8"/>
      <point x="289.2" y="32.0"/>
      <point x="374.0" y="32.0" type="curve" smooth="yes"/>
      <point x="493.9" y="32.0"/>
      <point x="592.0" y="216.0"/>
      <point x="592.0" y="422.6" type="curve" smooth="yes"/>
      <point x="592.0" y="550.4"/>
      <point x="537.4" y="616.0"/>
    </contour>
    <contour>
      <point x="347.0" y="-10.0" type="curve" smooth="yes"/>
      <point x="203.7" y="-10.0"/>
      <point x="88.2" y="83.6"/>
      <point x="88.2" y="240.7" type="curve" smooth="yes"/>
      <point x="88.2" y="370.3"/>
      <point x="146.5" y="473.5"/>
      <point x="219.0" y="546.0" type="curve" smooth="yes"/>
      <point x="288.0" y="615.0"/>
      <point x="380.0" y="658.0"/>
      <point x="476.0" y="658.0" type="curve" smooth="yes"/>
      <point x="628.9" y="658.0"/>
      <point x="736.6" y="559.9"/>
      <point x="736.6" y="403.6" type="curve" smooth="yes"/>
      <point x="736.6" y="175.4"/>
      <point x="569.7" y="-10.0"/>
    </contour>
  </outline>
</glyph>
<glyph name="Q" format="2">
  <advance width="699"/>
  <unicode hex="0051"/>
  <anchor x="347.0" y="802.0" name="above"/>
  <outline>
    <contour>
      <point x="456.0" y="616.0" type="curve" smooth="yes"/>
      <point x="402.8" y="616.0"/>
      <point x="348.8" y="583.5"/>
      <point x="306.1" y="509.2" type="curve" smooth="yes"/>
      <point x="272.0" y="449.9"/>
      <point x="233.1" y="331.2"/>
      <point x="233.1" y="226.1" type="curve" smooth="yes"/>
      <point x="233.1" y="101.8"/>
      <point x="289.2" y="32.0"/>
      <point x="374.0" y="32.0" type="curve" smooth="yes"/>
      <point x="493.9" y="32.0"/>
      <point x="592.0" y="216.0"/>
      <point x="592.0" y="422.6" type="curve" smooth="yes"/>
      <point x="592.0" y="550.4"/>
      <point x="537.4" y="616.0"/>
    </contour>
    <contour>
      <point x="126.6" y="-128.8" type="curve" smooth="yes"/>
      <point x="170.0" y="-85.4"/>
      <point x="233.0" y="-37.9"/>
      <point x="298.0" y="-6.2" type="curve"/>
      <point x="178.3" y="12.8"/>
      <point x="88.2" y="101.9"/>
      <point x="88.2" y="240.7" type="curve" smooth="yes"/>
      <point x="88.2" y="370.3"/>
      <point x="146.5" y="473.5"/>
      <point x="219.0" y="546.0" type="curve" smooth="yes"/>
      <point x="288.0" y="615.0"/>
      <point x="380.0" y="658.0"/>
      <point x="476.0" y="658.0" type="curve" smooth="yes"/>
      <point x="628.9" y="658.0"/>
      <point x="736.6" y="559.9"/>
      <point x="736.6" y="403.6" type="curve" smooth="yes"/>
      <point x="736.6" y="187.8"/>
      <point x="587.3" y="10.2"/>
      <point x="382.7" y="-8.4" type="curve"/>
      <point x="355.5" y="-17.7"/>
      <point x="318.6" y="-34.9"/>
      <point x="278.5" y="-60.2" type="curve"/>
      <point x="280.4" y="-60.1"/>
      <point x="282.3" y="-60.0"/>
      <point x="284.0" y="-60.0" type="curve" smooth="yes"/>
      <point x="390.0" y="-60.0"/>
      <point x="440.0" y="-152.0"/>
      <point x="524.0" y="-152.0" type="curve" smooth="yes"/>
      <point x="552.0" y="-152.0"/>
      <point x="589.0" y="-142.0"/>
      <point x="615.0" y="-115.0" type="curve"/>
      <point x="627.0" y="-137.0" type="line"/>
      <point x="579.0" y="-193.0"/>
      <point x="531.0" y="-229.0"/>
      <point x="471.0" y="-229.0" type="curve" smooth="yes"/>
      <point x="346.0" y="-229.0"/>
      <point x="306.0" y="-124.0"/>
      <point x="217.0" y="-124.0" type="curve" smooth="yes"/>
      <point x="209.5" y="-124.0"/>
      <point x="194.4" y="-127.8"/>
      <point x="177.7" y="-138.5" type="curve"/>
      <point x="163.1" y="-152.3"/>
      <point x="148.8" y="-167.1"/>
      <point x="135.0" y="-183.0" type="curve"/>
      <point x="104.0" y="-153.0" type="line"/>
      <point x="110.3" y="-144.5"/>
      <point x="118.0" y="-136.4"/>
    </contour>
  </outline>
</glyph>
<glyph name="R" format="2">
  <advance width="686"/>
  <unicode hex="0052"/>
  <anchor x="183.0" y="0.0" name="cedilla"/>
  <anchor x="292.0" y="-111.0" name="below"/>
  <anchor x="304.0" y="808.0" name="above"/>
  <outline>
    <contour>
      <point x="522.1" y="511.6" type="curve" smooth="yes"/>
      <point x="522.1" y="592.5"/>
      <point x="467.8" y="613.0"/>
      <point x="420.0" y="613.0" type="curve" smooth="yes"/>
      <point x="369.0" y="613.0"/>
      <point x="358.0" y="592.0"/>
      <point x="345.0" y="524.0" type="curve" smooth="yes"/>
      <point x="307.0" y="325.0" type="line"/>
      <point x="348.0" y="325.0" type="line" smooth="yes"/>
      <point x="437.9" y="325.0"/>
      <point x="522.1" y="366.2"/>
    </contour>
    <contour>
      <point x="459.0" y="654.0" type="curve" smooth="yes"/>
      <point x="586.3" y="654.0"/>
      <point x="663.3" y="615.1"/>
      <point x="663.3" y="510.5" type="curve" smooth="yes"/>
      <point x="663.3" y="391.5"/>
      <point x="571.5" y="330.6"/>
      <point x="514.0" y="308.0" type="curve"/>
      <point x="604.0" y="98.0" type="line" smooth="yes"/>
      <point x="623.0" y="56.0"/>
      <point x="641.0" y="32.0"/>
      <point x="684.0" y="32.0" type="curve"/>
      <point x="684.4" y="30.3"/>
      <point x="684.6" y="28.1"/>
      <point x="684.6" y="25.6" type="curve" smooth="yes"/>
      <point x="684.6" y="16.4"/>
      <point x="681.9" y="3.5"/>
      <point x="678.0" y="-2.0" type="curve"/>
      <point x="667.0" y="-7.0"/>
      <point x="617.0" y="-10.0"/>
      <point x="578.0" y="-10.0" type="curve" smooth="yes"/>
      <point x="520.0" y="-10.0"/>
      <point x="490.0" y="34.0"/>
      <point x="469.0" y="79.0" type="curve" smooth="yes"/>
      <point x="390.0" y="253.0" type="line"/>
      <point x="381.0" y="276.0"/>
      <point x="374.0" y="283.0"/>
      <point x="298.0" y="283.0" type="curve"/>
      <point x="267.0" y="122.0" type="line" smooth="yes"/>
      <point x="263.8" y="105.6"/>
      <point x="262.3" y="92.2"/>
      <point x="262.3" y="81.4" type="curve" smooth="yes"/>
      <point x="262.3" y="37.5"/>
      <point x="287.3" y="34.4"/>
      <point x="329.0" y="32.0" type="curve"/>
      <point x="332.1" y="29.7"/>
      <point x="333.5" y="25.0"/>
      <point x="333.5" y="19.8" type="curve" smooth="yes"/>
      <point x="333.5" y="11.4"/>
      <point x="329.8" y="1.7"/>
      <point x="323.0" y="-2.0" type="curve"/>
      <point x="285.0" y="-1.0"/>
      <point x="215.0" y="0.0"/>
      <point x="177.0" y="0.0" type="curve" smooth="yes"/>
      <point x="139.0" y="0.0"/>
      <point x="68.0" y="-1.0"/>
      <point x="29.0" y="-2.0" type="curve"/>
      <point x="26.1" y="0.2"/>
      <point x="24.8" y="4.4"/>
      <point x="24.8" y="9.2" type="curve" smooth="yes"/>
      <point x="24.8" y="17.8"/>
      <point x="29.0" y="28.2"/>
      <point x="36.0" y="32.0" type="curve"/>
      <point x="89.0" y="35.0"/>
      <point x="117.0" y="39.0"/>
      <point x="133.0" y="122.0" type="curve" smooth="yes"/>
      <point x="211.0" y="523.0" type="line" smooth="yes"/>
      <point x="214.1" y="539.1"/>
      <point x="215.6" y="552.2"/>
      <point x="215.6" y="562.9" type="curve" smooth="yes"/>
      <point x="215.6" y="607.5"/>
      <point x="189.9" y="610.6"/>
      <point x="148.0" y="613.0" type="curve"/>
      <point x="145.1" y="615.2"/>
      <point x="143.8" y="619.4"/>
      <point x="143.8" y="624.2" type="curve" smooth="yes"/>
      <point x="143.8" y="632.8"/>
      <point x="148.0" y="643.2"/>
      <point x="155.0" y="647.0" type="curve"/>
      <point x="193.0" y="647.0"/>
      <point x="421.0" y="654.0"/>
    </contour>
  </outline>
</glyph>
<glyph name="T" format="2">
  <advance width="625"/>
  <unicode hex="0054"/>
  <anchor x="332.0" y="285.0" name="middle"/>
  <anchor x="333.0" y="10.0" name="cedilla"/>
  <anchor x="325.0" y="-110.0" name="below"/>
  <anchor x="515.0" y="850.0" name="above"/>
  <outline>
    <contour>
      <point x="413.0" y="123.0" type="line" smooth="yes"/>
      <point x="397.0" y="40.0"/>
      <point x="412.0" y="35.0"/>
      <point x="488.0" y="32.0" type="curve"/>
      <point x="493.0" y="26.0"/>
      <point x="488.0" y="4.0"/>
      <point x="481.0" y="-2.0" type="curve"/>
      <point x="433.0" y="-1.0"/>
      <point x="383.0" y="0.0"/>
      <point x="320.0" y="0.0" type="curve" smooth="yes"/>
      <point x="259.0" y="0.0"/>
      <point x="208.0" y="-1.0"/>
      <point x="161.0" y="-2.0" type="curve"/>
      <point x="156.0" y="4.0"/>
      <point x="160.0" y="26.0"/>
      <point x="167.0" y="32.0" type="curve"/>
      <point x="244.0" y="35.0"/>
      <point x="262.0" y="40.0"/>
      <point x="278.0" y="123.0" type="curve" smooth="yes"/>
      <point x="353.0" y="506.0" type="line" smooth="yes"/>
      <point x="365.0" y="567.0"/>
      <point x="363.0" y="605.0"/>
      <point x="327.0" y="605.0" type="curve" smooth="yes"/>
      <point x="280.0" y="605.0" type="line" smooth="yes"/>
      <point x="217.0" y="605.0"/>
      <point x="172.0" y="579.0"/>
      <point x="137.0" y="499.0" type="curve"/>
      <point x="125.0" y="499.0"/>
      <point x="110.0" y="500.0"/>
      <point x="101.0" y="504.0" type="curve"/>
      <point x="121.0" y="552.0"/>
      <point x="140.0" y="605.0"/>
      <point x="153.0" y="650.0" type="curve" smooth="yes"/>
      <point x="153.0" y="651.0"/>
      <point x="156.0" y="653.0"/>
      <point x="158.0" y="653.0" type="curve" smooth="yes"/>
      <point x="194.0" y="650.0"/>
      <point x="306.0" y="645.0"/>
      <point x="380.0" y="645.0" type="curve" smooth="yes"/>
      <point x="515.0" y="645.0" type="line" smooth="yes"/>
      <point x="591.0" y="645.0"/>
      <point x="699.0" y="650.0"/>
      <point x="732.0" y="653.0" type="curve" smooth="yes"/>
      <point x="733.0" y="653.0"/>
      <point x="734.0" y="651.0"/>
      <point x="734.0" y="650.0" type="curve" smooth="yes"/>
      <point x="726.0" y="605.0"/>
      <point x="721.0" y="553.0"/>
      <point x="719.0" y="507.0" type="curve"/>
      <point x="710.0" y="503.0"/>
      <point x="691.0" y="502.0"/>
      <point x="680.0" y="502.0" type="curve"/>
      <point x="679.0" y="579.0"/>
      <point x="644.0" y="605.0"/>
      <point x="572.0" y="605.0" type="curve" smooth="yes"/>
      <point x="550.0" y="605.0" type="line" smooth="yes"/>
      <point x="515.0" y="605.0"/>
      <point x="499.0" y="567.0"/>
      <point x="487.0" y="503.0" type="curve" smooth="yes"/>
    </contour>
  </outline>
</glyph>
<glyph name="U" format="2">
  <advance width="702"/>
  <unicode hex="0055"/>
  <anchor x="401" y="850" name="above"/>
  <anchor x="383" y="-110" name="below"/>
  <anchor x="383" y="4" name="cedilla"/>
  <anchor x="391" y="321" name="middle"/>
  <outline>
    <contour>
      <point x="319" y="522" type="line" smooth="yes"/>
      <point x="270" y="269" type="line" smooth="yes"/>
      <point x="257" y="204"/>
      <point x="245" y="129"/>
      <point x="283" y="82" type="curve" smooth="yes"/>
      <point x="306" y="53"/>
      <point x="341" y="32"/>
      <point x="387" y="32" type="curve" smooth="yes"/>
      <point x="549" y="32"/>
      <point x="589" y="165"/>
      <point x="611" y="277" type="curve" smooth="yes"/>
      <point x="659" y="522" type="line" smooth="yes"/>
      <point x="675" y="605"/>
      <point x="659" y="606"/>
      <point x="588" y="613" type="curve"/>
      <point x="583" y="619"/>
      <point x="588" y="641"/>
      <point x="595" y="647" type="curve"/>
      <point x="643" y="646"/>
      <point x="669" y="645"/>
      <point x="717" y="645" type="curve" smooth="yes"/>
      <point x="757" y="645"/>
      <point x="773" y="646"/>
      <point x="820" y="647" type="curve"/>
      <point x="825" y="641"/>
      <point x="820" y="619"/>
      <point x="813" y="613" type="curve"/>
      <point x="754" y="606"/>
      <point x="738" y="605"/>
      <point x="722" y="522" type="curve" smooth="yes"/>
      <point x="677" y="295" type="line" smooth="yes"/>
      <point x="642" y="117"/>
      <point x="556" y="-10"/>
      <point x="359" y="-10" type="curve" smooth="yes"/>
      <point x="313" y="-10"/>
      <point x="225" y="-9"/>
      <point x="173" y="32" type="curve" smooth="yes"/>
      <point x="126" y="69"/>
      <point x="110" y="139"/>
      <point x="129" y="236" type="curve" smooth="yes"/>
      <point x="185" y="522" type="line" smooth="yes"/>
      <point x="201" y="605"/>
      <point x="186" y="610"/>
      <point x="129" y="613" type="curve"/>
      <point x="124" y="619"/>
      <point x="128" y="641"/>
      <point x="135" y="647" type="curve"/>
      <point x="183" y="646"/>
      <point x="220" y="645"/>
      <point x="275" y="645" type="curve" smooth="yes"/>
      <point x="336" y="645"/>
      <point x="385" y="646"/>
      <point x="432" y="647" type="curve"/>
      <point x="437" y="641"/>
      <point x="432" y="619"/>
      <point x="425" y="613" type="curve"/>
      <point x="350" y="610"/>
      <point x="335" y="605"/>
      <point x="319" y="522" type="curve" smooth="yes"/>
    </contour>
  </outline>
</glyph>
<glyph name="V" format="2">
  <advance width="671"/>
  <unicode hex="0056"/>
  <anchor x="349.0" y="3.0" name="cedilla"/>
  <anchor x="329.0" y="-108.0" name="below"/>
  <anchor x="387.0" y="805.0" name="above"/>
  <outline>
    <contour>
      <point x="676.0" y="543.0" type="line" smooth="yes"/>
      <point x="711.0" y="603.0"/>
      <point x="742.0" y="610.0"/>
      <point x="785.0" y="613.0" type="curve"/>
      <point x="792.0" y="619.0"/>
      <point x="797.0" y="641.0"/>
      <point x="792.0" y="647.0" type="curve"/>
      <point x="756.0" y="646.0"/>
      <point x="738.0" y="645.0"/>
      <point x="701.0" y="645.0" type="curve" smooth="yes"/>
      <point x="662.0" y="645.0"/>
      <point x="609.0" y="646.0"/>
      <point x="574.0" y="647.0" type="curve"/>
      <point x="567.0" y="641.0"/>
      <point x="562.0" y="619.0"/>
      <point x="567.0" y="613.0" type="curve"/>
      <point x="603.0" y="610.0"/>
      <point x="646.0" y="604.0"/>
      <point x="625.0" y="566.0" type="curve" smooth="yes"/>
      <point x="423.0" y="210.0" type="line"/>
      <point x="399.0" y="171.0" type="line"/>
      <point x="393.0" y="216.0" type="line"/>
      <point x="344.0" y="573.0" type="line" smooth="yes"/>
      <point x="339.0" y="606.0"/>
      <point x="375.0" y="610.0"/>
      <point x="422.0" y="613.0" type="curve"/>
      <point x="429.0" y="619.0"/>
      <point x="434.0" y="641.0"/>
      <point x="429.0" y="647.0" type="curve"/>
      <point x="393.0" y="646.0"/>
      <point x="297.0" y="645.0"/>
      <point x="260.0" y="645.0" type="curve" smooth="yes"/>
      <point x="221.0" y="645.0"/>
      <point x="166.0" y="646.0"/>
      <point x="131.0" y="647.0" type="curve"/>
      <point x="124.0" y="641.0"/>
      <point x="120.0" y="619.0"/>
      <point x="125.0" y="613.0" type="curve"/>
      <point x="162.0" y="609.0"/>
      <point x="192.0" y="606.0"/>
      <point x="201.0" y="559.0" type="curve" smooth="yes"/>
      <point x="304.0" y="11.0" type="line" smooth="yes"/>
      <point x="307.0" y="-4.0"/>
      <point x="320.0" y="-12.0"/>
      <point x="331.0" y="-12.0" type="curve" smooth="yes"/>
      <point x="341.0" y="-12.0"/>
      <point x="359.0" y="-5.0"/>
      <point x="368.0" y="11.0" type="curve" smooth="yes"/>
    </contour>
  </outline>
</glyph>
<glyph name="W" format="2">
  <advance width="986"/>
  <unicode hex="0057"/>
  <anchor x="537" y="805" name="above"/>
  <anchor x="514" y="-107" name="below"/>
  <outline>
    <contour>
      <point x="671" y="613" type="line"/>
      <point x="728" y="216" type="line"/>
      <point x="734" y="174" type="line"/>
      <point x="753" y="210" type="line"/>
      <point x="936" y="566" type="line" smooth="yes"/>
      <point x="955" y="604"/>
      <point x="914" y="610"/>
      <point x="878" y="613" type="curve"/>
      <point x="873" y="619"/>
      <point x="878" y="641"/>
      <point x="885" y="647" type="curve"/>
      <point x="920" y="646"/>
      <point x="973" y="645"/>
      <point x="1012" y="645" type="curve" smooth="yes"/>
      <point x="1049" y="645"/>
      <point x="1067" y="646"/>
      <point x="1103" y="647" type="curve"/>
      <point x="1108" y="641"/>
      <point x="1103" y="619"/>
      <point x="1096" y="613" type="curve"/>
      <point x="1053" y="610"/>
      <point x="1019" y="602"/>
      <point x="987" y="543" type="curve" smooth="yes"/>
      <point x="698" y="11" type="line" smooth="yes"/>
      <point x="688" y="-7"/>
      <point x="671" y="-12"/>
      <point x="661" y="-12" type="curve" smooth="yes"/>
      <point x="650" y="-12"/>
      <point x="636" y="0"/>
      <point x="634" y="11" type="curve" smooth="yes"/>
      <point x="564" y="410" type="line"/>
      <point x="352" y="11" type="line" smooth="yes"/>
      <point x="342" y="-8"/>
      <point x="325" y="-12"/>
      <point x="315" y="-12" type="curve" smooth="yes"/>
      <point x="304" y="-12"/>
      <point x="290" y="-4"/>
      <point x="288" y="11" type="curve" smooth="yes"/>
      <point x="205" y="559" type="line" smooth="yes"/>
      <point x="198" y="605"/>
      <point x="166" y="609"/>
      <point x="129" y="613" type="curve"/>
      <point x="124" y="619"/>
      <point x="128" y="641"/>
      <point x="135" y="647" type="curve"/>
      <point x="170" y="646"/>
      <point x="225" y="645"/>
      <point x="264" y="645" type="curve" smooth="yes"/>
      <point x="301" y="645"/>
      <point x="397" y="646"/>
      <point x="433" y="647" type="curve"/>
      <point x="438" y="641"/>
      <point x="433" y="619"/>
      <point x="426" y="613" type="curve"/>
      <point x="379" y="610"/>
      <point x="343" y="604"/>
      <point x="347" y="573" type="curve" smooth="yes"/>
      <point x="392" y="216" type="line"/>
      <point x="395" y="184" type="line"/>
      <point x="407" y="210" type="line"/>
      <point x="613" y="613" type="line"/>
      <point x="613" y="613"/>
      <point x="642" y="607"/>
      <point x="671" y="613" type="curve"/>
    </contour>
  </outline>
</glyph>
<glyph name="Y" format="2">
  <advance width="606"/>
  <unicode hex="0059"/>
  <anchor x="339.0" y="1.0" name="cedilla"/>
  <anchor x="341.0" y="-110.0" name="below"/>
  <anchor x="341.0" y="850.0" name="above"/>
  <outline>
    <contour>
      <point x="411.0" y="122.0" type="line" smooth="yes"/>
      <point x="395.0" y="39.0"/>
      <point x="411.0" y="34.0"/>
      <point x="487.0" y="31.0" type="curve"/>
      <point x="492.0" y="25.0"/>
      <point x="487.0" y="4.0"/>
      <point x="480.0" y="-2.0" type="curve"/>
      <point x="432.0" y="-1.0"/>
      <point x="388.0" y="0.0"/>
      <point x="328.0" y="0.0" type="curve" smooth="yes"/>
      <point x="263.0" y="0.0"/>
      <point x="207.0" y="-1.0"/>
      <point x="160.0" y="-2.0" type="curve"/>
      <point x="155.0" y="4.0"/>
      <point x="159.0" y="25.0"/>
      <point x="166.0" y="31.0" type="curve"/>
      <point x="243.0" y="34.0"/>
      <point x="261.0" y="39.0"/>
      <point x="277.0" y="122.0" type="curve" smooth="yes"/>
      <point x="303.0" y="259.0" type="line" smooth="yes"/>
      <point x="310.0" y="296.0"/>
      <point x="309.0" y="303.0"/>
      <point x="298.0" y="332.0" type="curve" smooth="yes"/>
      <point x="218.0" y="547.0" type="line" smooth="yes"/>
      <point x="197.0" y="603.0"/>
      <point x="181.0" y="610.0"/>
      <point x="141.0" y="613.0" type="curve"/>
      <point x="136.0" y="619.0"/>
      <point x="140.0" y="641.0"/>
      <point x="147.0" y="647.0" type="curve"/>
      <point x="176.0" y="646.0"/>
      <point x="245.0" y="645.0"/>
      <point x="282.0" y="645.0" type="curve" smooth="yes"/>
      <point x="320.0" y="645.0"/>
      <point x="363.0" y="646.0"/>
      <point x="402.0" y="647.0" type="curve"/>
      <point x="407.0" y="641.0"/>
      <point x="402.0" y="619.0"/>
      <point x="395.0" y="613.0" type="curve"/>
      <point x="341.0" y="610.0"/>
      <point x="338.0" y="595.0"/>
      <point x="351.0" y="557.0" type="curve" smooth="yes"/>
      <point x="415.0" y="373.0" type="line" smooth="yes"/>
      <point x="421.0" y="356.0"/>
      <point x="432.0" y="357.0"/>
      <point x="441.0" y="370.0" type="curve" smooth="yes"/>
      <point x="573.0" y="564.0" type="line" smooth="yes"/>
      <point x="593.0" y="594.0"/>
      <point x="576.0" y="610.0"/>
      <point x="534.0" y="613.0" type="curve"/>
      <point x="529.0" y="619.0"/>
      <point x="533.0" y="641.0"/>
      <point x="540.0" y="647.0" type="curve"/>
      <point x="578.0" y="646.0"/>
      <point x="624.0" y="645.0"/>
      <point x="646.0" y="645.0" type="curve" smooth="yes"/>
      <point x="668.0" y="645.0"/>
      <point x="707.0" y="646.0"/>
      <point x="736.0" y="647.0" type="curve"/>
      <point x="741.0" y="641.0"/>
      <point x="736.0" y="619.0"/>
      <point x="729.0" y="613.0" type="curve"/>
      <point x="685.0" y="609.0"/>
      <point x="666.0" y="605.0"/>
      <point x="637.0" y="565.0" type="curve"/>
      <point x="472.0" y="351.0" type="line" smooth="yes"/>
      <point x="455.0" y="330.0"/>
      <point x="448.0" y="308.0"/>
      <point x="440.0" y="268.0" type="curve" smooth="yes"/>
    </contour>
  </outline>
</glyph>
<glyph name="Z" format="2">
  <advance width="598"/>
  <unicode hex="005A"/>
  <anchor x="308.0" y="4.0" name="cedilla"/>
  <anchor x="308.0" y="-107.0" name="below"/>
  <anchor x="321.0" y="803.0" name="above"/>
  <outline>
    <contour>
      <point x="420.0" y="44.0" type="line" smooth="yes"/>
      <point x="483.0" y="44.0"/>
      <point x="539.0" y="97.0"/>
      <point x="574.0" y="177.0" type="curve"/>
      <point x="586.0" y="177.0"/>
      <point x="602.0" y="176.0"/>
      <point x="611.0" y="172.0" type="curve"/>
      <point x="593.0" y="112.0"/>
      <point x="564.0" y="25.0"/>
      <point x="551.0" y="-5.0" type="curve" smooth="yes"/>
      <point x="551.0" y="-6.0"/>
      <point x="548.0" y="-8.0"/>
      <point x="546.0" y="-8.0" type="curve" smooth="yes"/>
      <point x="510.0" y="-5.0"/>
      <point x="398.0" y="0.0"/>
      <point x="324.0" y="0.0" type="curve" smooth="yes"/>
      <point x="37.0" y="0.0" type="line" smooth="yes"/>
      <point x="24.0" y="0.0"/>
      <point x="20.0" y="5.0"/>
      <point x="22.0" y="15.0" type="curve" smooth="yes"/>
      <point x="23.0" y="22.0"/>
      <point x="27.0" y="30.0"/>
      <point x="34.0" y="38.0" type="curve" smooth="yes"/>
      <point x="498.0" y="579.0" type="line" smooth="yes"/>
      <point x="507.0" y="589.0"/>
      <point x="518.0" y="602.0"/>
      <point x="501.0" y="602.0" type="curve" smooth="yes"/>
      <point x="317.0" y="602.0" type="line" smooth="yes"/>
      <point x="254.0" y="602.0"/>
      <point x="205.0" y="556.0"/>
      <point x="170.0" y="476.0" type="curve"/>
      <point x="158.0" y="476.0"/>
      <point x="142.0" y="477.0"/>
      <point x="133.0" y="481.0" type="curve"/>
      <point x="153.0" y="529.0"/>
      <point x="178.0" y="605.0"/>
      <point x="191.0" y="650.0" type="curve" smooth="yes"/>
      <point x="191.0" y="651.0"/>
      <point x="194.0" y="653.0"/>
      <point x="196.0" y="653.0" type="curve" smooth="yes"/>
      <point x="232.0" y="650.0"/>
      <point x="344.0" y="645.0"/>
      <point x="418.0" y="645.0" type="curve" smooth="yes"/>
      <point x="611.0" y="645.0" type="line" smooth="yes"/>
      <point x="638.0" y="645.0"/>
      <point x="662.0" y="647.0"/>
      <point x="674.0" y="647.0" type="curve" smooth="yes"/>
      <point x="687.0" y="647.0"/>
      <point x="690.0" y="643.0"/>
      <point x="689.0" y="637.0" type="curve" smooth="yes"/>
      <point x="687.0" y="626.0"/>
      <point x="684.0" y="620.0"/>
      <point x="659.0" y="591.0" type="curve" smooth="yes"/>
      <point x="218.0" y="72.0" type="line" smooth="yes"/>
      <point x="202.0" y="53.0"/>
      <point x="198.0" y="44.0"/>
      <point x="228.0" y="44.0" type="curve" smooth="yes"/>
    </contour>
  </outline>
</glyph>
<glyph name="bracketleft" format="2">
  <advance width="397"/>
  <unicode hex="005B"/>
  <outline>
    <contour>
      <point x="31.8" y="-193.0" type="line"/>
      <point x="222.2" y="703.0" type="line"/>
      <point x="461.2" y="703.0" type="line"/>
      <point x="465.9" y="697.0"/>
      <point x="468.1" y="679.0"/>
      <point x="460.8" y="673.0" type="curve"/>
      <point x="321.7" y="663.0"/>
      <point x="300.5" y="648.0"/>
      <point x="282.0" y="561.0" type="curve" smooth="yes"/>
      <point x="152.2" y="-50.0" type="line" smooth="yes"/>
      <point x="133.7" y="-137.0"/>
      <point x="147.5" y="-152.0"/>
      <point x="283.2" y="-163.0" type="curve"/>
      <point x="287.9" y="-169.0"/>
      <point x="284.1" y="-187.0"/>
      <point x="276.8" y="-193.0" type="curve"/>
    </contour>
  </outline>
</glyph>
<glyph name="backslash" format="2">
  <advance width="307"/>
  <unicode hex="005C"/>
  <outline>
    <contour>
      <point x="188" y="698" type="line"/>
      <point x="314" y="-48" type="line"/>
      <point x="249" y="-48" type="line"/>
      <point x="123" y="698" type="line"/>
    </contour>
  </outline>
</glyph>
<glyph name="bracketright" format="2">
  <advance width="397"/>
  <unicode hex="005D"/>
  <outline>
    <contour>
      <point x="473.2" y="703.0" type="line"/>
      <point x="282.8" y="-193.0" type="line"/>
      <point x="43.8" y="-193.0" type="line"/>
      <point x="39.1" y="-187.0"/>
      <point x="36.9" y="-169.0"/>
      <point x="44.2" y="-163.0" type="curve"/>
      <point x="183.3" y="-153.0"/>
      <point x="204.5" y="-138.0"/>
      <point x="223.0" y="-51.0" type="curve" smooth="yes"/>
      <point x="352.8" y="560.0" type="line" smooth="yes"/>
      <point x="371.3" y="647.0"/>
      <point x="357.5" y="662.0"/>
      <point x="221.8" y="673.0" type="curve"/>
      <point x="217.1" y="679.0"/>
      <point x="220.9" y="697.0"/>
      <point x="228.2" y="703.0" type="curve"/>
    </contour>
  </outline>
</glyph>
<glyph name="asciicircum" format="2">
  <advance width="518"/>
  <unicode hex="005E"/>
  <outline>
    <contour>
      <point x="328" y="569" type="line"/>
      <point x="194" y="346" type="line"/>
      <point x="140" y="346" type="line"/>
      <point x="327" y="650" type="line"/>
      <point x="366" y="650" type="line"/>
      <point x="418" y="346" type="line"/>
      <point x="364" y="346" type="line"/>
    </contour>
  </outline>
</glyph>
<glyph name="underscore" format="2">
  <advance width="486"/>
  <unicode hex="005F"/>
  <outline>
    <contour>
      <point x="463.0" y="-110.0" type="line"/>
      <point x="455.0" y="-154.0" type="line"/>
      <point x="-22.0" y="-154.0" type="line"/>
      <point x="-15.0" y="-110.0" type="line"/>
    </contour>
  </outline>
</glyph>
<glyph name="a" format="2">
  <advance width="558"/>
  <unicode hex="0061"/>
  <anchor x="174.0" y="-108.0" name="below"/>
  <anchor x="179.4" y="-3.0" name="cedilla"/>
  <anchor x="413.3" y="16.0" name="ogonek"/>
  <anchor x="340.6" y="647.0" name="above"/>
  <outline>
    <contour>
      <point x="508.0" y="436.0" type="curve" smooth="yes"/>
      <point x="521.3" y="436.0"/>
      <point x="528.5" y="428.6"/>
      <point x="528.5" y="414.9" type="curve" smooth="yes"/>
      <point x="528.5" y="397.8"/>
      <point x="516.8" y="359.5"/>
      <point x="508.3" y="320.2" type="curve" smooth="yes"/>
      <point x="466.0" y="124.0" type="line" smooth="yes"/>
      <point x="462.8" y="110.3"/>
      <point x="459.2" y="93.8"/>
      <point x="459.2" y="81.4" type="curve" smooth="yes"/>
      <point x="459.2" y="70.6"/>
      <point x="462.0" y="63.0"/>
      <point x="470.0" y="63.0" type="curve" smooth="yes"/>
      <point x="480.0" y="63.0"/>
      <point x="514.0" y="80.0"/>
      <point x="540.0" y="110.0" type="curve"/>
      <point x="554.0" y="110.0"/>
      <point x="566.0" y="91.0"/>
      <point x="569.0" y="82.0" type="curve"/>
      <point x="523.0" y="23.0"/>
      <point x="460.5" y="-10.0"/>
      <point x="391.0" y="-10.0" type="curve" smooth="yes"/>
      <point x="361.0" y="-10.0"/>
      <point x="348.5" y="2.5"/>
      <point x="341.0" y="23.0" type="curve" smooth="yes"/>
      <point x="338.7" y="29.3"/>
      <point x="337.7" y="37.5"/>
      <point x="337.7" y="46.9" type="curve" smooth="yes"/>
      <point x="337.7" y="64.4"/>
      <point x="341.1" y="86.0"/>
      <point x="346.0" y="106.7" type="curve" smooth="yes"/>
      <point x="351.0" y="125.0" type="line"/>
      <point x="347.0" y="127.0" type="line"/>
      <point x="287.0" y="38.0"/>
      <point x="224.5" y="-10.0"/>
      <point x="182.0" y="-10.0" type="curve" smooth="yes"/>
      <point x="109.0" y="-10.0"/>
      <point x="75.1" y="49.1"/>
      <point x="75.1" y="117.5" type="curve" smooth="yes"/>
      <point x="75.1" y="192.4"/>
      <point x="103.5" y="258.6"/>
      <point x="148.5" y="315.6" type="curve" smooth="yes"/>
      <point x="203.8" y="385.8"/>
      <point x="284.0" y="439.0"/>
      <point x="368.0" y="439.0" type="curve" smooth="yes"/>
      <point x="408.0" y="439.0"/>
      <point x="406.0" y="436.0"/>
      <point x="433.0" y="433.0" type="curve" smooth="yes"/>
      <point x="437.8" y="431.8"/>
      <point x="443.1" y="431.4"/>
      <point x="448.9" y="431.4" type="curve" smooth="yes"/>
      <point x="467.3" y="431.4"/>
      <point x="489.7" y="436.0"/>
    </contour>
    <contour>
      <point x="364.5" y="226.0" type="curve"/>
      <point x="389.5" y="290.0"/>
      <point x="397.0" y="378.0"/>
      <point x="397.0" y="378.0" type="curve"/>
      <point x="395.1" y="390.5"/>
      <point x="384.0" y="397.0"/>
      <point x="363.0" y="397.0" type="curve" smooth="yes"/>
      <point x="319.6" y="397.0"/>
      <point x="280.2" y="362.6"/>
      <point x="251.0" y="314.5" type="curve" smooth="yes"/>
      <point x="219.7" y="262.9"/>
      <point x="200.2" y="195.6"/>
      <point x="200.2" y="138.4" type="curve" smooth="yes"/>
      <point x="200.2" y="107.5"/>
      <point x="213.1" y="84.5"/>
      <point x="244.1" y="84.5" type="curve" smooth="yes"/>
      <point x="276.1" y="84.5"/>
      <point x="315.5" y="136.0"/>
    </contour>
  </outline>
</glyph>
<glyph name="b" format="2">
  <advance width="521"/>
  <unicode hex="0062"/>
  <anchor x="214" y="-108" name="below"/>
  <outline>
    <contour>
      <point x="266" y="278" type="curve"/>
      <point x="233" y="127" type="line" smooth="yes"/>
      <point x="218" y="58"/>
      <point x="225" y="32"/>
      <point x="261" y="32" type="curve" smooth="yes"/>
      <point x="337" y="32"/>
      <point x="422" y="156"/>
      <point x="422" y="301" type="curve" smooth="yes"/>
      <point x="422" y="319"/>
      <point x="419" y="352"/>
      <point x="389" y="352" type="curve" smooth="yes"/>
      <point x="342" y="352"/>
      <point x="313" y="331"/>
    </contour>
    <contour>
      <point x="279" y="336" type="line"/>
      <point x="281" y="335" type="line"/>
      <point x="316" y="376"/>
      <point x="380" y="439"/>
      <point x="449" y="439" type="curve" smooth="yes"/>
      <point x="538" y="439"/>
      <point x="550" y="368"/>
      <point x="550" y="328" type="curve" smooth="yes"/>
      <point x="550" y="225"/>
      <point x="509" y="148"/>
      <point x="426" y="74" type="curve" smooth="yes"/>
      <point x="348" y="3"/>
      <point x="270" y="-10"/>
      <point x="210" y="-10" type="curve" smooth="yes"/>
      <point x="120" y="-10"/>
      <point x="95" y="54"/>
      <point x="109" y="118" type="curve" smooth="yes"/>
      <point x="210" y="563" type="line" smooth="yes"/>
      <point x="226" y="632"/>
      <point x="210" y="638"/>
      <point x="148" y="638" type="curve"/>
      <point x="145" y="647"/>
      <point x="147" y="660"/>
      <point x="153" y="672" type="curve"/>
      <point x="196" y="679"/>
      <point x="288" y="698"/>
      <point x="319" y="698" type="curve" smooth="yes"/>
      <point x="342" y="698"/>
      <point x="349" y="686"/>
      <point x="349" y="665" type="curve" smooth="yes"/>
      <point x="349" y="645"/>
      <point x="341" y="616"/>
      <point x="334" y="583" type="curve" smooth="yes"/>
    </contour>
  </outline>
</glyph>
<glyph name="c" format="2">
  <advance width="434"/>
  <unicode hex="0063"/>
  <outline>
    <contour>
      <point x="421.0" y="87.0" type="curve"/>
      <point x="374.0" y="32.0"/>
      <point x="296.0" y="-10.0"/>
      <point x="235.0" y="-10.0" type="curve" smooth="yes"/>
      <point x="169.0" y="-10.0"/>
      <point x="130.0" y="5.0"/>
      <point x="101.0" y="42.0" type="curve" smooth="yes"/>
      <point x="73.0" y="78.0"/>
      <point x="64.0" y="136.0"/>
      <point x="78.0" y="201.0" type="curve" smooth="yes"/>
      <point x="109.0" y="349.0"/>
      <point x="235.0" y="444.0"/>
      <point x="345.0" y="444.0" type="curve" smooth="yes"/>
      <point x="446.0" y="444.0"/>
      <point x="485.0" y="394.0"/>
      <point x="474.0" y="340.0" type="curve" smooth="yes"/>
      <point x="467.0" y="309.0"/>
      <point x="441.0" y="284.0"/>
      <point x="411.0" y="284.0" type="curve" smooth="yes"/>
      <point x="381.0" y="284.0"/>
      <point x="361.0" y="304.0"/>
      <point x="364.0" y="331.0" type="curve" smooth="yes"/>
      <point x="368.0" y="363.0"/>
      <point x="362.0" y="402.0"/>
      <point x="328.0" y="402.0" type="curve" smooth="yes"/>
      <point x="279.0" y="402.0"/>
      <point x="234.0" y="347.0"/>
      <point x="210.0" y="236.0" type="curve" smooth="yes"/>
      <point x="187.0" y="128.0"/>
      <point x="228.0" y="66.0"/>
      <point x="289.0" y="66.0" type="curve" smooth="yes"/>
      <point x="323.0" y="66.0"/>
      <point x="355.0" y="81.0"/>
      <point x="400.0" y="118.0" type="curve"/>
      <point x="409.0" y="118.0"/>
      <point x="421.0" y="96.0"/>
    </contour>
  </outline>
</glyph>
<glyph name="d" format="2">
  <advance width="561"/>
  <unicode hex="0064"/>
  <anchor x="221.0" y="-107.0" name="below"/>
  <anchor x="312.0" y="20.0" name="ogonek"/>
  <anchor x="218.0" y="645.0" name="above"/>
  <outline>
    <contour>
      <point x="445.0" y="563.0" type="line" smooth="yes"/>
      <point x="461.0" y="632.0"/>
      <point x="445.0" y="638.0"/>
      <point x="383.0" y="638.0" type="curve"/>
      <point x="380.0" y="647.0"/>
      <point x="382.0" y="660.0"/>
      <point x="388.0" y="672.0" type="curve"/>
      <point x="431.0" y="679.0"/>
      <point x="523.0" y="698.0"/>
      <point x="554.0" y="698.0" type="curve" smooth="yes"/>
      <point x="577.0" y="698.0"/>
      <point x="584.0" y="686.0"/>
      <point x="584.0" y="665.0" type="curve" smooth="yes"/>
      <point x="584.0" y="645.0"/>
      <point x="576.0" y="616.0"/>
      <point x="569.0" y="583.0" type="curve" smooth="yes"/>
      <point x="468.0" y="127.0" type="line" smooth="yes"/>
      <point x="464.9" y="113.2"/>
      <point x="461.4" y="96.6"/>
      <point x="461.4" y="84.2" type="curve" smooth="yes"/>
      <point x="461.4" y="73.5"/>
      <point x="464.0" y="66.0"/>
      <point x="472.0" y="66.0" type="curve" smooth="yes"/>
      <point x="482.0" y="66.0"/>
      <point x="516.0" y="83.0"/>
      <point x="542.0" y="113.0" type="curve"/>
      <point x="556.0" y="113.0"/>
      <point x="568.0" y="94.0"/>
      <point x="571.0" y="85.0" type="curve"/>
      <point x="521.0" y="30.0"/>
      <point x="454.5" y="-10.0"/>
      <point x="385.0" y="-10.0" type="curve" smooth="yes"/>
      <point x="349.1" y="-10.0"/>
      <point x="334.3" y="12.7"/>
      <point x="334.3" y="47.1" type="curve" smooth="yes"/>
      <point x="334.3" y="67.4"/>
      <point x="338.8" y="94.7"/>
      <point x="343.8" y="117.1" type="curve"/>
      <point x="342.0" y="118.0" type="line"/>
      <point x="282.0" y="30.0"/>
      <point x="235.0" y="-10.0"/>
      <point x="178.0" y="-10.0" type="curve" smooth="yes"/>
      <point x="90.0" y="-10.0"/>
      <point x="58.0" y="51.0"/>
      <point x="58.0" y="124.0" type="curve" smooth="yes"/>
      <point x="58.0" y="213.1"/>
      <point x="102.0" y="321.0"/>
      <point x="188.0" y="389.0" type="curve" smooth="yes"/>
      <point x="233.1" y="424.6"/>
      <point x="272.0" y="439.0"/>
      <point x="325.0" y="439.0" type="curve" smooth="yes"/>
      <point x="363.0" y="439.0"/>
      <point x="392.0" y="414.0"/>
      <point x="404.0" y="384.0" type="curve"/>
      <point x="404.4" y="384.0" type="line"/>
    </contour>
    <contour>
      <point x="382.5" y="281.8" type="line" smooth="yes"/>
      <point x="384.2" y="288.3"/>
      <point x="385.5" y="294.2"/>
      <point x="386.4" y="299.6" type="curve" smooth="yes"/>
    </contour>
    <contour>
      <point x="377.2" y="264.1" type="curve"/>
      <point x="387.8" y="311.1" type="line" smooth="yes"/>
      <point x="387.9" y="312.8"/>
      <point x="388.0" y="314.5"/>
      <point x="388.0" y="316.0" type="curve" smooth="yes"/>
      <point x="388.0" y="351.0"/>
      <point x="366.0" y="393.0"/>
      <point x="328.0" y="393.0" type="curve" smooth="yes"/>
      <point x="242.0" y="393.0"/>
      <point x="179.0" y="256.0"/>
      <point x="179.0" y="150.0" type="curve" smooth="yes"/>
      <point x="179.0" y="94.0"/>
      <point x="191.0" y="56.0"/>
      <point x="220.0" y="56.0" type="curve" smooth="yes"/>
      <point x="259.0" y="56.0"/>
      <point x="297.0" y="104.0"/>
      <point x="346.0" y="194.0" type="curve" smooth="yes"/>
      <point x="360.0" y="219.6"/>
      <point x="370.3" y="243.6"/>
    </contour>
  </outline>
</glyph>
<glyph name="e" format="2">
  <advance width="409"/>
  <unicode hex="0065"/>
  <anchor x="161.0" y="-108.0" name="below"/>
  <anchor x="347.3" y="41.0" name="ogonek"/>
  <anchor x="335.2" y="645.0" name="above"/>
  <outline>
    <contour>
      <point x="343.0" y="370.0" type="curve" smooth="yes"/>
      <point x="343.0" y="390.0"/>
      <point x="332.0" y="398.0"/>
      <point x="311.0" y="398.0" type="curve" smooth="yes"/>
      <point x="272.0" y="398.0"/>
      <point x="234.3" y="378.0"/>
      <point x="200.0" y="237.3" type="curve"/>
      <point x="253.0" y="246.0"/>
      <point x="343.0" y="280.0"/>
    </contour>
    <contour>
      <point x="193.0" y="199.0" type="curve"/>
      <point x="192.0" y="191.0"/>
      <point x="192.0" y="170.0"/>
      <point x="192.0" y="165.0" type="curve" smooth="yes"/>
      <point x="192.0" y="98.0"/>
      <point x="206.0" y="50.0"/>
      <point x="245.0" y="50.0" type="curve" smooth="yes"/>
      <point x="293.0" y="50.0"/>
      <point x="324.0" y="66.0"/>
      <point x="381.0" y="124.0" type="curve"/>
      <point x="393.0" y="124.0"/>
      <point x="408.0" y="110.0"/>
      <point x="413.0" y="99.0" type="curve"/>
      <point x="354.0" y="23.0"/>
      <point x="276.0" y="-10.0"/>
      <point x="209.0" y="-10.0" type="curve" smooth="yes"/>
      <point x="89.0" y="-10.0"/>
      <point x="63.0" y="57.0"/>
      <point x="63.0" y="142.0" type="curve" smooth="yes"/>
      <point x="63.0" y="269.0"/>
      <point x="140.0" y="439.0"/>
      <point x="334.0" y="439.0" type="curve" smooth="yes"/>
      <point x="415.0" y="439.0"/>
      <point x="456.0" y="404.0"/>
      <point x="456.0" y="369.0" type="curve" smooth="yes"/>
      <point x="456.0" y="351.2"/>
      <point x="455.5" y="317.2"/>
      <point x="425.0" y="288.0" type="curve" smooth="yes"/>
      <point x="390.6" y="255.0"/>
      <point x="319.2" y="226.1"/>
    </contour>
  </outline>
</glyph>
<glyph name="f" format="2">
  <advance width="397"/>
  <unicode hex="0066"/>
  <anchor x="441" y="807" name="above"/>
  <anchor x="272" y="-111" name="below"/>
  <outline>
    <contour>
      <point x="191" y="382" type="curve"/>
      <point x="109" y="382" type="line" smooth="yes"/>
      <point x="106" y="382"/>
      <point x="103" y="382"/>
      <point x="103" y="384" type="curve" smooth="yes"/>
      <point x="103" y="386"/>
      <point x="106" y="406"/>
      <point x="107" y="409" type="curve" smooth="yes"/>
      <point x="109" y="417"/>
      <point x="116" y="425"/>
      <point x="135" y="426" type="curve" smooth="yes"/>
      <point x="201" y="429" type="line"/>
      <point x="222" y="535"/>
      <point x="254" y="600"/>
      <point x="291" y="640" type="curve" smooth="yes"/>
      <point x="327" y="680"/>
      <point x="382" y="698"/>
      <point x="437" y="698" type="curve" smooth="yes"/>
      <point x="522" y="698"/>
      <point x="592" y="657"/>
      <point x="592" y="608" type="curve" smooth="yes"/>
      <point x="592" y="587"/>
      <point x="577" y="555"/>
      <point x="540" y="555" type="curve" smooth="yes"/>
      <point x="499" y="555"/>
      <point x="489" y="591"/>
      <point x="484" y="618" type="curve" smooth="yes"/>
      <point x="479" y="642"/>
      <point x="466" y="656"/>
      <point x="438" y="656" type="curve" smooth="yes"/>
      <point x="380" y="656"/>
      <point x="357" y="588"/>
      <point x="337" y="486" type="curve" smooth="yes"/>
      <point x="326" y="429" type="line"/>
      <point x="436" y="429" type="line" smooth="yes"/>
      <point x="441" y="429"/>
      <point x="443" y="427"/>
      <point x="443" y="424" type="curve" smooth="yes"/>
      <point x="443" y="423"/>
      <point x="438" y="394"/>
      <point x="438" y="394" type="curve" smooth="yes"/>
      <point x="436" y="386"/>
      <point x="421" y="382"/>
      <point x="412" y="382" type="curve" smooth="yes"/>
      <point x="319" y="382" type="line"/>
      <point x="315" y="359" type="line" smooth="yes"/>
      <point x="300" y="271"/>
      <point x="286" y="208"/>
      <point x="269" y="130" type="curve" smooth="yes"/>
      <point x="230" y="-48"/>
      <point x="185" y="-111"/>
      <point x="151" y="-158" type="curve" smooth="yes"/>
      <point x="113" y="-209"/>
      <point x="61" y="-233"/>
      <point x="12" y="-233" type="curve" smooth="yes"/>
      <point x="-70" y="-233"/>
      <point x="-102" y="-195"/>
      <point x="-102" y="-168" type="curve" smooth="yes"/>
      <point x="-102" y="-148"/>
      <point x="-90" y="-122"/>
      <point x="-57" y="-122" type="curve" smooth="yes"/>
      <point x="-34" y="-122"/>
      <point x="-14" y="-133"/>
      <point x="1" y="-158" type="curve" smooth="yes"/>
      <point x="10" y="-172"/>
      <point x="21" y="-185"/>
      <point x="34" y="-185" type="curve" smooth="yes"/>
      <point x="52" y="-185"/>
      <point x="76" y="-168"/>
      <point x="89" y="-148" type="curve" smooth="yes"/>
      <point x="133" y="-79"/>
      <point x="137" y="43"/>
      <point x="150" y="141" type="curve" smooth="yes"/>
      <point x="160" y="216"/>
      <point x="169" y="268"/>
    </contour>
  </outline>
</glyph>
<glyph name="g" format="2">
  <advance width="497"/>
  <unicode hex="0067"/>
  <anchor x="360" y="645" name="above"/>
  <anchor x="217" y="-319" name="below"/>
  <anchor x="330" y="550" name="top_punkt"/>
  <outline>
    <contour>
      <point x="171" y="-13" type="line"/>
      <point x="146" y="-31"/>
      <point x="94" y="-65"/>
      <point x="94" y="-113" type="curve" smooth="yes"/>
      <point x="94" y="-168"/>
      <point x="138" y="-200"/>
      <point x="250" y="-200" type="curve" smooth="yes"/>
      <point x="335" y="-200"/>
      <point x="352" y="-157"/>
      <point x="352" y="-127" type="curve" smooth="yes"/>
      <point x="352" y="-99"/>
      <point x="348" y="-90"/>
      <point x="292" y="-64" type="curve" smooth="yes"/>
      <point x="259" y="-49"/>
      <point x="189" y="-17"/>
      <point x="171" y="-13" type="curve"/>
    </contour>
    <contour>
      <point x="445" y="291" type="line" smooth="yes"/>
      <point x="445" y="192"/>
      <point x="360" y="132"/>
      <point x="273" y="132" type="curve" smooth="yes"/>
      <point x="245" y="132"/>
      <point x="221" y="139"/>
      <point x="205" y="149" type="curve"/>
      <point x="196" y="132"/>
      <point x="196" y="107"/>
      <point x="202" y="88" type="curve" smooth="yes"/>
      <point x="209" y="66"/>
      <point x="255" y="48"/>
      <point x="335" y="24" type="curve" smooth="yes"/>
      <point x="389" y="8"/>
      <point x="457" y="-35"/>
      <point x="457" y="-100" type="curve" smooth="yes"/>
      <point x="457" y="-199"/>
      <point x="346" y="-238"/>
      <point x="209" y="-238" type="curve" smooth="yes"/>
      <point x="128" y="-238"/>
      <point x="-3" y="-217"/>
      <point x="-3" y="-136" type="curve" smooth="yes"/>
      <point x="-3" y="-76"/>
      <point x="89" y="-31"/>
      <point x="142" y="-2" type="curve"/>
      <point x="111" y="9"/>
      <point x="106" y="39"/>
      <point x="106" y="56" type="curve" smooth="yes"/>
      <point x="106" y="91"/>
      <point x="122" y="132"/>
      <point x="170" y="165" type="curve"/>
      <point x="132" y="188"/>
      <point x="114" y="239"/>
      <point x="114" y="283" type="curve" smooth="yes"/>
      <point x="114" y="363"/>
      <point x="178" y="439"/>
      <point x="290" y="439" type="curve" smooth="yes"/>
      <point x="334" y="439"/>
      <point x="385" y="428"/>
      <point x="407" y="402" type="curve"/>
      <point x="442" y="434"/>
      <point x="475" y="446"/>
      <point x="507" y="446" type="curve" smooth="yes"/>
      <point x="534" y="446"/>
      <point x="553" y="426"/>
      <point x="553" y="405" type="curve" smooth="yes"/>
      <point x="553" y="382"/>
      <point x="538" y="365"/>
      <point x="516" y="365" type="curve" smooth="yes"/>
      <point x="497" y="365"/>
      <point x="489" y="376"/>
      <point x="483" y="386" type="curve" smooth="yes"/>
      <point x="479" y="392"/>
      <point x="475" y="398"/>
      <point x="465" y="398" type="curve" smooth="yes"/>
      <point x="456" y="398"/>
      <point x="442" y="383"/>
      <point x="427" y="369" type="curve"/>
      <point x="441" y="349"/>
      <point x="445" y="318"/>
      <point x="445" y="291" type="curve" smooth="yes"/>
    </contour>
    <contour>
      <point x="331" y="291" type="line" smooth="yes"/>
      <point x="331" y="359"/>
      <point x="329" y="399"/>
      <point x="286" y="399" type="curve" smooth="yes"/>
      <point x="220" y="399"/>
      <point x="228" y="354"/>
      <point x="228" y="282" type="curve" smooth="yes"/>
      <point x="228" y="234"/>
      <point x="217" y="172"/>
      <point x="278" y="172" type="curve" smooth="yes"/>
      <point x="338" y="172"/>
      <point x="331" y="229"/>
      <point x="331" y="291" type="curve" smooth="yes"/>
    </contour>
  </outline>
</glyph>
<glyph name="h" format="2">
  <advance width="620"/>
  <unicode hex="0068"/>
  <anchor x="134.0" y="9.0" name="cedilla"/>
  <anchor x="290.0" y="-111.0" name="below"/>
  <anchor x="427.0" y="10.0" name="ogonek"/>
  <anchor x="415.0" y="645.0" name="above"/>
  <outline>
    <contour>
      <point x="225.9" y="72.0" type="line" smooth="yes"/>
      <point x="217.3" y="33.0"/>
      <point x="218.0" y="-10.0"/>
      <point x="157.0" y="-10.0" type="curve" smooth="yes"/>
      <point x="101.0" y="-10.0"/>
      <point x="91.1" y="0.5"/>
      <point x="91.1" y="17.2" type="curve" smooth="yes"/>
      <point x="91.1" y="27.0"/>
      <point x="98.5" y="48.3"/>
      <point x="103.8" y="72.0" type="curve" smooth="yes"/>
      <point x="214.0" y="563.0" type="line" smooth="yes"/>
      <point x="229.5" y="632.1"/>
      <point x="214.0" y="638.0"/>
      <point x="152.0" y="638.0" type="curve"/>
      <point x="149.0" y="647.0"/>
      <point x="151.0" y="660.0"/>
      <point x="157.0" y="672.0" type="curve"/>
      <point x="200.0" y="679.0"/>
      <point x="292.0" y="698.0"/>
      <point x="323.0" y="698.0" type="curve" smooth="yes"/>
      <point x="346.0" y="698.0"/>
      <point x="353.0" y="686.0"/>
      <point x="353.0" y="665.0" type="curve" smooth="yes"/>
      <point x="353.0" y="645.0"/>
      <point x="345.0" y="616.0"/>
      <point x="338.0" y="583.0" type="curve" smooth="yes"/>
      <point x="279.8" y="317.9" type="line"/>
      <point x="368.3" y="419.0"/>
      <point x="432.3" y="439.0"/>
      <point x="483.0" y="439.0" type="curve" smooth="yes"/>
      <point x="522.0" y="439.0"/>
      <point x="572.0" y="419.0"/>
      <point x="572.0" y="359.0" type="curve" smooth="yes"/>
      <point x="572.0" y="341.0"/>
      <point x="567.3" y="317.9"/>
      <point x="559.0" y="283.0" type="curve" smooth="yes"/>
      <point x="521.0" y="124.0" type="line" smooth="yes"/>
      <point x="514.7" y="98.4"/>
      <point x="507.7" y="63.0"/>
      <point x="525.0" y="63.0" type="curve" smooth="yes"/>
      <point x="535.0" y="63.0"/>
      <point x="569.0" y="80.0"/>
      <point x="595.0" y="110.0" type="curve"/>
      <point x="609.0" y="110.0"/>
      <point x="621.0" y="91.0"/>
      <point x="624.0" y="82.0" type="curve"/>
      <point x="578.0" y="23.0"/>
      <point x="508.5" y="-10.0"/>
      <point x="439.0" y="-10.0" type="curve" smooth="yes"/>
      <point x="409.0" y="-10.0"/>
      <point x="397.5" y="2.5"/>
      <point x="390.0" y="23.0" type="curve" smooth="yes"/>
      <point x="383.5" y="40.8"/>
      <point x="389.2" y="83.2"/>
      <point x="397.0" y="115.0" type="curve" smooth="yes"/>
      <point x="434.0" y="275.0" type="line" smooth="yes"/>
      <point x="441.9" y="309.0"/>
      <point x="443.0" y="319.0"/>
      <point x="443.0" y="333.0" type="curve" smooth="yes"/>
      <point x="443.0" y="364.0"/>
      <point x="429.0" y="369.0"/>
      <point x="408.0" y="369.0" type="curve" smooth="yes"/>
      <point x="372.6" y="369.0"/>
      <point x="322.6" y="311.8"/>
      <point x="260.9" y="231.8" type="curve"/>
    </contour>
  </outline>
</glyph>
<glyph name="k" format="2">
  <advance width="560"/>
  <unicode hex="006B"/>
  <anchor x="280.0" y="-107.0" name="below"/>
  <anchor x="182.0" y="9.0" name="cedilla"/>
  <anchor x="462.0" y="646.0" name="above"/>
  <outline>
    <contour>
      <point x="220.9" y="72.0" type="line" smooth="yes"/>
      <point x="212.3" y="33.0"/>
      <point x="213.0" y="-10.0"/>
      <point x="152.0" y="-10.0" type="curve" smooth="yes"/>
      <point x="96.0" y="-10.0"/>
      <point x="86.1" y="0.5"/>
      <point x="86.1" y="17.2" type="curve" smooth="yes"/>
      <point x="86.1" y="27.0"/>
      <point x="93.5" y="48.3"/>
      <point x="98.8" y="72.0" type="curve" smooth="yes"/>
      <point x="209.0" y="563.0" type="line" smooth="yes"/>
      <point x="224.5" y="632.1"/>
      <point x="209.0" y="638.0"/>
      <point x="147.0" y="638.0" type="curve"/>
      <point x="144.0" y="647.0"/>
      <point x="146.0" y="660.0"/>
      <point x="152.0" y="672.0" type="curve"/>
      <point x="195.0" y="679.0"/>
      <point x="287.0" y="698.0"/>
      <point x="318.0" y="698.0" type="curve" smooth="yes"/>
      <point x="341.0" y="698.0"/>
      <point x="348.0" y="686.0"/>
      <point x="348.0" y="665.0" type="curve" smooth="yes"/>
      <point x="348.0" y="645.0"/>
      <point x="340.0" y="616.0"/>
      <point x="333.0" y="583.0" type="curve" smooth="yes"/>
      <point x="264.9" y="272.7" type="line"/>
      <point x="283.2" y="276.0"/>
      <point x="301.1" y="289.9"/>
      <point x="316.0" y="302.7" type="curve" smooth="yes"/>
      <point x="356.0" y="337.0" type="line"/>
      <point x="428.0" y="401.0"/>
      <point x="499.0" y="439.0"/>
      <point x="531.0" y="439.0" type="curve" smooth="yes"/>
      <point x="575.4" y="439.0"/>
      <point x="596.0" y="406.3"/>
      <point x="596.0" y="380.1" type="curve" smooth="yes"/>
      <point x="596.0" y="346.3"/>
      <point x="574.4" y="310.1"/>
      <point x="542.0" y="310.1" type="curve" smooth="yes"/>
      <point x="525.2" y="310.1"/>
      <point x="509.6" y="326.4"/>
      <point x="501.2" y="336.4" type="curve" smooth="yes"/>
      <point x="494.0" y="345.2"/>
      <point x="488.0" y="351.4"/>
      <point x="476.0" y="351.4" type="curve" smooth="yes"/>
      <point x="456.0" y="351.4"/>
      <point x="432.1" y="344.4"/>
      <point x="400.0" y="316.0" type="curve" smooth="yes"/>
      <point x="348.0" y="270.0" type="line"/>
      <point x="349.0" y="266.0" type="line"/>
      <point x="382.0" y="257.0"/>
      <point x="399.3" y="233.4"/>
      <point x="415.0" y="202.0" type="curve" smooth="yes"/>
      <point x="429.0" y="174.0"/>
      <point x="438.0" y="146.0"/>
      <point x="456.0" y="90.0" type="curve" smooth="yes"/>
      <point x="463.0" y="68.2"/>
      <point x="469.4" y="52.0"/>
      <point x="488.5" y="52.0" type="curve" smooth="yes"/>
      <point x="499.5" y="52.0"/>
      <point x="520.0" y="65.0"/>
      <point x="540.0" y="94.0" type="curve"/>
      <point x="551.0" y="94.0"/>
      <point x="563.0" y="85.0"/>
      <point x="570.0" y="77.0" type="curve"/>
      <point x="540.0" y="15.5"/>
      <point x="484.0" y="-10.0"/>
      <point x="433.0" y="-10.0" type="curve" smooth="yes"/>
      <point x="392.0" y="-10.0"/>
      <point x="367.0" y="21.0"/>
      <point x="334.4" y="93.0" type="curve" smooth="yes"/>
      <point x="314.0" y="138.2"/>
      <point x="309.0" y="189.0"/>
      <point x="291.0" y="221.0" type="curve" smooth="yes"/>
      <point x="286.0" y="230.0"/>
      <point x="279.0" y="237.3"/>
      <point x="271.4" y="237.3" type="curve" smooth="yes"/>
      <point x="266.5" y="237.3"/>
      <point x="261.8" y="237.1"/>
      <point x="256.9" y="236.2" type="curve"/>
    </contour>
  </outline>
</glyph>
<glyph name="l" format="2">
  <advance width="324"/>
  <unicode hex="006C"/>
  <anchor x="115.0" y="-107.0" name="below"/>
  <anchor x="131.0" y="10.0" name="cedilla"/>
  <outline>
    <contour>
      <point x="208.0" y="563.0" type="line" smooth="yes"/>
      <point x="224.0" y="632.0"/>
      <point x="208.0" y="638.0"/>
      <point x="146.0" y="638.0" type="curve"/>
      <point x="143.0" y="647.0"/>
      <point x="145.0" y="660.0"/>
      <point x="151.0" y="672.0" type="curve"/>
      <point x="194.0" y="679.0"/>
      <point x="286.0" y="698.0"/>
      <point x="317.0" y="698.0" type="curve" smooth="yes"/>
      <point x="340.0" y="698.0"/>
      <point x="347.0" y="686.0"/>
      <point x="347.0" y="665.0" type="curve" smooth="yes"/>
      <point x="347.0" y="645.0"/>
      <point x="339.0" y="616.0"/>
      <point x="332.0" y="583.0" type="curve" smooth="yes"/>
      <point x="231.0" y="127.0" type="line" smooth="yes"/>
      <point x="227.9" y="113.2"/>
      <point x="224.4" y="96.6"/>
      <point x="224.4" y="84.2" type="curve" smooth="yes"/>
      <point x="224.4" y="73.5"/>
      <point x="227.0" y="66.0"/>
      <point x="235.0" y="66.0" type="curve" smooth="yes"/>
      <point x="245.1" y="66.0"/>
      <point x="279.0" y="83.0"/>
      <point x="305.0" y="113.0" type="curve"/>
      <point x="319.0" y="113.0"/>
      <point x="331.0" y="94.0"/>
      <point x="334.0" y="85.0" type="curve"/>
      <point x="284.0" y="30.0"/>
      <point x="217.5" y="-10.0"/>
      <point x="148.0" y="-10.0" type="curve" smooth="yes"/>
      <point x="112.1" y="-10.0"/>
      <point x="97.3" y="12.7"/>
      <point x="97.3" y="47.1" type="curve" smooth="yes"/>
      <point x="97.3" y="67.7"/>
      <point x="101.9" y="95.4"/>
      <point x="107.0" y="118.0" type="curve" smooth="yes"/>
    </contour>
  </outline>
</glyph>
<glyph name="m" format="2">
  <advance width="884"/>
  <unicode hex="006D"/>
  <anchor x="400.0" y="-105.0" name="below"/>
  <anchor x="157.0" y="9.0" name="cedilla"/>
  <anchor x="522.0" y="645.0" name="above"/>
  <outline>
    <contour>
      <point x="146.0" y="243.0" type="line" smooth="yes"/>
      <point x="160.7" y="308.8"/>
      <point x="161.0" y="341.1"/>
      <point x="161.0" y="352.0" type="curve" smooth="yes"/>
      <point x="161.0" y="363.7"/>
      <point x="157.4" y="380.9"/>
      <point x="143.0" y="382.0" type="curve" smooth="yes"/>
      <point x="103.0" y="385.0" type="line"/>
      <point x="97.0" y="394.0"/>
      <point x="98.3" y="415.0"/>
      <point x="105.0" y="423.0" type="curve"/>
      <point x="152.0" y="429.0"/>
      <point x="239.0" y="436.0"/>
      <point x="271.0" y="436.0" type="curve" smooth="yes"/>
      <point x="284.2" y="436.0"/>
      <point x="294.5" y="425.6"/>
      <point x="294.5" y="411.9" type="curve" smooth="yes"/>
      <point x="294.5" y="394.6"/>
      <point x="291.0" y="353.3"/>
      <point x="282.0" y="311.0" type="curve"/>
      <point x="283.0" y="310.0" type="line"/>
      <point x="375.0" y="418.0"/>
      <point x="421.0" y="439.0"/>
      <point x="473.0" y="439.0" type="curve" smooth="yes"/>
      <point x="512.0" y="439.0"/>
      <point x="562.0" y="419.0"/>
      <point x="562.0" y="359.0" type="curve" smooth="yes"/>
      <point x="562.0" y="353.4"/>
      <point x="561.5" y="347.4"/>
      <point x="560.6" y="340.6" type="curve"/>
      <point x="634.2" y="422.1"/>
      <point x="698.3" y="439.0"/>
      <point x="745.0" y="439.0" type="curve" smooth="yes"/>
      <point x="784.0" y="439.0"/>
      <point x="834.0" y="419.0"/>
      <point x="834.0" y="359.0" type="curve" smooth="yes"/>
      <point x="834.0" y="341.0"/>
      <point x="829.3" y="317.9"/>
      <point x="821.0" y="283.0" type="curve" smooth="yes"/>
      <point x="783.0" y="124.0" type="line" smooth="yes"/>
      <point x="776.7" y="98.4"/>
      <point x="769.7" y="63.0"/>
      <point x="787.0" y="63.0" type="curve" smooth="yes"/>
      <point x="797.0" y="63.0"/>
      <point x="831.0" y="80.0"/>
      <point x="857.0" y="110.0" type="curve"/>
      <point x="871.0" y="110.0"/>
      <point x="883.0" y="91.0"/>
      <point x="886.0" y="82.0" type="curve"/>
      <point x="840.0" y="23.0"/>
      <point x="770.5" y="-10.0"/>
      <point x="701.0" y="-10.0" type="curve" smooth="yes"/>
      <point x="671.0" y="-10.0"/>
      <point x="659.5" y="2.5"/>
      <point x="652.0" y="23.0" type="curve" smooth="yes"/>
      <point x="645.5" y="40.8"/>
      <point x="651.2" y="83.2"/>
      <point x="659.0" y="115.0" type="curve" smooth="yes"/>
      <point x="696.0" y="275.0" type="line" smooth="yes"/>
      <point x="703.9" y="309.0"/>
      <point x="705.0" y="319.0"/>
      <point x="705.0" y="333.0" type="curve" smooth="yes"/>
      <point x="705.0" y="364.0"/>
      <point x="690.7" y="369.0"/>
      <point x="680.0" y="369.0" type="curve" smooth="yes"/>
      <point x="639.2" y="369.0"/>
      <point x="595.7" y="324.0"/>
      <point x="543.3" y="257.9" type="curve"/>
      <point x="500.8" y="72.0" type="line" smooth="yes"/>
      <point x="492.1" y="34.0"/>
      <point x="493.0" y="-10.0"/>
      <point x="432.0" y="-10.0" type="curve" smooth="yes"/>
      <point x="376.0" y="-10.0"/>
      <point x="366.1" y="0.5"/>
      <point x="366.1" y="17.2" type="curve" smooth="yes"/>
      <point x="366.1" y="27.0"/>
      <point x="374.3" y="51.9"/>
      <point x="378.8" y="72.0" type="curve" smooth="yes"/>
      <point x="424.0" y="275.0" type="line" smooth="yes"/>
      <point x="431.6" y="309.1"/>
      <point x="433.0" y="324.3"/>
      <point x="433.0" y="343.0" type="curve" smooth="yes"/>
      <point x="433.0" y="364.3"/>
      <point x="424.0" y="369.0"/>
      <point x="413.0" y="369.0" type="curve" smooth="yes"/>
      <point x="377.0" y="369.0"/>
      <point x="331.0" y="310.0"/>
      <point x="268.0" y="228.0" type="curve"/>
      <point x="229.9" y="72.0" type="line" smooth="yes"/>
      <point x="220.6" y="34.1"/>
      <point x="222.0" y="-10.0"/>
      <point x="161.0" y="-10.0" type="curve" smooth="yes"/>
      <point x="105.0" y="-10.0"/>
      <point x="95.1" y="0.5"/>
      <point x="95.1" y="17.2" type="curve" smooth="yes"/>
      <point x="95.1" y="27.0"/>
      <point x="103.3" y="51.9"/>
      <point x="107.8" y="72.0" type="curve" smooth="yes"/>
    </contour>
  </outline>
</glyph>
<glyph name="n" format="2">
  <advance width="614"/>
  <unicode hex="006E"/>
  <anchor x="235.0" y="-111.0" name="below"/>
  <anchor x="128.0" y="9.0" name="cedilla"/>
  <anchor x="394.0" y="646.0" name="above"/>
  <outline>
    <contour>
      <point x="140.0" y="243.0" type="line" smooth="yes"/>
      <point x="154.7" y="308.8"/>
      <point x="155.0" y="341.1"/>
      <point x="155.0" y="352.0" type="curve" smooth="yes"/>
      <point x="155.0" y="363.7"/>
      <point x="151.4" y="380.9"/>
      <point x="137.0" y="382.0" type="curve" smooth="yes"/>
      <point x="97.0" y="385.0" type="line"/>
      <point x="91.0" y="394.0"/>
      <point x="92.3" y="415.0"/>
      <point x="99.0" y="423.0" type="curve"/>
      <point x="146.0" y="429.0"/>
      <point x="233.0" y="436.0"/>
      <point x="265.0" y="436.0" type="curve" smooth="yes"/>
      <point x="278.2" y="436.0"/>
      <point x="288.5" y="425.6"/>
      <point x="288.5" y="411.9" type="curve" smooth="yes"/>
      <point x="288.5" y="394.6"/>
      <point x="285.0" y="353.3"/>
      <point x="276.0" y="311.0" type="curve"/>
      <point x="278.0" y="309.0" type="line"/>
      <point x="370.0" y="417.0"/>
      <point x="423.3" y="439.0"/>
      <point x="487.0" y="439.0" type="curve" smooth="yes"/>
      <point x="526.0" y="439.0"/>
      <point x="576.0" y="419.0"/>
      <point x="576.0" y="359.0" type="curve" smooth="yes"/>
      <point x="576.0" y="341.0"/>
      <point x="571.3" y="317.9"/>
      <point x="563.0" y="283.0" type="curve" smooth="yes"/>
      <point x="525.0" y="124.0" type="line" smooth="yes"/>
      <point x="518.7" y="98.4"/>
      <point x="511.7" y="63.0"/>
      <point x="529.0" y="63.0" type="curve" smooth="yes"/>
      <point x="539.0" y="63.0"/>
      <point x="573.0" y="80.0"/>
      <point x="599.0" y="110.0" type="curve"/>
      <point x="613.0" y="110.0"/>
      <point x="625.0" y="91.0"/>
      <point x="628.0" y="82.0" type="curve"/>
      <point x="582.0" y="23.0"/>
      <point x="512.5" y="-10.0"/>
      <point x="443.0" y="-10.0" type="curve" smooth="yes"/>
      <point x="413.0" y="-10.0"/>
      <point x="401.5" y="2.5"/>
      <point x="394.0" y="23.0" type="curve" smooth="yes"/>
      <point x="387.5" y="40.8"/>
      <point x="393.2" y="83.2"/>
      <point x="401.0" y="115.0" type="curve" smooth="yes"/>
      <point x="438.0" y="275.0" type="line" smooth="yes"/>
      <point x="445.9" y="309.0"/>
      <point x="447.0" y="319.0"/>
      <point x="447.0" y="333.0" type="curve" smooth="yes"/>
      <point x="447.0" y="364.0"/>
      <point x="433.0" y="369.0"/>
      <point x="412.0" y="369.0" type="curve" smooth="yes"/>
      <point x="376.0" y="369.0"/>
      <point x="325.0" y="310.0"/>
      <point x="262.0" y="228.0" type="curve"/>
      <point x="223.9" y="72.0" type="line" smooth="yes"/>
      <point x="214.4" y="33.2"/>
      <point x="216.0" y="-10.0"/>
      <point x="155.0" y="-10.0" type="curve" smooth="yes"/>
      <point x="99.0" y="-10.0"/>
      <point x="89.1" y="0.5"/>
      <point x="89.1" y="17.2" type="curve" smooth="yes"/>
      <point x="89.1" y="27.0"/>
      <point x="97.4" y="52.1"/>
      <point x="101.8" y="72.0" type="curve" smooth="yes"/>
    </contour>
  </outline>
</glyph>
<glyph name="o" format="2">
  <advance width="479"/>
  <unicode hex="006F"/>
  <anchor x="185.2" y="-107.0" name="below"/>
  <anchor x="229.4" y="-3.0" name="cedilla"/>
  <anchor x="370.0" y="44.0" name="ogonek"/>
  <anchor x="358.2" y="645.0" name="above"/>
  <anchor x="489.6" y="396.0" name="komb_OR"/>
  <outline>
    <contour>
      <point x="196.0" y="170.0" type="curve" smooth="yes"/>
      <point x="196.0" y="58.1"/>
      <point x="226.0" y="32.0"/>
      <point x="255.0" y="32.0" type="curve" smooth="yes"/>
      <point x="359.2" y="32.0"/>
      <point x="371.0" y="177.4"/>
      <point x="371.0" y="260.0" type="curve" smooth="yes"/>
      <point x="371.0" y="318.1"/>
      <point x="368.0" y="397.0"/>
      <point x="315.0" y="397.0" type="curve" smooth="yes"/>
      <point x="213.9" y="397.0"/>
      <point x="196.0" y="270.0"/>
    </contour>
    <contour>
      <point x="67.0" y="162.0" type="curve" smooth="yes"/>
      <point x="67.0" y="248.8"/>
      <point x="122.7" y="352.9"/>
      <point x="216.5" y="405.0" type="curve" smooth="yes"/>
      <point x="252.4" y="425.0"/>
      <point x="293.8" y="439.0"/>
      <point x="340.0" y="439.0" type="curve" smooth="yes"/>
      <point x="463.0" y="439.0"/>
      <point x="500.0" y="353.0"/>
      <point x="500.0" y="281.0" type="curve" smooth="yes"/>
      <point x="500.0" y="145.9"/>
      <point x="427.6" y="57.9"/>
      <point x="340.5" y="14.0" type="curve" smooth="yes"/>
      <point x="311.1" y="-0.8"/>
      <point x="260.5" y="-10.0"/>
      <point x="220.0" y="-10.0" type="curve" smooth="yes"/>
      <point x="93.0" y="-10.0"/>
      <point x="67.0" y="98.0"/>
    </contour>
  </outline>
</glyph>
<glyph name="q" format="2">
  <advance width="531"/>
  <unicode hex="0071"/>
  <anchor x="172.0" y="-110.0" name="below"/>
  <anchor x="372.2" y="645.0" name="above"/>
  <outline>
    <contour>
      <point x="405.0" y="320.0" type="curve" smooth="yes"/>
      <point x="405.0" y="361.0"/>
      <point x="380.0" y="393.0"/>
      <point x="344.0" y="393.0" type="curve" smooth="yes"/>
      <point x="242.0" y="393.0"/>
      <point x="193.0" y="276.5"/>
      <point x="193.0" y="128.0" type="curve" smooth="yes"/>
      <point x="193.0" y="72.0"/>
      <point x="214.2" y="44.0"/>
      <point x="238.0" y="44.0" type="curve" smooth="yes"/>
      <point x="275.0" y="44.0"/>
      <point x="347.0" y="115.0"/>
      <point x="370.0" y="180.0" type="curve" smooth="yes"/>
      <point x="389.0" y="236.0"/>
      <point x="405.0" y="304.0"/>
    </contour>
    <contour>
      <point x="298.0" y="-161.0" type="curve" smooth="yes"/>
      <point x="364.0" y="99.0" type="line"/>
      <point x="361.0" y="100.0" type="line"/>
      <point x="299.0" y="14.0"/>
      <point x="250.0" y="-10.0"/>
      <point x="201.0" y="-10.0" type="curve" smooth="yes"/>
      <point x="107.0" y="-10.0"/>
      <point x="64.0" y="72.0"/>
      <point x="64.0" y="147.0" type="curve" smooth="yes"/>
      <point x="64.0" y="247.4"/>
      <point x="117.9" y="336.1"/>
      <point x="188.0" y="387.5" type="curve" smooth="yes"/>
      <point x="238.0" y="424.2"/>
      <point x="298.9" y="439.0"/>
      <point x="343.0" y="439.0" type="curve" smooth="yes"/>
      <point x="384.0" y="439.0"/>
      <point x="416.0" y="418.0"/>
      <point x="439.0" y="386.0" type="curve"/>
      <point x="476.5" y="419.5" type="line" smooth="yes"/>
      <point x="494.6" y="435.7"/>
      <point x="520.0" y="442.0"/>
      <point x="527.0" y="442.0" type="curve" smooth="yes"/>
      <point x="556.1" y="442.0"/>
      <point x="551.5" y="418.7"/>
      <point x="543.5" y="384.0" type="curve" smooth="yes"/>
      <point x="417.0" y="-161.0" type="line" smooth="yes"/>
      <point x="409.1" y="-194.9"/>
      <point x="434.8" y="-199.6"/>
      <point x="450.0" y="-202.0" type="curve" smooth="yes"/>
      <point x="469.0" y="-205.0" type="line" smooth="yes"/>
      <point x="473.0" y="-205.6"/>
      <point x="475.0" y="-208.0"/>
      <point x="475.0" y="-213.0" type="curve" smooth="yes"/>
      <point x="475.0" y="-233.0" type="line"/>
      <point x="473.0" y="-235.0" type="line"/>
      <point x="473.0" y="-235.0"/>
      <point x="362.0" y="-233.0"/>
      <point x="323.0" y="-233.0" type="curve" smooth="yes"/>
      <point x="287.0" y="-233.0"/>
      <point x="218.0" y="-238.0"/>
      <point x="218.0" y="-238.0" type="curve"/>
      <point x="216.0" y="-236.0" type="line"/>
      <point x="216.0" y="-217.0" type="line" smooth="yes"/>
      <point x="216.0" y="-211.0"/>
      <point x="221.1" y="-209.8"/>
      <point x="226.0" y="-209.0" type="curve" smooth="yes"/>
      <point x="245.0" y="-206.0" type="line" smooth="yes"/>
      <point x="277.3" y="-200.9"/>
      <point x="291.0" y="-188.8"/>
    </contour>
  </outline>
</glyph>
<glyph name="r" format="2">
  <advance width="426"/>
  <unicode hex="0072"/>
  <anchor x="121.0" y="-110.0" name="below"/>
  <anchor x="142.0" y="7.0" name="cedilla"/>
  <anchor x="320.4" y="646.0" name="above"/>
  <outline>
    <contour>
      <point x="270.0" y="228.0" type="curve"/>
      <point x="231.9" y="72.0" type="line" smooth="yes"/>
      <point x="222.4" y="33.2"/>
      <point x="224.0" y="-10.0"/>
      <point x="163.0" y="-10.0" type="curve" smooth="yes"/>
      <point x="107.0" y="-10.0"/>
      <point x="97.1" y="0.5"/>
      <point x="97.1" y="17.2" type="curve" smooth="yes"/>
      <point x="97.1" y="27.0"/>
      <point x="105.5" y="52.1"/>
      <point x="109.8" y="72.0" type="curve" smooth="yes"/>
      <point x="147.0" y="243.0" type="line" smooth="yes"/>
      <point x="161.3" y="308.9"/>
      <point x="162.0" y="341.1"/>
      <point x="162.0" y="352.0" type="curve" smooth="yes"/>
      <point x="162.0" y="363.7"/>
      <point x="158.4" y="380.9"/>
      <point x="144.0" y="382.0" type="curve" smooth="yes"/>
      <point x="104.0" y="385.0" type="line"/>
      <point x="98.0" y="394.0"/>
      <point x="99.3" y="415.0"/>
      <point x="106.0" y="423.0" type="curve"/>
      <point x="153.0" y="429.0"/>
      <point x="240.0" y="436.0"/>
      <point x="272.0" y="436.0" type="curve" smooth="yes"/>
      <point x="285.2" y="436.0"/>
      <point x="295.5" y="425.6"/>
      <point x="295.5" y="411.9" type="curve" smooth="yes"/>
      <point x="295.5" y="394.4"/>
      <point x="292.0" y="353.3"/>
      <point x="283.0" y="311.0" type="curve"/>
      <point x="286.0" y="309.0" type="line"/>
      <point x="330.0" y="402.0"/>
      <point x="386.6" y="438.9"/>
      <point x="431.6" y="438.9" type="curve" smooth="yes"/>
      <point x="476.0" y="438.9"/>
      <point x="494.0" y="406.3"/>
      <point x="494.0" y="380.1" type="curve" smooth="yes"/>
      <point x="494.0" y="346.3"/>
      <point x="472.4" y="310.1"/>
      <point x="440.0" y="310.1" type="curve" smooth="yes"/>
      <point x="423.2" y="310.1"/>
      <point x="407.6" y="326.4"/>
      <point x="399.2" y="336.4" type="curve" smooth="yes"/>
      <point x="392.0" y="345.2"/>
      <point x="386.0" y="351.4"/>
      <point x="374.0" y="351.4" type="curve" smooth="yes"/>
      <point x="346.4" y="351.4"/>
      <point x="318.0" y="315.0"/>
    </contour>
  </outline>
</glyph>
<glyph name="s" format="2">
  <advance width="417"/>
  <unicode hex="0073"/>
  <anchor x="196.0" y="-110.0" name="below"/>
  <anchor x="194.0" y="1.0" name="cedilla"/>
  <anchor x="290.0" y="13.0" name="ogonek"/>
  <anchor x="206.0" y="645.0" name="above"/>
  <anchor x="366.0" y="580.0" name="right"/>
  <outline>
    <contour>
      <point x="426.0" y="355.0" type="curve" smooth="yes"/>
      <point x="430.0" y="323.0"/>
      <point x="403.0" y="304.0"/>
      <point x="389.0" y="300.0" type="curve" smooth="yes"/>
      <point x="367.0" y="294.0"/>
      <point x="344.0" y="302.0"/>
      <point x="336.0" y="322.0" type="curve" smooth="yes"/>
      <point x="323.0" y="356.0"/>
      <point x="313.0" y="397.0"/>
      <point x="270.0" y="397.0" type="curve" smooth="yes"/>
      <point x="242.0" y="397.0"/>
      <point x="216.0" y="377.0"/>
      <point x="216.0" y="353.0" type="curve" smooth="yes"/>
      <point x="216.0" y="302.0"/>
      <point x="266.0" y="276.0"/>
      <point x="292.0" y="262.0" type="curve" smooth="yes"/>
      <point x="366.0" y="223.0"/>
      <point x="405.0" y="177.0"/>
      <point x="405.0" y="130.0" type="curve" smooth="yes"/>
      <point x="405.0" y="66.6"/>
      <point x="353.0" y="-10.0"/>
      <point x="227.0" y="-10.0" type="curve" smooth="yes"/>
      <point x="147.0" y="-10.0"/>
      <point x="65.0" y="19.0"/>
      <point x="65.0" y="87.0" type="curve" smooth="yes"/>
      <point x="65.0" y="119.0"/>
      <point x="92.0" y="138.0"/>
      <point x="108.0" y="138.0" type="curve" smooth="yes"/>
      <point x="138.0" y="138.0"/>
      <point x="157.0" y="115.0"/>
      <point x="172.0" y="80.0" type="curve" smooth="yes"/>
      <point x="187.0" y="46.0"/>
      <point x="217.0" y="32.0"/>
      <point x="248.0" y="32.0" type="curve" smooth="yes"/>
      <point x="272.0" y="32.0"/>
      <point x="300.0" y="54.0"/>
      <point x="300.0" y="81.0" type="curve" smooth="yes"/>
      <point x="300.0" y="128.0"/>
      <point x="278.0" y="157.0"/>
      <point x="236.0" y="181.0" type="curve" smooth="yes"/>
      <point x="170.0" y="219.0"/>
      <point x="122.0" y="268.0"/>
      <point x="122.0" y="311.0" type="curve" smooth="yes"/>
      <point x="122.0" y="417.0"/>
      <point x="228.0" y="439.0"/>
      <point x="297.0" y="439.0" type="curve" smooth="yes"/>
      <point x="359.0" y="439.0"/>
      <point x="421.0" y="404.0"/>
    </contour>
  </outline>
</glyph>
<glyph name="v" format="2">
  <advance width="507"/>
  <unicode hex="0076"/>
  <anchor x="261" y="646" name="above"/>
  <anchor x="246" y="-110" name="below"/>
  <anchor x="465" y="580" name="right"/>
  <outline>
    <contour>
      <point x="332" y="108" type="line"/>
      <point x="336" y="106" type="line"/>
      <point x="400" y="156"/>
      <point x="452" y="254"/>
      <point x="460" y="314" type="curve" smooth="yes"/>
      <point x="462" y="332"/>
      <point x="457" y="356"/>
      <point x="439" y="382" type="curve" smooth="yes"/>
      <point x="436" y="387"/>
      <point x="434" y="398"/>
      <point x="434" y="403" type="curve" smooth="yes"/>
      <point x="434" y="431"/>
      <point x="461" y="439"/>
      <point x="494" y="439" type="curve" smooth="yes"/>
      <point x="530" y="439"/>
      <point x="554" y="420"/>
      <point x="554" y="392" type="curve" smooth="yes"/>
      <point x="554" y="356"/>
      <point x="542" y="320"/>
      <point x="527" y="285" type="curve" smooth="yes"/>
      <point x="499" y="219"/>
      <point x="452" y="156"/>
      <point x="430" y="128" type="curve" smooth="yes"/>
      <point x="405" y="97"/>
      <point x="310" y="-12"/>
      <point x="264" y="-12" type="curve" smooth="yes"/>
      <point x="237" y="-12"/>
      <point x="229" y="22"/>
      <point x="224" y="58" type="curve" smooth="yes"/>
      <point x="193" y="296" type="line" smooth="yes"/>
      <point x="187" y="339"/>
      <point x="181" y="347"/>
      <point x="175" y="347" type="curve" smooth="yes"/>
      <point x="166" y="347"/>
      <point x="137" y="330"/>
      <point x="112" y="298" type="curve"/>
      <point x="94" y="302"/>
      <point x="85" y="312"/>
      <point x="80" y="326" type="curve"/>
      <point x="130" y="386"/>
      <point x="209" y="439"/>
      <point x="251" y="439" type="curve" smooth="yes"/>
      <point x="296" y="439"/>
      <point x="310" y="368"/>
      <point x="315" y="309" type="curve" smooth="yes"/>
    </contour>
  </outline>
</glyph>
<glyph name="w" format="2">
  <advance width="729"/>
  <unicode hex="0077"/>
  <anchor x="372.0" y="-110.0" name="below"/>
  <anchor x="365.0" y="646.0" name="above"/>
  <anchor x="739.0" y="580.0" name="right"/>
  <outline>
    <contour>
      <point x="441.2" y="217.7" type="line"/>
      <point x="438.2" y="218.7" type="line"/>
      <point x="386.6" y="122.5"/>
      <point x="296.6" y="-13.2"/>
      <point x="250.0" y="-12.0" type="curve" smooth="yes"/>
      <point x="223.0" y="-12.0"/>
      <point x="213.2" y="22.4"/>
      <point x="210.0" y="58.3" type="curve" smooth="yes"/>
      <point x="189.0" y="296.0" type="line" smooth="yes"/>
      <point x="185.0" y="341.4"/>
      <point x="177.3" y="347.0"/>
      <point x="171.0" y="347.0" type="curve" smooth="yes"/>
      <point x="162.5" y="347.0"/>
      <point x="133.0" y="329.5"/>
      <point x="108.0" y="298.0" type="curve"/>
      <point x="90.5" y="301.5"/>
      <point x="80.7" y="311.8"/>
      <point x="76.0" y="325.5" type="curve"/>
      <point x="126.0" y="385.5"/>
      <point x="205.0" y="439.0"/>
      <point x="247.0" y="439.0" type="curve" smooth="yes"/>
      <point x="291.5" y="439.0"/>
      <point x="307.9" y="368.5"/>
      <point x="311.0" y="309.0" type="curve" smooth="yes"/>
      <point x="320.0" y="138.5" type="line"/>
      <point x="324.0" y="136.5" type="line"/>
      <point x="354.4" y="165.5"/>
      <point x="406.6" y="247.5"/>
      <point x="450.0" y="346.0" type="curve"/>
      <point x="478.5" y="358.0"/>
      <point x="499.5" y="362.0"/>
      <point x="517.0" y="362.0" type="curve"/>
      <point x="536.4" y="313.5"/>
      <point x="565.4" y="180.5"/>
      <point x="578.5" y="107.5" type="curve"/>
      <point x="582.5" y="105.5" type="line"/>
      <point x="638.5" y="151.0"/>
      <point x="673.5" y="254.0"/>
      <point x="681.5" y="314.0" type="curve" smooth="yes"/>
      <point x="683.8" y="331.5"/>
      <point x="679.0" y="355.5"/>
      <point x="661.0" y="382.5" type="curve" smooth="yes"/>
      <point x="657.7" y="387.4"/>
      <point x="655.5" y="398.0"/>
      <point x="655.5" y="403.0" type="curve" smooth="yes"/>
      <point x="655.5" y="431.1"/>
      <point x="683.4" y="439.0"/>
      <point x="716.0" y="439.0" type="curve" smooth="yes"/>
      <point x="751.5" y="439.0"/>
      <point x="776.4" y="420.0"/>
      <point x="776.4" y="391.6" type="curve" smooth="yes"/>
      <point x="776.4" y="356.4"/>
      <point x="764.2" y="319.8"/>
      <point x="749.3" y="285.0" type="curve" smooth="yes"/>
      <point x="721.1" y="218.9"/>
      <point x="686.3" y="159.4"/>
      <point x="664.5" y="128.5" type="curve" smooth="yes"/>
      <point x="641.3" y="95.6"/>
      <point x="557.6" y="-12.0"/>
      <point x="511.0" y="-12.0" type="curve" smooth="yes"/>
      <point x="484.5" y="-12.0"/>
      <point x="477.8" y="21.9"/>
      <point x="471.0" y="58.3" type="curve" smooth="yes"/>
    </contour>
  </outline>
</glyph>
<glyph name="x" format="2">
  <advance width="517"/>
  <unicode hex="0078"/>
  <outline>
    <contour>
      <point x="196" y="334" type="line" smooth="yes"/>
      <point x="192" y="345"/>
      <point x="180" y="350"/>
      <point x="168" y="350" type="curve" smooth="yes"/>
      <point x="147" y="350"/>
      <point x="124" y="340"/>
      <point x="112" y="334" type="curve"/>
      <point x="104" y="342"/>
      <point x="96" y="362"/>
      <point x="95" y="372" type="curve"/>
      <point x="131" y="394"/>
      <point x="224" y="439"/>
      <point x="259" y="439" type="curve" smooth="yes"/>
      <point x="284" y="439"/>
      <point x="291" y="423"/>
      <point x="310" y="372" type="curve" smooth="yes"/>
      <point x="336" y="299" type="line"/>
      <point x="344" y="311"/>
      <point x="360" y="333"/>
      <point x="360" y="333" type="curve"/>
      <point x="400" y="391"/>
      <point x="434" y="438"/>
      <point x="498" y="438" type="curve" smooth="yes"/>
      <point x="532" y="438"/>
      <point x="568" y="422"/>
      <point x="568" y="390" type="curve" smooth="yes"/>
      <point x="568" y="360"/>
      <point x="548" y="331"/>
      <point x="522" y="331" type="curve" smooth="yes"/>
      <point x="507" y="331"/>
      <point x="486" y="339"/>
      <point x="476" y="345" type="curve" smooth="yes"/>
      <point x="468" y="350"/>
      <point x="455" y="354"/>
      <point x="451" y="354" type="curve" smooth="yes"/>
      <point x="447" y="354"/>
      <point x="436" y="351"/>
      <point x="425" y="336" type="curve" smooth="yes"/>
      <point x="350" y="234" type="line"/>
      <point x="412" y="90" type="line" smooth="yes"/>
      <point x="419" y="74"/>
      <point x="426" y="66"/>
      <point x="434" y="66" type="curve" smooth="yes"/>
      <point x="449" y="66"/>
      <point x="464" y="68"/>
      <point x="488" y="92" type="curve"/>
      <point x="512" y="67" type="line"/>
      <point x="451" y="0"/>
      <point x="406" y="-10"/>
      <point x="364" y="-10" type="curve" smooth="yes"/>
      <point x="322" y="-10"/>
      <point x="306" y="26"/>
      <point x="290" y="76" type="curve" smooth="yes"/>
      <point x="271" y="134" type="line"/>
      <point x="253" y="107"/>
      <point x="230" y="76"/>
      <point x="216" y="60" type="curve" smooth="yes"/>
      <point x="162" y="-1"/>
      <point x="146" y="-10"/>
      <point x="97" y="-10" type="curve" smooth="yes"/>
      <point x="65" y="-10"/>
      <point x="26" y="9"/>
      <point x="26" y="44" type="curve" smooth="yes"/>
      <point x="26" y="72"/>
      <point x="38" y="92"/>
      <point x="74" y="92" type="curve" smooth="yes"/>
      <point x="112" y="92"/>
      <point x="135" y="66"/>
      <point x="150" y="66" type="curve" smooth="yes"/>
      <point x="156" y="66"/>
      <point x="166" y="73"/>
      <point x="180" y="92" type="curve" smooth="yes"/>
      <point x="204" y="124"/>
      <point x="234" y="161"/>
      <point x="254" y="196" type="curve"/>
      <point x="236" y="249"/>
      <point x="196" y="334"/>
      <point x="196" y="334" type="curve" smooth="yes"/>
    </contour>
  </outline>
</glyph>
<glyph name="y" format="2">
  <advance width="514"/>
  <unicode hex="0079"/>
  <anchor x="368.0" y="-107.0" name="below"/>
  <anchor x="367.0" y="644.0" name="above"/>
  <outline>
    <contour>
      <point x="191.0" y="338.0" type="curve" smooth="yes"/>
      <point x="183.5" y="348.5"/>
      <point x="179.5" y="350.5"/>
      <point x="166.5" y="350.5" type="curve" smooth="yes"/>
      <point x="146.0" y="350.5"/>
      <point x="120.0" y="338.5"/>
      <point x="108.0" y="332.8" type="curve"/>
      <point x="100.0" y="340.5"/>
      <point x="92.4" y="360.6"/>
      <point x="91.0" y="371.5" type="curve"/>
      <point x="127.0" y="392.5"/>
      <point x="223.0" y="439.0"/>
      <point x="258.0" y="439.0" type="curve" smooth="yes"/>
      <point x="283.0" y="439.0"/>
      <point x="296.0" y="418.0"/>
      <point x="310.0" y="365.0" type="curve"/>
      <point x="335.0" y="262.0"/>
      <point x="342.0" y="180.0"/>
      <point x="348.0" y="87.0" type="curve"/>
      <point x="352.0" y="86.0" type="line"/>
      <point x="433.5" y="222.0" type="line" smooth="yes"/>
      <point x="461.5" y="268.8"/>
      <point x="466.0" y="310.0"/>
      <point x="466.0" y="331.5" type="curve" smooth="yes"/>
      <point x="466.0" y="353.3"/>
      <point x="439.0" y="374.5"/>
      <point x="439.0" y="409.5" type="curve" smooth="yes"/>
      <point x="439.0" y="431.5"/>
      <point x="475.0" y="439.0"/>
      <point x="496.0" y="439.0" type="curve" smooth="yes"/>
      <point x="521.0" y="439.0"/>
      <point x="560.5" y="427.5"/>
      <point x="560.5" y="392.5" type="curve" smooth="yes"/>
      <point x="560.5" y="344.0"/>
      <point x="548.1" y="304.2"/>
      <point x="510.0" y="242.0" type="curve" smooth="yes"/>
      <point x="319.0" y="-70.0" type="line" smooth="yes"/>
      <point x="257.2" y="-170.9"/>
      <point x="169.6" y="-236.6"/>
      <point x="109.8" y="-236.6" type="curve" smooth="yes"/>
      <point x="90.2" y="-236.6"/>
      <point x="40.8" y="-225.0"/>
      <point x="40.8" y="-178.6" type="curve" smooth="yes"/>
      <point x="40.8" y="-135.0"/>
      <point x="69.0" y="-108.0"/>
      <point x="93.0" y="-108.0" type="curve" smooth="yes"/>
      <point x="102.2" y="-108.0"/>
      <point x="124.8" y="-119.2"/>
      <point x="132.8" y="-127.9" type="curve" smooth="yes"/>
      <point x="139.7" y="-135.1"/>
      <point x="164.5" y="-152.0"/>
      <point x="176.0" y="-152.0" type="curve" smooth="yes"/>
      <point x="192.1" y="-152.0"/>
      <point x="221.0" y="-129.0"/>
      <point x="262.0" y="-62.0" type="curve"/>
      <point x="276.0" y="-32.0"/>
      <point x="225.3" y="290.0"/>
    </contour>
  </outline>
</glyph>
<glyph name="z" format="2">
  <advance width="457"/>
  <unicode hex="007A"/>
  <outline>
    <contour>
      <point x="458" y="450" type="line"/>
      <point x="472" y="446"/>
      <point x="486" y="434"/>
      <point x="495" y="422" type="curve"/>
      <point x="435" y="358"/>
      <point x="265" y="182"/>
      <point x="202" y="116" type="curve"/>
      <point x="232" y="124"/>
      <point x="256" y="116"/>
      <point x="276" y="110" type="curve" smooth="yes"/>
      <point x="304" y="102"/>
      <point x="328" y="88"/>
      <point x="359" y="88" type="curve" smooth="yes"/>
      <point x="376" y="88"/>
      <point x="404" y="88"/>
      <point x="445" y="152" type="curve"/>
      <point x="462" y="152"/>
      <point x="473" y="138"/>
      <point x="476" y="128" type="curve"/>
      <point x="425" y="20"/>
      <point x="354" y="-10"/>
      <point x="300" y="-10" type="curve" smooth="yes"/>
      <point x="266" y="-10"/>
      <point x="226" y="-1"/>
      <point x="200" y="11" type="curve" smooth="yes"/>
      <point x="165" y="27"/>
      <point x="138" y="30"/>
      <point x="128" y="30" type="curve"/>
      <point x="118" y="27"/>
      <point x="104" y="18"/>
      <point x="80" y="-12" type="curve"/>
      <point x="61" y="-9"/>
      <point x="43" y="-2"/>
      <point x="38" y="8" type="curve"/>
      <point x="42" y="16"/>
      <point x="93" y="71"/>
      <point x="117" y="96" type="curve" smooth="yes"/>
      <point x="117" y="96"/>
      <point x="260" y="243"/>
      <point x="342" y="329" type="curve"/>
      <point x="327" y="329"/>
      <point x="319" y="327"/>
      <point x="304" y="327" type="curve" smooth="yes"/>
      <point x="274" y="327"/>
      <point x="268" y="341"/>
      <point x="219" y="341" type="curve" smooth="yes"/>
      <point x="190" y="341"/>
      <point x="137" y="312"/>
      <point x="125" y="285" type="curve"/>
      <point x="111" y="285"/>
      <point x="100" y="288"/>
      <point x="94" y="296" type="curve"/>
      <point x="114" y="354"/>
      <point x="187" y="439"/>
      <point x="233" y="439" type="curve" smooth="yes"/>
      <point x="286" y="439"/>
      <point x="341" y="429"/>
      <point x="389" y="415" type="curve" smooth="yes"/>
      <point x="398" y="412"/>
      <point x="405" y="412"/>
      <point x="410" y="412" type="curve"/>
      <point x="418" y="416"/>
      <point x="426" y="417"/>
      <point x="458" y="450" type="curve"/>
    </contour>
  </outline>
</glyph>
<glyph name="braceleft" format="2">
  <advance width="307"/>
  <unicode hex="007B"/>
  <outline>
    <contour>
      <point x="322.2" y="552.0" type="curve" smooth="yes"/>
      <point x="294.5" y="386.0" type="line" smooth="yes"/>
      <point x="279.6" y="297.0"/>
      <point x="234.0" y="268.2"/>
      <point x="166.7" y="249.0" type="curve"/>
      <point x="165.8" y="245.0" type="line"/>
      <point x="223.5" y="216.8"/>
      <point x="254.3" y="177.3"/>
      <point x="232.6" y="95.0" type="curve" smooth="yes"/>
      <point x="193.4" y="-54.0" type="line" smooth="yes"/>
      <point x="171.3" y="-138.0"/>
      <point x="198.8" y="-188.0"/>
      <point x="240.2" y="-188.0" type="curve"/>
      <point x="244.6" y="-194.0"/>
      <point x="242.0" y="-206.0"/>
      <point x="235.1" y="-212.0" type="curve"/>
      <point x="140.2" y="-212.0"/>
      <point x="66.3" y="-179.0"/>
      <point x="98.6" y="-49.0" type="curve" smooth="yes"/>
      <point x="140.4" y="121.0" type="line" smooth="yes"/>
      <point x="155.2" y="182.0"/>
      <point x="138.9" y="222.0"/>
      <point x="71.7" y="231.0" type="curve"/>
      <point x="65.9" y="239.0"/>
      <point x="68.1" y="254.0"/>
      <point x="78.5" y="263.0" type="curve"/>
      <point x="149.5" y="270.0"/>
      <point x="182.7" y="320.0"/>
      <point x="193.3" y="370.0" type="curve"/>
      <point x="226.8" y="554.0" type="line" smooth="yes"/>
      <point x="247.1" y="667.0"/>
      <point x="345.8" y="707.0"/>
      <point x="430.4" y="707.0" type="curve"/>
      <point x="434.8" y="701.0"/>
      <point x="432.2" y="689.0"/>
      <point x="425.3" y="683.0" type="curve"/>
      <point x="387.2" y="672.0"/>
      <point x="339.4" y="654.9"/>
    </contour>
  </outline>
</glyph>
<glyph name="bar" format="2">
  <advance width="220"/>
  <unicode hex="007C"/>
  <outline>
    <contour>
      <point x="125.8" y="-233.0" type="line"/>
      <point x="69.4" y="-233.0" type="line"/>
      <point x="200.2" y="698.0" type="line"/>
      <point x="256.6" y="698.0" type="line"/>
    </contour>
  </outline>
</glyph>
<glyph name="braceright" format="2">
  <advance width="307"/>
  <unicode hex="007D"/>
  <outline>
    <contour>
      <point x="89.8" y="-56.0" type="curve" smooth="yes"/>
      <point x="117.5" y="110.0" type="line" smooth="yes"/>
      <point x="132.4" y="199.0"/>
      <point x="178.0" y="227.8"/>
      <point x="245.3" y="247.0" type="curve"/>
      <point x="246.2" y="251.0" type="line"/>
      <point x="188.5" y="279.2"/>
      <point x="157.7" y="318.7"/>
      <point x="179.4" y="401.0" type="curve" smooth="yes"/>
      <point x="218.6" y="550.0" type="line" smooth="yes"/>
      <point x="240.7" y="634.0"/>
      <point x="213.2" y="684.0"/>
      <point x="171.8" y="684.0" type="curve"/>
      <point x="167.4" y="690.0"/>
      <point x="170.0" y="702.0"/>
      <point x="176.9" y="708.0" type="curve"/>
      <point x="271.8" y="708.0"/>
      <point x="345.7" y="675.0"/>
      <point x="313.4" y="545.0" type="curve" smooth="yes"/>
      <point x="271.6" y="375.0" type="line" smooth="yes"/>
      <point x="256.8" y="314.0"/>
      <point x="273.1" y="274.0"/>
      <point x="340.3" y="265.0" type="curve"/>
      <point x="346.1" y="257.0"/>
      <point x="343.9" y="242.0"/>
      <point x="333.5" y="233.0" type="curve"/>
      <point x="262.5" y="226.0"/>
      <point x="229.3" y="176.0"/>
      <point x="218.7" y="126.0" type="curve"/>
      <point x="185.2" y="-58.0" type="line" smooth="yes"/>
      <point x="164.9" y="-171.0"/>
      <point x="66.2" y="-211.0"/>
      <point x="-18.4" y="-211.0" type="curve"/>
      <point x="-22.8" y="-205.0"/>
      <point x="-20.2" y="-193.0"/>
      <point x="-13.3" y="-187.0" type="curve"/>
      <point x="24.8" y="-176.0"/>
      <point x="72.6" y="-158.9"/>
    </contour>
  </outline>
</glyph>
<glyph name="asciitilde" format="2">
  <advance width="449"/>
  <unicode hex="007E"/>
  <outline>
    <contour>
      <point x="63" y="209" type="line"/>
      <point x="87" y="274"/>
      <point x="153" y="352"/>
      <point x="213" y="352" type="curve" smooth="yes"/>
      <point x="259" y="352"/>
      <point x="304" y="287"/>
      <point x="349" y="287" type="curve" smooth="yes"/>
      <point x="377" y="287"/>
      <point x="419" y="289"/>
      <point x="450" y="339" type="curve"/>
      <point x="461" y="341"/>
      <point x="469" y="339"/>
      <point x="476" y="333" type="curve"/>
      <point x="426" y="226"/>
      <point x="359" y="198"/>
      <point x="335" y="198" type="curve" smooth="yes"/>
      <point x="282" y="198"/>
      <point x="249" y="263"/>
      <point x="197" y="263" type="curve" smooth="yes"/>
      <point x="162" y="263"/>
      <point x="116" y="250"/>
      <point x="85" y="206" type="curve"/>
      <point x="76" y="202"/>
      <point x="67" y="204"/>
      <point x="63" y="209" type="curve"/>
    </contour>
  </outline>
</glyph>
<glyph name="exclamdown" format="2">
  <advance width="266"/>
  <unicode hex="00A1"/>
  <outline>
    <contour>
      <point x="89" y="-224" type="curve" smooth="yes"/>
      <point x="54" y="-224"/>
      <point x="27" y="-200"/>
      <point x="38" y="-149" type="curve" smooth="yes"/>
      <point x="45" y="-114"/>
      <point x="61" y="-76"/>
      <point x="73" y="-43" type="curve" smooth="yes"/>
      <point x="109" y="55"/>
      <point x="143" y="155"/>
      <point x="154" y="204" type="curve" smooth="yes"/>
      <point x="158" y="223"/>
      <point x="168" y="246"/>
      <point x="189" y="246" type="curve" smooth="yes"/>
      <point x="214" y="246"/>
      <point x="212" y="226"/>
      <point x="206" y="192" type="curve" smooth="yes"/>
      <point x="197" y="144"/>
      <point x="185" y="24"/>
      <point x="182" y="-46" type="curve" smooth="yes"/>
      <point x="181" y="-81"/>
      <point x="181" y="-110"/>
      <point x="173" y="-149" type="curve" smooth="yes"/>
      <point x="161" y="-205"/>
      <point x="118" y="-224"/>
    </contour>
    <contour>
      <point x="284" y="376" type="curve" smooth="yes"/>
      <point x="284" y="337"/>
      <point x="250" y="305"/>
      <point x="210" y="305" type="curve" smooth="yes"/>
      <point x="170" y="305"/>
      <point x="138" y="335"/>
      <point x="138" y="374" type="curve" smooth="yes"/>
      <point x="138" y="412"/>
      <point x="172" y="444"/>
      <point x="212" y="444" type="curve" smooth="yes"/>
      <point x="252" y="444"/>
      <point x="284" y="414"/>
    </contour>
  </outline>
</glyph>
<glyph name="cent" format="2">
  <advance width="540"/>
  <unicode hex="00A2"/>
  <outline>
    <contour>
      <point x="377.8" y="584.0" type="line"/>
      <point x="409.7" y="584.0" type="line"/>
      <point x="395.0" y="514.7" type="line"/>
      <point x="487.6" y="509.9"/>
      <point x="522.1" y="454.0"/>
      <point x="513.0" y="411.0" type="curve" smooth="yes"/>
      <point x="506.4" y="380.0"/>
      <point x="479.5" y="355.0"/>
      <point x="449.4" y="355.0" type="curve" smooth="yes"/>
      <point x="419.3" y="355.0"/>
      <point x="398.2" y="375.0"/>
      <point x="401.1" y="402.0" type="curve" smooth="yes"/>
      <point x="404.1" y="426.3"/>
      <point x="401.5" y="454.7"/>
      <point x="384.8" y="466.9" type="curve"/>
      <point x="314.6" y="136.5" type="line"/>
      <point x="324.0" y="133.5"/>
      <point x="334.1" y="132.0"/>
      <point x="344.7" y="132.0" type="curve" smooth="yes"/>
      <point x="372.0" y="132.0"/>
      <point x="408.1" y="152.0"/>
      <point x="453.6" y="189.0" type="curve"/>
      <point x="463.9" y="189.0"/>
      <point x="461.7" y="170.0"/>
      <point x="459.2" y="158.0" type="curve"/>
      <point x="416.5" y="108.4"/>
      <point x="352.3" y="69.4"/>
      <point x="298.8" y="62.2" type="curve"/>
      <point x="283.0" y="-12.0" type="line"/>
      <point x="251.1" y="-12.0" type="line"/>
      <point x="266.7" y="61.3" type="line"/>
      <point x="208.5" y="63.5"/>
      <point x="172.9" y="78.9"/>
      <point x="146.1" y="113.0" type="curve" smooth="yes"/>
      <point x="117.4" y="149.5"/>
      <point x="107.9" y="207.4"/>
      <point x="121.6" y="272.0" type="curve" smooth="yes"/>
      <point x="151.3" y="411.6"/>
      <point x="257.8" y="504.0"/>
      <point x="362.9" y="514.1" type="curve"/>
    </contour>
    <contour>
      <point x="285.9" y="151.8" type="curve"/>
      <point x="354.0" y="472.2" type="line"/>
      <point x="309.1" y="464.9"/>
      <point x="273.1" y="410.1"/>
      <point x="251.2" y="307.0" type="curve" smooth="yes"/>
      <point x="235.6" y="233.6"/>
      <point x="251.8" y="179.2"/>
    </contour>
  </outline>
</glyph>
<glyph name="sterling" format="2">
  <advance width="540"/>
  <unicode hex="00A3"/>
  <outline>
    <contour>
      <point x="144" y="292" type="line" smooth="yes"/>
      <point x="122" y="292"/>
      <point x="118" y="296"/>
      <point x="120" y="303" type="curve" smooth="yes"/>
      <point x="123" y="319" type="line" smooth="yes"/>
      <point x="125" y="329"/>
      <point x="138" y="339"/>
      <point x="172" y="339" type="curve" smooth="yes"/>
      <point x="201" y="339" type="line"/>
      <point x="206" y="363" type="line" smooth="yes"/>
      <point x="226" y="459"/>
      <point x="272" y="512"/>
      <point x="329" y="560" type="curve"/>
      <point x="375" y="597"/>
      <point x="431" y="614"/>
      <point x="482" y="614" type="curve" smooth="yes"/>
      <point x="504" y="614"/>
      <point x="569" y="609"/>
      <point x="559" y="562" type="curve" smooth="yes"/>
      <point x="552" y="528"/>
      <point x="526" y="505"/>
      <point x="494" y="505" type="curve" smooth="yes"/>
      <point x="477" y="505"/>
      <point x="464" y="517"/>
      <point x="454" y="531" type="curve" smooth="yes"/>
      <point x="443" y="548"/>
      <point x="449" y="574"/>
      <point x="428" y="574" type="curve" smooth="yes"/>
      <point x="384" y="574"/>
      <point x="358" y="502"/>
      <point x="339" y="414" type="curve" smooth="yes"/>
      <point x="323" y="339" type="line"/>
      <point x="408" y="339" type="line" smooth="yes"/>
      <point x="426" y="339"/>
      <point x="436" y="334"/>
      <point x="434" y="328" type="curve" smooth="yes"/>
      <point x="431" y="312" type="line" smooth="yes"/>
      <point x="428" y="298"/>
      <point x="400" y="292"/>
      <point x="382" y="292" type="curve" smooth="yes"/>
      <point x="313" y="292" type="line"/>
      <point x="287" y="185"/>
      <point x="231" y="131"/>
      <point x="190" y="101" type="curve"/>
      <point x="295" y="100"/>
      <point x="293" y="56"/>
      <point x="341" y="56" type="curve" smooth="yes"/>
      <point x="369" y="56"/>
      <point x="414" y="77"/>
      <point x="446" y="112" type="curve"/>
      <point x="465" y="97" type="line"/>
      <point x="436" y="45"/>
      <point x="380" y="-13"/>
      <point x="309" y="-13" type="curve" smooth="yes"/>
      <point x="237" y="-13"/>
      <point x="194" y="49"/>
      <point x="152" y="49" type="curve" smooth="yes"/>
      <point x="120" y="49"/>
      <point x="114" y="35"/>
      <point x="111" y="22" type="curve" smooth="yes"/>
      <point x="105" y="-7"/>
      <point x="77" y="-20"/>
      <point x="59" y="-20" type="curve" smooth="yes"/>
      <point x="44" y="-20"/>
      <point x="30" y="-6"/>
      <point x="33" y="7" type="curve" smooth="yes"/>
      <point x="38" y="35"/>
      <point x="65" y="60"/>
      <point x="96" y="76" type="curve"/>
      <point x="121" y="93"/>
      <point x="156" y="127"/>
      <point x="189" y="284" type="curve" smooth="yes"/>
      <point x="191" y="292" type="line"/>
    </contour>
  </outline>
</glyph>
<glyph name="currency" format="2">
  <advance width="463"/>
  <unicode hex="00A4"/>
  <outline>
    <contour>
      <point x="173.9" y="300.0" type="curve" smooth="yes"/>
      <point x="159.0" y="230.0"/>
      <point x="194.7" y="177.0"/>
      <point x="256.8" y="177.0" type="curve" smooth="yes"/>
      <point x="319.8" y="177.0"/>
      <point x="377.3" y="231.0"/>
      <point x="391.8" y="299.0" type="curve" smooth="yes"/>
      <point x="407.1" y="371.0"/>
      <point x="365.4" y="422.0"/>
      <point x="310.8" y="422.0" type="curve" smooth="yes"/>
      <point x="249.7" y="422.0"/>
      <point x="188.6" y="369.0"/>
    </contour>
    <contour>
      <point x="245.1" y="122.0" type="curve" smooth="yes"/>
      <point x="209.4" y="122.0"/>
      <point x="180.4" y="131.0"/>
      <point x="156.5" y="147.0" type="curve"/>
      <point x="139.5" y="129.0"/>
      <point x="114.2" y="103.0"/>
      <point x="100.9" y="89.0" type="curve"/>
      <point x="56.1" y="148.0" type="line"/>
      <point x="115.1" y="191.0" type="line"/>
      <point x="96.2" y="226.0"/>
      <point x="89.5" y="261.0"/>
      <point x="97.6" y="299.0" type="curve" smooth="yes"/>
      <point x="105.9" y="338.0"/>
      <point x="127.6" y="374.0"/>
      <point x="162.3" y="409.0" type="curve"/>
      <point x="149.8" y="421.0"/>
      <point x="133.5" y="437.0"/>
      <point x="122.2" y="450.0" type="curve"/>
      <point x="186.0" y="507.0" type="line"/>
      <point x="221.3" y="452.0" type="line"/>
      <point x="252.9" y="468.0"/>
      <point x="285.8" y="477.0"/>
      <point x="322.5" y="477.0" type="curve" smooth="yes"/>
      <point x="360.1" y="477.0"/>
      <point x="386.1" y="467.0"/>
      <point x="410.0" y="451.0" type="curve"/>
      <point x="429.1" y="470.0"/>
      <point x="457.6" y="498.0"/>
      <point x="470.9" y="512.0" type="curve"/>
      <point x="512.5" y="451.0" type="line"/>
      <point x="451.2" y="406.0" type="line"/>
      <point x="470.3" y="372.0"/>
      <point x="476.1" y="337.0"/>
      <point x="468.0" y="299.0" type="curve" smooth="yes"/>
      <point x="460.3" y="263.0"/>
      <point x="438.8" y="228.0"/>
      <point x="406.9" y="193.0" type="curve"/>
      <point x="419.2" y="180.0"/>
      <point x="435.1" y="162.0"/>
      <point x="446.4" y="149.0" type="curve"/>
      <point x="383.3" y="91.0" type="line"/>
      <point x="347.7" y="149.0" type="line"/>
      <point x="315.9" y="132.0"/>
      <point x="281.8" y="122.0"/>
    </contour>
  </outline>
</glyph>
<glyph name="yen" format="2">
  <advance width="540"/>
  <unicode hex="00A5"/>
  <outline>
    <contour>
      <point x="492.5" y="177.0" type="line"/>
      <point x="483.6" y="135.0" type="line"/>
      <point x="362.4" y="135.0" type="line"/>
      <point x="361.5" y="130.7"/>
      <point x="360.5" y="126.3"/>
      <point x="359.6" y="122.0" type="curve" smooth="yes"/>
      <point x="342.0" y="39.0"/>
      <point x="357.0" y="35.0"/>
      <point x="431.6" y="32.0" type="curve"/>
      <point x="436.0" y="26.0"/>
      <point x="431.3" y="4.0"/>
      <point x="424.4" y="-2.0" type="curve"/>
      <point x="377.6" y="-1.0"/>
      <point x="336.6" y="0.0"/>
      <point x="280.1" y="0.0" type="curve" smooth="yes"/>
      <point x="217.8" y="0.0"/>
      <point x="166.2" y="-1.0"/>
      <point x="119.9" y="-2.0" type="curve"/>
      <point x="115.5" y="4.0"/>
      <point x="120.2" y="26.0"/>
      <point x="127.1" y="32.0" type="curve"/>
      <point x="202.9" y="35.0"/>
      <point x="219.8" y="39.0"/>
      <point x="237.4" y="122.0" type="curve" smooth="yes"/>
      <point x="240.2" y="135.0" type="line"/>
      <point x="126.4" y="135.0" type="line"/>
      <point x="135.3" y="177.0" type="line"/>
      <point x="249.1" y="177.0" type="line"/>
      <point x="263.5" y="245.0" type="line"/>
      <point x="149.8" y="245.0" type="line"/>
      <point x="158.7" y="287.0" type="line"/>
      <point x="270.0" y="287.0" type="line"/>
      <point x="269.5" y="297.4"/>
      <point x="266.3" y="309.2"/>
      <point x="259.5" y="332.0" type="curve" smooth="yes"/>
      <point x="211.4" y="492.0" type="line"/>
      <point x="197.7" y="542.7"/>
      <point x="178.3" y="565.0"/>
      <point x="139.5" y="568.0" type="curve"/>
      <point x="135.1" y="574.0"/>
      <point x="138.9" y="596.0"/>
      <point x="145.8" y="602.0" type="curve"/>
      <point x="173.8" y="601.0"/>
      <point x="237.4" y="600.0"/>
      <point x="274.1" y="600.0" type="curve" smooth="yes"/>
      <point x="311.7" y="600.0"/>
      <point x="348.6" y="601.0"/>
      <point x="386.4" y="602.0" type="curve"/>
      <point x="390.8" y="596.0"/>
      <point x="386.1" y="574.0"/>
      <point x="379.2" y="568.0" type="curve"/>
      <point x="325.9" y="565.0"/>
      <point x="322.4" y="555.2"/>
      <point x="328.1" y="531.0" type="curve" smooth="yes"/>
      <point x="365.4" y="373.0" type="line" smooth="yes"/>
      <point x="371.2" y="348.5"/>
      <point x="379.1" y="347.3"/>
      <point x="393.1" y="370.0" type="curve" smooth="yes"/>
      <point x="492.6" y="531.0" type="line" smooth="yes"/>
      <point x="509.8" y="559.9"/>
      <point x="494.5" y="565.0"/>
      <point x="453.4" y="568.0" type="curve"/>
      <point x="449.0" y="574.0"/>
      <point x="453.8" y="596.0"/>
      <point x="460.7" y="602.0" type="curve"/>
      <point x="498.1" y="601.0"/>
      <point x="533.6" y="600.0"/>
      <point x="555.2" y="600.0" type="curve" smooth="yes"/>
      <point x="576.8" y="600.0"/>
      <point x="605.2" y="601.0"/>
      <point x="633.6" y="602.0" type="curve"/>
      <point x="638.0" y="596.0"/>
      <point x="633.3" y="574.0"/>
      <point x="626.4" y="568.0" type="curve"/>
      <point x="583.5" y="563.7"/>
      <point x="557.9" y="549.3"/>
      <point x="532.5" y="510.0" type="curve" smooth="yes"/>
      <point x="425.2" y="351.0" type="line" smooth="yes"/>
      <point x="406.0" y="322.6"/>
      <point x="400.7" y="311.6"/>
      <point x="394.8" y="287.0" type="curve"/>
      <point x="515.9" y="287.0" type="line"/>
      <point x="507.0" y="245.0" type="line"/>
      <point x="385.7" y="245.0" type="line"/>
      <point x="371.3" y="177.0" type="line"/>
    </contour>
  </outline>
</glyph>
<glyph name="brokenbar" format="2">
  <advance width="220"/>
  <unicode hex="00A6"/>
  <outline>
    <contour>
      <point x="284" y="674" type="line"/>
      <point x="207" y="312" type="line"/>
      <point x="151" y="312" type="line"/>
      <point x="228" y="674" type="line"/>
    </contour>
    <contour>
      <point x="175" y="161" type="line"/>
      <point x="98" y="-201" type="line"/>
      <point x="42" y="-201" type="line"/>
      <point x="119" y="161" type="line"/>
    </contour>
  </outline>
</glyph>
<glyph name="section" format="2">
  <advance width="466"/>
  <unicode hex="00A7"/>
  <outline>
    <contour>
      <point x="394.0" y="-26.0" type="curve" smooth="yes"/>
      <point x="379.3" y="-95.0"/>
      <point x="317.5" y="-169.0"/>
      <point x="188.7" y="-169.0" type="curve" smooth="yes"/>
      <point x="120.1" y="-169.0"/>
      <point x="37.4" y="-125.0"/>
      <point x="56.1" y="-37.0" type="curve" smooth="yes"/>
      <point x="61.6" y="-11.0"/>
      <point x="95.6" y="12.0"/>
      <point x="116.3" y="12.0" type="curve" smooth="yes"/>
      <point x="155.8" y="12.0"/>
      <point x="167.9" y="-28.0"/>
      <point x="165.6" y="-39.0" type="curve" smooth="yes"/>
      <point x="160.1" y="-65.0"/>
      <point x="143.4" y="-73.0"/>
      <point x="140.4" y="-87.0" type="curve" smooth="yes"/>
      <point x="138.9" y="-94.0"/>
      <point x="139.8" y="-134.0"/>
      <point x="194.3" y="-134.0" type="curve" smooth="yes"/>
      <point x="236.6" y="-134.0"/>
      <point x="274.9" y="-100.0"/>
      <point x="289.1" y="-33.0" type="curve" smooth="yes"/>
      <point x="299.9" y="18.0"/>
      <point x="244.8" y="55.0"/>
      <point x="202.8" y="83.0" type="curve" smooth="yes"/>
      <point x="111.6" y="145.0"/>
      <point x="85.1" y="197.0"/>
      <point x="101.9" y="276.0" type="curve" smooth="yes"/>
      <point x="112.8" y="327.4"/>
      <point x="153.4" y="370.6"/>
      <point x="193.1" y="402.1" type="curve"/>
      <point x="179.7" y="428.0"/>
      <point x="173.4" y="462.0"/>
      <point x="182.3" y="504.0" type="curve" smooth="yes"/>
      <point x="189.3" y="537.0"/>
      <point x="217.0" y="583.0"/>
      <point x="254.4" y="613.0" type="curve" smooth="yes"/>
      <point x="291.8" y="643.0"/>
      <point x="339.2" y="658.0"/>
      <point x="384.3" y="658.0" type="curve" smooth="yes"/>
      <point x="476.4" y="658.0"/>
      <point x="535.5" y="613.0"/>
      <point x="517.4" y="528.0" type="curve" smooth="yes"/>
      <point x="511.4" y="500.0"/>
      <point x="475.7" y="478.0"/>
      <point x="454.1" y="478.0" type="curve" smooth="yes"/>
      <point x="413.7" y="478.0"/>
      <point x="406.2" y="518.0"/>
      <point x="408.5" y="529.0" type="curve" smooth="yes"/>
      <point x="415.1" y="560.0"/>
      <point x="428.5" y="561.0"/>
      <point x="431.9" y="577.0" type="curve" smooth="yes"/>
      <point x="436.6" y="599.0"/>
      <point x="429.5" y="623.0"/>
      <point x="380.6" y="623.0" type="curve" smooth="yes"/>
      <point x="327.0" y="623.0"/>
      <point x="295.4" y="576.0"/>
      <point x="284.3" y="524.0" type="curve" smooth="yes"/>
      <point x="274.3" y="477.0"/>
      <point x="298.7" y="459.0"/>
      <point x="337.3" y="437.0" type="curve" smooth="yes"/>
      <point x="430.9" y="382.0"/>
      <point x="498.5" y="342.0"/>
      <point x="472.4" y="219.0" type="curve" smooth="yes"/>
      <point x="460.7" y="164.2"/>
      <point x="417.7" y="120.0"/>
      <point x="375.5" y="88.3" type="curve"/>
      <point x="395.1" y="53.2"/>
      <point x="402.4" y="13.7"/>
    </contour>
    <contour>
      <point x="207.1" y="380.8" type="curve"/>
      <point x="195.4" y="364.3"/>
      <point x="188.9" y="344.7"/>
      <point x="184.5" y="324.0" type="curve" smooth="yes"/>
      <point x="174.1" y="275.0"/>
      <point x="192.5" y="229.0"/>
      <point x="284.6" y="176.0" type="curve" smooth="yes"/>
      <point x="315.8" y="158.6"/>
      <point x="341.8" y="136.2"/>
      <point x="360.9" y="110.8" type="curve"/>
      <point x="376.1" y="127.6"/>
      <point x="384.9" y="147.8"/>
      <point x="389.8" y="171.0" type="curve" smooth="yes"/>
      <point x="407.7" y="255.0"/>
      <point x="353.3" y="291.0"/>
      <point x="241.2" y="352.0" type="curve" smooth="yes"/>
      <point x="229.3" y="358.6"/>
      <point x="217.3" y="368.3"/>
    </contour>
  </outline>
</glyph>
<glyph name="dieresis" format="2">
  <advance width="410"/>
  <unicode hex="00A8"/>
  <outline>
    <contour>
      <point x="354.7" y="573.0" type="curve" smooth="yes"/>
      <point x="356.9" y="604.0"/>
      <point x="381.2" y="628.0"/>
      <point x="410.3" y="628.0" type="curve" smooth="yes"/>
      <point x="438.5" y="628.0"/>
      <point x="460.3" y="604.0"/>
      <point x="458.1" y="573.0" type="curve" smooth="yes"/>
      <point x="455.9" y="543.0"/>
      <point x="430.7" y="519.0"/>
      <point x="402.5" y="519.0" type="curve" smooth="yes"/>
      <point x="373.4" y="519.0"/>
      <point x="352.5" y="543.0"/>
    </contour>
    <contour>
      <point x="179.8" y="573.0" type="curve" smooth="yes"/>
      <point x="182.0" y="604.0"/>
      <point x="207.3" y="628.0"/>
      <point x="235.5" y="628.0" type="curve" smooth="yes"/>
      <point x="264.6" y="628.0"/>
      <point x="285.4" y="604.0"/>
      <point x="283.2" y="573.0" type="curve" smooth="yes"/>
      <point x="281.0" y="543.0"/>
      <point x="256.8" y="519.0"/>
      <point x="227.7" y="519.0" type="curve" smooth="yes"/>
      <point x="199.5" y="519.0"/>
      <point x="177.6" y="543.0"/>
    </contour>
  </outline>
</glyph>
<glyph name="copyright" format="2">
  <advance width="633"/>
  <unicode hex="00A9"/>
  <outline>
    <contour>
      <point x="466" y="218" type="line"/>
      <point x="443" y="188"/>
      <point x="401" y="158"/>
      <point x="355" y="158" type="curve" smooth="yes"/>
      <point x="319" y="158"/>
      <point x="281" y="173"/>
      <point x="263" y="200" type="curve" smooth="yes"/>
      <point x="244" y="229"/>
      <point x="240" y="267"/>
      <point x="248" y="306" type="curve" smooth="yes"/>
      <point x="265" y="387"/>
      <point x="337" y="450"/>
      <point x="411" y="450" type="curve" smooth="yes"/>
      <point x="470" y="450"/>
      <point x="482" y="436"/>
      <point x="498" y="430" type="curve"/>
      <point x="496" y="400"/>
      <point x="495" y="382"/>
      <point x="492" y="360" type="curve"/>
      <point x="487" y="357"/>
      <point x="481" y="357"/>
      <point x="474" y="357" type="curve"/>
      <point x="462" y="402"/>
      <point x="454" y="417"/>
      <point x="413" y="417" type="curve" smooth="yes"/>
      <point x="385" y="417"/>
      <point x="348" y="392"/>
      <point x="329" y="305" type="curve" smooth="yes"/>
      <point x="314" y="235"/>
      <point x="327" y="198"/>
      <point x="375" y="198" type="curve" smooth="yes"/>
      <point x="418" y="198"/>
      <point x="441" y="218"/>
      <point x="453" y="233" type="curve"/>
      <point x="461" y="230"/>
      <point x="464" y="224"/>
      <point x="466" y="218" type="curve"/>
    </contour>
    <contour>
      <point x="310" y="23" type="line" smooth="yes"/>
      <point x="162" y="23"/>
      <point x="71" y="151"/>
      <point x="104" y="306" type="curve" smooth="yes"/>
      <point x="137" y="462"/>
      <point x="283" y="588"/>
      <point x="430" y="588" type="curve" smooth="yes"/>
      <point x="577" y="588"/>
      <point x="668" y="462"/>
      <point x="635" y="306" type="curve" smooth="yes"/>
      <point x="602" y="150"/>
      <point x="456" y="23"/>
      <point x="310" y="23" type="curve" smooth="yes"/>
    </contour>
    <contour>
      <point x="423" y="557" type="line" smooth="yes"/>
      <point x="292" y="557"/>
      <point x="163" y="445"/>
      <point x="133" y="306" type="curve" smooth="yes"/>
      <point x="104" y="168"/>
      <point x="185" y="55"/>
      <point x="317" y="55" type="curve" smooth="yes"/>
      <point x="446" y="55"/>
      <point x="576" y="167"/>
      <point x="606" y="306" type="curve" smooth="yes"/>
      <point x="636" y="445"/>
      <point x="554" y="557"/>
      <point x="423" y="557" type="curve" smooth="yes"/>
    </contour>
  </outline>
</glyph>
